<svg width="180" height="180" viewBox="0 0 180 180" fill="none" xmlns="http://www.w3.org/2000/svg">
<path fill-rule="evenodd" clip-rule="evenodd" d="M13.8848 114.943C17.8026 127.001 24.5186 137.961 33.4836 146.926L47.2448 133.165C40.4514 126.371 35.3623 118.066 32.3935 108.929C29.4246 99.7923 28.6605 90.0824 30.1634 80.5934C31.6663 71.1044 35.3936 62.1058 41.0406 54.3333C46.6876 46.5609 54.094 40.2352 62.6541 35.8736L53.819 18.5336C42.5224 24.2895 32.7484 32.6372 25.2962 42.8943C17.844 53.1514 12.9251 65.0266 10.9418 77.549C8.95842 90.0713 9.96689 102.885 13.8848 114.943Z" fill="url(#paint0_linear_531_46)"/>
<path fill-rule="evenodd" clip-rule="evenodd" d="M9.86474 90.2045C9.86474 134.575 45.8341 170.544 90.2046 170.544C134.575 170.544 170.544 134.575 170.544 90.2045C170.544 45.834 134.575 9.86462 90.2046 9.86462C45.8341 9.86462 9.86474 45.834 9.86474 90.2045ZM29.3259 90.2046C29.3259 123.827 56.5822 151.083 90.2045 151.083C123.827 151.083 151.083 123.827 151.083 90.2046C151.083 56.5822 123.827 29.326 90.2045 29.326C56.5822 29.326 29.3259 56.5822 29.3259 90.2046Z" fill="url(#paint1_linear_531_46)"/>
<defs>
<linearGradient id="paint0_linear_531_46" x1="36.3034" y1="18.5336" x2="36.3034" y2="146.926" gradientUnits="userSpaceOnUse">
<stop stop-color="#68C9FF"/>
<stop offset="1" stop-color="#C8A6FF"/>
</linearGradient>
<linearGradient id="paint1_linear_531_46" x1="158.138" y1="71.6066" x2="46.185" y2="133.024" gradientUnits="userSpaceOnUse">
<stop stop-color="#68C9FF"/>
<stop offset="1" stop-color="#9F87FF" stop-opacity="0"/>
</linearGradient>
</defs>
</svg>
