<svg width="180" height="180" viewBox="0 0 180 180" fill="none" xmlns="http://www.w3.org/2000/svg">
<path fill-rule="evenodd" clip-rule="evenodd" d="M24.8247 150.798L29.1137 146.777C29.7379 147.442 30.3751 148.1 31.0254 148.751C31.6758 149.401 32.334 150.038 32.9997 150.662L28.9784 154.951C28.2667 154.284 27.5631 153.603 26.8682 152.908C26.1732 152.213 25.4921 151.51 24.8247 150.798ZM33.3793 158.818L37.1143 154.277C38.5337 155.445 39.9821 156.559 41.457 157.618L38.0269 162.393C36.4481 161.259 34.8979 160.067 33.3793 158.818ZM42.8985 165.655L46.0072 160.665C47.5626 161.634 49.1428 162.547 50.7449 163.404L47.9717 168.588C46.256 167.67 44.5639 166.693 42.8985 165.655ZM53.229 171.181L55.6545 165.826C57.3222 166.581 59.0097 167.279 60.714 167.919L58.6463 173.423C56.8216 172.737 55.0148 171.99 53.229 171.181ZM64.1976 175.303C66.0717 175.869 67.9608 176.373 69.8615 176.815L71.1912 171.088C69.4152 170.675 67.6502 170.204 65.8994 169.675L64.1976 175.303ZM75.6121 177.953L76.5649 172.152C78.3687 172.448 80.1804 172.685 81.9969 172.863L81.4239 178.714C79.4805 178.524 77.5421 178.27 75.6121 177.953ZM87.2738 179.095L87.4649 173.219C89.2909 173.278 91.1185 173.278 92.9445 173.219L93.1357 179.095C91.1823 179.159 89.2272 179.159 87.2738 179.095ZM98.9855 178.714L98.4125 172.863C100.229 172.685 102.041 172.448 103.845 172.152L104.797 177.953C102.867 178.27 100.929 178.524 98.9855 178.714ZM110.548 176.815L109.218 171.088C110.994 170.675 112.759 170.204 114.51 169.675L116.212 175.303C114.338 175.869 112.449 176.373 110.548 176.815ZM121.763 173.423L119.695 167.919C121.4 167.279 123.087 166.581 124.755 165.826L127.18 171.181C125.395 171.99 123.588 172.737 121.763 173.423ZM132.438 168.588L129.665 163.404C131.267 162.547 132.847 161.634 134.402 160.665L137.511 165.655C135.846 166.693 134.153 167.67 132.438 168.588ZM142.383 162.393L138.953 157.618C140.427 156.559 141.876 155.445 143.295 154.277L147.03 158.818C145.512 160.067 143.961 161.259 142.383 162.393ZM151.431 154.951L147.41 150.662C148.076 150.038 148.734 149.401 149.384 148.751C150.034 148.1 150.672 147.442 151.296 146.777L155.585 150.798C154.917 151.51 154.236 152.213 153.541 152.908C152.846 153.603 152.143 154.284 151.431 154.951ZM159.451 146.397L154.911 142.662C156.078 141.243 157.192 139.794 158.251 138.319L163.026 141.749C161.892 143.328 160.7 144.878 159.451 146.397ZM166.289 136.878L161.298 133.769C162.267 132.214 163.18 130.633 164.037 129.031L169.222 131.805C168.304 133.52 167.326 135.212 166.289 136.878ZM171.815 126.547L166.459 124.122C167.214 122.454 167.912 120.767 168.552 119.062L174.056 121.13C173.371 122.955 172.623 124.761 171.815 126.547ZM175.936 115.579L170.308 113.877C170.838 112.126 171.309 110.361 171.721 108.585L177.448 109.915C177.007 111.815 176.503 113.704 175.936 115.579ZM178.586 104.164L172.785 103.211C173.081 101.407 173.318 99.5958 173.496 97.7793L179.347 98.3522C179.157 100.296 178.903 102.234 178.586 104.164ZM179.729 92.5024L173.852 92.3112C173.912 90.4852 173.912 88.6577 173.852 86.8317L179.729 86.6405C179.792 88.5939 179.792 90.549 179.729 92.5024ZM179.347 80.7907L173.496 81.3636C173.318 79.5471 173.081 77.7354 172.785 75.9317L178.586 74.9788C178.903 76.9088 179.157 78.8472 179.347 80.7907ZM177.448 69.2282L171.721 70.5579C171.309 68.7819 170.838 67.0169 170.308 65.2661L175.936 63.5643C176.503 65.4384 177.007 67.3275 177.448 69.2282ZM174.056 58.0131L168.552 60.0807C167.912 58.3764 167.214 56.6889 166.459 55.0212L171.815 52.5957C172.623 54.3815 173.371 56.1883 174.056 58.0131ZM169.222 47.3384L164.037 50.1116C163.18 48.5095 162.267 46.9293 161.298 45.3739L166.289 42.2652C167.326 43.9306 168.304 45.6227 169.222 47.3384ZM163.026 37.3936L158.251 40.8237C157.192 39.3488 156.078 37.9004 154.911 36.481L159.451 32.746C160.7 34.2646 161.892 35.8148 163.026 37.3936ZM155.585 28.3451C154.917 27.6334 154.236 26.9298 153.541 26.2349C152.846 25.5399 152.143 24.8588 151.431 24.1914L147.41 28.4804C148.076 29.1046 148.734 29.7418 149.384 30.3921C150.034 31.0425 150.672 31.7006 151.296 32.3664L155.585 28.3451ZM147.03 20.325L143.295 24.8654C141.876 23.6978 140.427 22.5843 138.953 21.5249L142.383 16.7499C143.961 17.884 145.512 19.0757 147.03 20.325ZM137.511 13.4876L134.402 18.4778C132.847 17.5088 131.267 16.5958 129.665 15.7387L132.438 10.5546C134.153 11.4725 135.846 12.4501 137.511 13.4876ZM127.181 7.9615L124.755 13.3171C123.087 12.5619 121.4 11.8641 119.696 11.2238L121.763 5.7201C123.588 6.40562 125.395 7.15275 127.181 7.9615ZM116.212 3.84035L114.51 9.46793C112.759 8.93846 110.994 8.46754 109.218 8.05521L110.548 2.32827C112.449 2.76956 114.338 3.27359 116.212 3.84035ZM104.797 1.18979L103.845 6.99132C102.041 6.69507 100.229 6.45798 98.4125 6.2801L98.9855 0.428822C100.929 0.619134 102.867 0.872784 104.797 1.18979ZM93.1357 0.0476742L92.9445 5.92384C91.1185 5.86443 89.291 5.86442 87.4649 5.92383L87.2738 0.0476665C89.2272 -0.0158913 91.1823 -0.0158889 93.1357 0.0476742ZM81.424 0.428818L81.997 6.28011C80.1804 6.45799 78.3687 6.69505 76.565 6.99132L75.6121 1.18979C77.5421 0.872786 79.4805 0.61913 81.424 0.428818ZM69.8615 2.32827L71.1912 8.05521C69.4152 8.46755 67.6502 8.93846 65.8994 9.46792L64.1976 3.84035C66.0717 3.27359 67.9608 2.76957 69.8615 2.32827ZM58.6464 5.7201L60.714 11.2238C59.0097 11.8641 57.3222 12.5619 55.6545 13.3171L53.229 7.96149C55.0148 7.15274 56.8216 6.40561 58.6464 5.7201ZM47.9717 10.5546L50.7449 15.7387C49.1428 16.5958 47.5626 17.5088 46.0072 18.4778L42.8985 13.4876C44.5639 12.4501 46.256 11.4725 47.9717 10.5546ZM38.0269 16.7499L41.457 21.5249C39.9822 22.5843 38.5337 23.6978 37.1143 24.8654L33.3793 20.325C34.8979 19.0757 36.4481 17.884 38.0269 16.7499ZM28.9784 24.1914L32.9997 28.4804C32.334 29.1046 31.6758 29.7418 31.0254 30.3921C30.3751 31.0424 29.7379 31.7006 29.1137 32.3664L24.8247 28.3451C25.4921 27.6334 26.1732 26.9298 26.8682 26.2349C27.5631 25.5399 28.2667 24.8588 28.9784 24.1914ZM20.9583 32.746L25.4987 36.481C24.3311 37.9004 23.2176 39.3488 22.1582 40.8237L17.3832 37.3935C18.5173 35.8148 19.709 34.2646 20.9583 32.746ZM14.1209 42.2652L19.1111 45.3739C18.1421 46.9293 17.2291 48.5095 16.372 50.1116L11.1879 47.3384C12.1058 45.6227 13.0834 43.9306 14.1209 42.2652ZM8.5948 52.5957L13.9504 55.0212C13.1952 56.6889 12.4974 58.3763 11.8571 60.0807L6.3534 58.0131C7.03892 56.1883 7.78605 54.3814 8.5948 52.5957ZM4.47366 63.5643L10.1012 65.2661C9.57176 67.0169 9.10084 68.7819 8.68852 70.5579L2.96158 69.2282C3.40288 67.3275 3.9069 65.4384 4.47366 63.5643ZM1.82308 74.9788L7.62462 75.9316C7.32837 77.7354 7.09128 79.5471 6.9134 81.3636L1.06212 80.7906C1.25244 78.8472 1.50608 76.9088 1.82308 74.9788ZM0.68098 86.6404L6.55714 86.8316C6.49772 88.6576 6.49773 90.4852 6.55713 92.3112L0.680965 92.5024C0.617403 90.549 0.617418 88.5939 0.68098 86.6404ZM1.06212 98.3522C1.25244 100.296 1.50608 102.234 1.82308 104.164L7.62463 103.211C7.32836 101.407 7.09129 99.5958 6.9134 97.7792L1.06212 98.3522ZM2.96157 109.915L8.6885 108.585C9.10084 110.361 9.57176 112.126 10.1012 113.877L4.47365 115.579C3.90689 113.704 3.40286 111.815 2.96157 109.915ZM6.3534 121.13L11.8571 119.062C12.4974 120.767 13.1952 122.454 13.9504 124.122L8.59479 126.547C7.78604 124.761 7.03891 122.955 6.3534 121.13ZM11.188 131.804L16.372 129.031C17.2291 130.633 18.1421 132.214 19.1111 133.769L14.1209 136.878C13.0834 135.212 12.1058 133.52 11.188 131.804ZM17.3832 141.749L22.1582 138.319C23.2176 139.794 24.3311 141.242 25.4987 142.662L20.9583 146.397C19.709 144.878 18.5173 143.328 17.3832 141.749Z" fill="url(#paint0_linear_0_1)"/>
<path fill-rule="evenodd" clip-rule="evenodd" d="M143.593 94.8314L124.088 92.9331C124.195 91.8325 124.25 90.7113 124.25 89.5714C124.25 88.4315 124.195 87.3104 124.088 86.2097L143.593 84.3114C143.761 86.042 143.848 87.7966 143.848 89.5714C143.848 91.3462 143.761 93.1008 143.593 94.8314ZM141.551 73.9944L122.795 79.6768C122.146 77.5345 121.29 75.479 120.248 73.5328L137.523 64.2797C139.168 67.3514 140.523 70.6018 141.551 73.9944ZM131.673 55.5401L116.531 67.9811C115.111 66.2526 113.523 64.6655 111.795 63.2453L124.236 48.1032C126.951 50.3336 129.442 52.8254 131.673 55.5401ZM115.496 42.2529L106.243 59.5285C104.297 58.486 102.242 57.6297 100.099 56.9806L105.782 38.225C109.174 39.2528 112.425 40.6077 115.496 42.2529ZM95.4646 36.183L93.5663 55.6884C92.4656 55.5812 91.3445 55.5259 90.2046 55.5259C89.0647 55.5259 87.9435 55.5812 86.8429 55.6884L84.9446 36.183C86.6752 36.0145 88.4298 35.9283 90.2046 35.9283C91.9794 35.9283 93.734 36.0145 95.4646 36.183ZM74.6275 38.225L80.31 56.9806C78.1676 57.6297 76.1122 58.486 74.166 59.5285L64.9129 42.2529C67.9845 40.6077 71.235 39.2528 74.6275 38.225ZM56.1733 48.1032L68.6143 63.2453C66.8858 64.6655 65.2987 66.2526 63.8785 67.9811L48.7364 55.5401C50.9668 52.8254 53.4586 50.3336 56.1733 48.1032ZM42.8861 64.2797L60.1616 73.5328C59.1192 75.479 58.2629 77.5345 57.6138 79.6768L38.8582 73.9944C39.886 70.6018 41.2409 67.3514 42.8861 64.2797ZM36.8161 84.3114C36.6477 86.042 36.5615 87.7966 36.5615 89.5714C36.5615 91.3462 36.6477 93.1008 36.8161 94.8314L56.3215 92.9331C56.2144 91.8325 56.1591 90.7113 56.1591 89.5714C56.1591 88.4315 56.2144 87.3104 56.3215 86.2097L36.8161 84.3114ZM38.8582 105.148L57.6138 99.466C58.2629 101.608 59.1192 103.664 60.1616 105.61L42.8861 114.863C41.2409 111.791 39.886 108.541 38.8582 105.148ZM48.7363 123.603L63.8785 111.162C65.2987 112.89 66.8858 114.477 68.6143 115.898L56.1733 131.04C53.4586 128.809 50.9668 126.317 48.7363 123.603ZM64.9129 136.89L74.166 119.614C76.1122 120.657 78.1676 121.513 80.31 122.162L74.6275 140.918C71.235 139.89 67.9845 138.535 64.9129 136.89ZM84.9446 142.96L86.8429 123.454C87.9435 123.562 89.0647 123.617 90.2046 123.617C91.3445 123.617 92.4656 123.562 93.5663 123.454L95.4646 142.96C93.734 143.128 91.9794 143.214 90.2046 143.214C88.4298 143.214 86.6752 143.128 84.9446 142.96ZM105.782 140.918L100.099 122.162C102.242 121.513 104.297 120.657 106.243 119.614L115.496 136.89C112.425 138.535 109.174 139.89 105.782 140.918ZM124.236 131.04L111.795 115.898C113.523 114.477 115.111 112.89 116.531 111.162L131.673 123.603C129.442 126.317 126.951 128.809 124.236 131.04ZM137.523 114.863L120.248 105.61C121.29 103.664 122.146 101.608 122.795 99.466L141.551 105.148C140.523 108.541 139.168 111.791 137.523 114.863Z" fill="url(#paint1_linear_0_1)"/>
<defs>
<linearGradient id="paint0_linear_0_1" x1="64" y1="-2.78027" x2="121" y2="229.22" gradientUnits="userSpaceOnUse">
<stop stop-color="#68C9FF"/>
<stop offset="1" stop-color="#68C9FF" stop-opacity="0"/>
</linearGradient>
<linearGradient id="paint1_linear_0_1" x1="116.153" y1="48.653" x2="80.2245" y2="164.173" gradientUnits="userSpaceOnUse">
<stop stop-color="#68C9FF"/>
<stop offset="1" stop-color="#68C9FF" stop-opacity="0"/>
</linearGradient>
</defs>
</svg>
