<svg width="1586" height="1345" viewBox="0 0 1586 1345" fill="none" xmlns="http://www.w3.org/2000/svg">
<g clip-path="url(#clip0_925_418)">
<path d="M1635.68 922.209H1581.91V1356.03H1635.68V922.209Z" fill="url(#paint0_linear_925_418)"/>
<path d="M1581.91 922.209H1528.13V1356.03H1581.91V922.209Z" fill="url(#paint1_linear_925_418)"/>
<path d="M1581.91 1073.37L1647 1091.57V1000.55L1581.91 982.347V1073.37Z" fill="url(#paint2_linear_925_418)"/>
<path d="M1581.91 962.209L1647 980.413V889.394L1581.91 871.19V962.209Z" fill="url(#paint3_linear_925_418)"/>
<path d="M1581.91 1297.06L1647 1315.27V1224.25L1581.91 1206.04V1297.06Z" fill="url(#paint4_linear_925_418)"/>
<path d="M1581.91 1185.91L1647 1204.11V1113.09L1581.91 1094.89V1185.91Z" fill="url(#paint5_linear_925_418)"/>
<path d="M1581.91 1073.3L1516.81 1091.56V1000.25L1581.91 981.988V1073.3Z" fill="url(#paint6_linear_925_418)"/>
<path d="M1581.91 961.785L1516.81 980.048V888.734L1581.91 870.471V961.785Z" fill="url(#paint7_linear_925_418)"/>
<path d="M1581.91 1297.72L1516.81 1315.99V1224.67L1581.91 1206.41V1297.72Z" fill="url(#paint8_linear_925_418)"/>
<path d="M1581.91 1186.21L1516.81 1204.47V1113.16L1581.91 1094.89V1186.21Z" fill="url(#paint9_linear_925_418)"/>
<path d="M1528.13 1070.07V1015.29L1549.36 1009.4L1559.97 1006.46L1565.28 1004.99L1570.59 1003.52V1058.29L1565.28 1059.76L1559.97 1061.23L1549.36 1064.18L1528.13 1070.07Z" fill="url(#paint10_linear_925_418)"/>
<path d="M1528.13 903.808L1570.59 892.029V905.722V919.415V933.109V946.802L1528.13 958.581V944.888V931.195V917.501V903.808Z" fill="url(#paint11_linear_925_418)"/>
<path d="M1528.13 1294.43V1239.66L1538.75 1236.71L1549.36 1233.77L1559.97 1230.82L1570.59 1227.88V1282.65L1559.97 1285.59L1549.36 1288.54L1538.75 1291.48L1528.13 1294.43Z" fill="url(#paint12_linear_925_418)"/>
<path d="M1570.59 1116.39V1143.78V1171.16L1559.97 1174.11L1549.36 1177.05L1538.75 1180L1528.13 1182.94V1155.56V1128.17L1538.75 1125.22L1549.36 1122.28L1559.97 1119.34L1570.59 1116.39Z" fill="url(#paint13_linear_925_418)"/>
<path d="M1570.59 919.415L1528.13 931.195M1570.59 919.415V905.722M1570.59 919.415V933.109M1528.13 931.195V917.501M1528.13 931.195V944.888M1570.59 905.722V892.029L1528.13 903.808V917.501M1570.59 905.722L1528.13 917.501M1570.59 933.109V946.802L1528.13 958.581V944.888M1570.59 933.109L1528.13 944.888M1549.36 1009.4L1528.13 1015.29V1070.07L1549.36 1064.18M1549.36 1009.4V1064.18M1549.36 1009.4L1559.97 1006.46M1549.36 1064.18L1559.97 1061.23M1559.97 1006.46V1061.23M1559.97 1006.46L1565.28 1004.99M1559.97 1061.23L1565.28 1059.76M1565.28 1004.99L1570.59 1003.52V1058.29L1565.28 1059.76M1565.28 1004.99V1059.76M1570.59 1143.78V1116.39L1559.97 1119.34M1570.59 1143.78V1171.16L1559.97 1174.11M1570.59 1143.78L1528.13 1155.56M1528.13 1155.56V1128.17L1538.75 1125.22M1528.13 1155.56V1182.94L1538.75 1180M1549.36 1122.28V1177.05M1549.36 1122.28L1538.75 1125.22M1549.36 1122.28L1559.97 1119.34M1549.36 1177.05L1538.75 1180M1549.36 1177.05L1559.97 1174.11M1538.75 1125.22V1180M1559.97 1119.34V1174.11M1549.36 1233.77V1288.54M1549.36 1233.77L1559.97 1230.82M1549.36 1233.77L1538.75 1236.71M1549.36 1288.54L1559.97 1285.59M1549.36 1288.54L1538.75 1291.48M1559.97 1230.82L1570.59 1227.88V1282.65L1559.97 1285.59M1559.97 1230.82V1285.59M1538.75 1236.71L1528.13 1239.66V1294.43L1538.75 1291.48M1538.75 1236.71V1291.48" stroke="#6E3FE7" stroke-width="3"/>
<path d="M715.793 811.422V837.76H739.875V718.701H736.699V769.227L727.437 778.634V799.597L715.793 811.422Z" fill="url(#paint14_linear_925_418)"/>
<path d="M756.019 828.891L727.968 808.197L719.234 1516.09H798.622L798.624 1308.82V1296.6V1280.67V977.244L766.075 952.519V846.898L756.019 838.298V828.891Z" fill="url(#paint15_linear_925_418)"/>
<path d="M762.897 1298.14L768.19 1300.02V1157.04L744.109 1132.59V918.656L750.989 910.593V846.092L745.432 852.273V904.68L739.875 913.28V1135.54L762.897 1160.8V1298.14Z" fill="url(#paint16_linear_925_418)"/>
<path d="M728.231 807.659V1510.98H665.514V1135L690.389 1070.77V828.891L728.231 807.659Z" fill="url(#paint17_linear_925_418)"/>
<path d="M743.844 918.656L751.254 909.787V846.092L780.628 875.923V938.543L786.979 945.262V1077.76L806.297 1097.38V1280.13L781.951 1300.02H767.925V1158.92L743.844 1133.12V918.656Z" fill="url(#paint18_linear_925_418)"/>
<path d="M803.65 974.019L795.447 967.838V1079.64L803.65 1087.43V974.019Z" fill="url(#paint19_linear_925_418)"/>
<path d="M756.811 1145.49V851.467L773.747 869.204V1014.87L766.073 1025.89V1129.36L774.277 1137.96V1204.88L768.455 1216.44V1158.92L756.811 1145.49Z" fill="url(#paint20_linear_925_418)"/>
<path d="M654.665 972.407L665.514 959.238V914.087L684.832 888.824V852.81L716.588 829.966V896.886L707.855 908.174V1118.88L673.189 1159.46V1218.86L654.665 1204.88V972.407Z" fill="url(#paint21_linear_925_418)"/>
<rect x="713.677" y="1161.61" width="6.35108" height="15.0503" fill="#15F4F5"/>
<rect x="713.677" y="1180.42" width="6.35108" height="15.0503" fill="#15F4F5"/>
<rect x="703.092" y="1180.42" width="6.35108" height="15.0503" fill="#15F4F5"/>
<rect x="681.066" y="1221.6" width="5.79776" height="12.954" fill="#15F4F5"/>
<rect x="681.066" y="1238.08" width="5.79776" height="11.7764" fill="#15F4F5"/>
<rect x="672.949" y="1238.08" width="4.63821" height="11.7764" fill="#15F4F5"/>
<rect x="698.459" y="1229.84" width="5.79776" height="12.954" fill="#15F4F5"/>
<rect x="698.459" y="1246.33" width="5.79776" height="11.7764" fill="#15F4F5"/>
<rect x="690.342" y="1246.33" width="4.63821" height="11.7764" fill="#15F4F5"/>
<rect x="681.066" y="1253.39" width="5.79776" height="12.954" fill="#15F4F5"/>
<rect x="681.066" y="1269.88" width="5.79776" height="11.7764" fill="#15F4F5"/>
<rect x="672.949" y="1269.88" width="4.63821" height="11.7764" fill="#15F4F5"/>
<rect x="712.618" y="1191.17" width="8.99736" height="2.15005" fill="#D66CE5"/>
<path d="M703.092 914.087L703.092 1125.87M686.685 934.781L686.685 1146.56M696.529 927.793L696.529 1139.57M693.248 929.675L693.248 1141.45M689.966 934.781L689.966 1146.56M699.81 917.581L699.81 1129.36" stroke="url(#paint22_linear_925_418)" stroke-width="3"/>
<path d="M678.481 1213.48L672.659 1219.12V1161.07L708.119 1118.61V908.174L716.587 897.961V830.235L722.939 837.76V899.305L716.587 909.518V1118.61L678.481 1161.07V1213.48Z" fill="url(#paint23_linear_925_418)"/>
<path d="M352.853 315.12V227.861L356.059 222V244.14H358.624V256.513H356.059V279.956H358.624V313.166H363.753V324.888H373.371V343.121H347.083V320.981L352.853 315.12Z" fill="#6E3FE7"/>
<path d="M352.212 484.429V334.004L325.282 352.889V496.15L352.212 484.429Z" fill="#93DEFD"/>
<path d="M332.976 358.75V513.732M336.558 369.271V513.732M340.538 378.982V513.732M344.517 371.294V513.732" stroke="url(#paint24_linear_925_418)" stroke-width="3"/>
<path d="M389.604 1456.85V628.905L344.153 598.519V1456.85H389.604Z" fill="url(#paint25_linear_925_418)"/>
<path d="M377.218 334.656H351.571V483.127H377.218V334.656Z" fill="url(#paint26_linear_925_418)"/>
<path d="M353.065 606.665V1456.85H272.858V695.353L353.065 606.665Z" fill="url(#paint27_linear_925_418)"/>
<path d="M298.188 747.483L308.19 745.166M309.704 754.834L325.332 751.214M317.03 746.458L322.656 745.155M304.823 765.316L314.2 763.144M283.108 762.331L288.734 761.027M298.276 788.873L303.902 787.57M314.2 820.082C314.2 820.082 322.963 818.052 328.578 816.752M318.894 826.342L337.648 821.998M317.874 792.515L326.626 790.487M337.286 737.091L342.912 735.788M334.512 808.03L343.263 806.003M325.914 863.455L338.416 860.559M333.305 829.015L337.681 828.001" stroke="#15F4F5" stroke-width="3"/>
<path d="M381.707 619.225L352.212 621.178V483.127H381.707V619.225Z" fill="url(#paint28_linear_925_418)"/>
<path d="M395.172 491.592L381.065 483.778V617.922L395.172 624.434V491.592Z" fill="url(#paint29_linear_925_418)"/>
<path d="M259.24 744.253V626.388L319.511 604.248V508.523L343.235 498.755V724.717L337.465 726.06V708.438L324 711.974V729.191L319.511 730.235V713.153L303.232 717.429V734.021L298.352 735.156V718.711L282.323 722.921V738.884L277.834 739.928V724.1L263.087 727.973V743.358L259.24 744.253Z" fill="url(#paint30_linear_925_418)"/>
<path d="M258.599 698.019L343.877 675.878M258.599 707.787L343.877 686.297M258.599 687.6L343.877 664.157M258.599 678.483L343.877 654.389M258.599 668.064L343.877 643.319M318.229 597.736C318.229 597.736 333.861 590.989 343.877 586.665M258.599 659.599L343.877 632.249M258.599 649.831L343.877 620.527M258.599 640.063L343.877 608.806M258.599 628.993L343.877 597.736M318.229 581.456C318.229 581.456 333.861 574.709 343.877 570.386M318.229 588.619C318.229 588.619 333.861 581.872 343.877 577.549M318.229 557.362C318.229 557.362 333.861 550.615 343.877 546.292M318.229 573.642C318.229 573.642 333.861 566.895 343.877 562.572M318.229 565.176L343.877 555.408M318.229 542.385C351.532 530.178 343.877 531.314 343.877 531.314M318.229 550.199C318.229 550.199 333.861 543.452 343.877 539.129" stroke="#05FBFD" stroke-width="3"/>
<path d="M352.212 492.929L343.171 491.592V724.666L352.212 726.671V492.929Z" fill="#6223C2"/>
<path d="M323.797 728.889V710.832L331.546 708.827V730.894L323.797 728.889Z" fill="#6223C2"/>
<path d="M310.881 735.839L303.131 733.834V716.18L310.881 714.174V735.839Z" fill="#6223C2"/>
<path d="M290.215 740.997L281.82 738.992V721.527L290.215 719.522V740.997Z" fill="#6223C2"/>
<path d="M270.841 744.904L262.446 743.567V727.543L270.841 724.869V744.904Z" fill="#6223C2"/>
<path d="M386.195 626.388L395.171 624.434L381.706 618.574L352.853 621.178L386.195 626.388Z" fill="#3705AA"/>
<path d="M319.511 531.966V508.523L325.282 506.147V496.15L352.212 483.127V494.848L343.235 498.755V522.198L319.511 531.966Z" fill="#B8E8FF"/>
<path d="M343.235 498.755V522.198L319.511 531.966V508.523L325.282 506.147M343.235 498.755L325.282 506.147M343.235 498.755L352.212 494.848V483.127L325.282 496.15V506.147" stroke="#451C8D" stroke-width="3"/>
<path d="M264.37 896.631V804.814L296.429 798.953V896.631H264.37Z" fill="url(#paint31_linear_925_418)"/>
<path d="M306.688 802.209L296.429 799.604V896.631L306.688 894.026V802.209Z" fill="#982EE3"/>
<path d="M286.17 741.648L277.834 739.695L281.681 739.043L290.017 740.997L286.17 741.648Z" fill="#37176D"/>
<path d="M307.329 737.09L298.352 735.136L302.841 733.834L311.176 735.788L307.329 737.09Z" fill="#37176D"/>
<path d="M327.847 731.88L319.511 729.927L324 728.624L331.694 730.578L327.847 731.88Z" fill="#37176D"/>
<path d="M327.847 731.88L319.511 729.927L324 728.624L331.694 730.578L327.847 731.88Z" fill="#37176D"/>
<path d="M348.365 727.973L337.465 726.02L343.235 724.717L352.212 726.671L348.365 727.973Z" fill="#37176D"/>
<path d="M348.365 727.973L337.465 726.02L343.235 724.717L352.212 726.671L348.365 727.973Z" fill="#37176D"/>
<path d="M363.76 650.11V1292.73M369.291 693.734V1292.73M375.437 734.002V1292.73M381.584 702.123V1292.73" stroke="#15F4F5" stroke-width="3"/>
<rect x="358.624" y="358.75" width="6.41188" height="11.7214" fill="#ADE4FD"/>
<rect x="367.601" y="378.285" width="6.41188" height="11.7214" fill="#ADE4FD"/>
<rect x="358.624" y="414.752" width="6.41188" height="11.7214" fill="#ADE4FD"/>
<rect x="368.883" y="581.456" width="6.41188" height="11.7214" fill="#ADE4FD"/>
<rect x="368.883" y="599.689" width="6.41188" height="11.7214" fill="#ADE4FD"/>
<rect x="358.624" y="599.689" width="6.41188" height="11.7214" fill="#ADE4FD"/>
<path d="M1315.72 509.428L1310.66 472.587L1288.03 501.692V528.337L1261.64 548.833V576.511L1241.92 584.496V773.272H1250.27V943.281H1241.92V976.4L1186.22 1058.09V1141.99H1370.03V1029.39L1356.11 1018.35V599.952L1375.6 584.496V538.13H1315.72V509.428Z" fill="url(#paint32_linear_925_418)"/>
<rect width="6.70398" height="45.9114" transform="matrix(-1 0 0 1 1274.21 672.22)" fill="#15F4F5"/>
<rect width="6.70398" height="45.9114" transform="matrix(-1 0 0 1 1274.21 723.051)" fill="#15F4F5"/>
<path d="M1330.93 509.428V472.997H1309.5V509.428H1301.61L1293.71 517.155V546.962H1282.44V773.272H1289.2V943.281H1282.44V976.4L1237.33 1058.09V1456.32H1386.18V1029.39L1374.9 1018.35V599.952L1390.69 584.496V538.13H1342.2V509.428H1330.93Z" fill="url(#paint33_linear_925_418)"/>
<path d="M1330.93 509.428V472.997H1309.5V509.428H1301.61L1293.71 517.155V546.962H1282.44V773.272H1289.2V943.281H1282.44V976.4L1237.33 1058.09V1456.32H1386.18V1029.39L1374.9 1018.35V599.952L1390.69 584.496V538.13H1342.2V509.428H1330.93Z" fill="url(#paint34_linear_925_418)"/>
<path d="M1359.01 559.502V1456.32M1353.86 620.383V1456.32M1336.58 676.581V1456.32M1342.39 632.091V1456.32M1324.53 676.581V1456.32M1348.12 676.581V1456.32M1330.76 676.581V1456.32" stroke="url(#paint35_linear_925_418)" stroke-width="3"/>
<rect width="43.5759" height="9.83817" transform="matrix(-1 0 0 1 1336.22 554.982)" fill="#15F4F5"/>
<rect width="43.5759" height="9.83817" transform="matrix(-1 0 0 1 1336.22 570.559)" fill="#15F4F5"/>
<rect width="43.5759" height="9.83817" transform="matrix(-1 0 0 1 1336.22 586.136)" fill="#15F4F5"/>
<path d="M1246.11 750.183V769.132H1228.13V683.474H1230.5V719.826L1237.41 726.593V741.675L1246.11 750.183Z" fill="url(#paint36_linear_925_418)"/>
<path d="M1216.07 762.752L1237.02 747.863L1243.54 1257.16H1184.25L1184.25 1108.04V1099.25V1087.79V869.486L1208.56 851.697V775.707L1216.07 769.519V762.752Z" fill="url(#paint37_linear_925_418)"/>
<path d="M1210.93 1100.36L1206.98 1101.71V998.843L1224.96 981.247V827.334L1219.83 821.533V775.127L1223.98 779.574V817.279L1228.13 823.466V983.374L1210.93 1001.55V1100.36Z" fill="url(#paint38_linear_925_418)"/>
<path d="M1236.82 747.476V1258.47H1283.66V982.988L1265.08 936.775V762.752L1236.82 747.476Z" fill="url(#paint39_linear_925_418)"/>
<path d="M1225.16 827.334L1219.63 820.953V775.127L1197.69 796.589V841.642L1192.95 846.476V941.802L1178.52 955.917V1087.4L1196.7 1101.71H1207.18V1000.2L1225.16 981.634V827.334Z" fill="url(#paint40_linear_925_418)"/>
<path d="M1180.49 867.165L1186.62 862.718V943.156L1180.49 948.763V867.165Z" fill="url(#paint41_linear_925_418)"/>
<path d="M1215.48 990.529V778.994L1202.83 791.755V896.556L1208.56 904.484V978.927L1202.43 985.115V1033.26L1206.78 1041.58V1000.2L1215.48 990.529Z" fill="url(#paint42_linear_925_418)"/>
<path d="M1291.77 866.005L1283.66 856.531V824.046L1269.23 805.871V779.961L1245.52 763.525V811.671L1252.04 819.793V971.386L1277.93 1000.58V1043.32L1291.77 1033.26V866.005Z" fill="url(#paint43_linear_925_418)"/>
<rect width="4.74336" height="10.8281" transform="matrix(-1 0 0 1 1247.69 1002.13)" fill="#15F4F5"/>
<rect width="4.74336" height="10.8281" transform="matrix(-1 0 0 1 1247.69 1015.67)" fill="#15F4F5"/>
<rect width="4.74336" height="10.8281" transform="matrix(-1 0 0 1 1255.6 1015.67)" fill="#15F4F5"/>
<rect width="1.9764" height="4.2539" transform="matrix(-1 0 0 1 1271.41 1047.38)" fill="#15F4F5"/>
<rect width="1.9764" height="3.86718" transform="matrix(-1 0 0 1 1271.41 1052.79)" fill="#15F4F5"/>
<rect width="1.58112" height="3.86718" transform="matrix(-1 0 0 1 1274.18 1052.79)" fill="#15F4F5"/>
<rect width="1.9764" height="4.2539" transform="matrix(-1 0 0 1 1265.48 1050.08)" fill="#15F4F5"/>
<rect width="1.9764" height="3.86718" transform="matrix(-1 0 0 1 1265.48 1055.5)" fill="#15F4F5"/>
<rect width="1.58112" height="3.86718" transform="matrix(-1 0 0 1 1268.25 1055.5)" fill="#15F4F5"/>
<rect width="1.9764" height="4.2539" transform="matrix(-1 0 0 1 1271.41 1057.82)" fill="#15F4F5"/>
<rect width="1.9764" height="3.86718" transform="matrix(-1 0 0 1 1271.41 1063.23)" fill="#15F4F5"/>
<rect width="1.58112" height="3.86718" transform="matrix(-1 0 0 1 1274.18 1063.23)" fill="#15F4F5"/>
<rect width="6.71975" height="1.54687" transform="matrix(-1 0 0 1 1248.48 1023.4)" fill="#D66CE5"/>
<path d="M1255.6 824.046L1255.6 976.413M1267.85 838.935L1267.85 991.302M1260.5 833.908L1260.5 986.275M1262.95 835.261L1262.95 987.628M1265.4 838.935L1265.4 991.302M1258.05 826.56L1258.05 978.927" stroke="url(#paint44_linear_925_418)" stroke-width="3"/>
<path d="M1273.98 1039.45L1278.33 1043.51V1001.74L1251.84 971.193V819.793L1245.52 812.445V763.718L1240.78 769.132V813.412L1245.52 820.759V971.193L1273.98 1001.74V1039.45Z" fill="url(#paint45_linear_925_418)"/>
<path d="M1188.05 1052.04V1456.32H1265.81V1065.72L1188.05 1052.04Z" fill="url(#paint46_linear_925_418)"/>
<path d="M1187.15 1156.57L1255.97 1168.3M1187.15 1162.43L1255.97 1174.16M1187.15 1168.3L1255.97 1180.02M1187.15 1174.16L1255.97 1185.88M1187.15 1180.02L1255.97 1191.74M1187.15 1209.33L1255.97 1221.05M1187.15 1191.74L1255.97 1203.46M1187.15 1197.6L1255.97 1209.33M1187.15 1203.46L1255.97 1215.19M1187.15 1185.88L1255.97 1197.6M1187.15 1215.19L1255.97 1226.91M1187.15 1221.05L1255.97 1232.77M1187.15 1232.77L1255.97 1244.49M1187.15 1238.63L1255.97 1250.36M1187.15 1244.49L1255.97 1256.22M1187.15 1250.36L1255.97 1262.08M1187.15 1256.22L1255.97 1267.94M1187.15 1262.08L1255.97 1273.8M1187.15 1267.94L1255.97 1279.66M1187.15 1273.8L1255.97 1285.53M1187.15 1303.11L1255.97 1314.83M1187.15 1285.53L1255.97 1297.25M1187.15 1291.39L1255.97 1303.11M1187.15 1297.25L1255.97 1308.97M1187.15 1279.66L1255.97 1291.39M1187.15 1226.91L1255.97 1238.63M1187.15 1056.93L1255.97 1068.65M1187.15 1062.79L1255.97 1074.51M1187.15 1068.65L1255.97 1080.37M1187.15 1074.51L1255.97 1086.23M1187.15 1080.37L1255.97 1092.1" stroke="#15F4F5" stroke-width="3"/>
<path d="M1188.94 1307.51V1052.04L1171.96 1055.58V1307.51H1188.94Z" fill="url(#paint47_linear_925_418)"/>
<path d="M1459.4 791.344L1508.68 802.209V1312.97L1459.4 1302.1V791.344Z" fill="url(#paint48_linear_925_418)"/>
<path d="M1459.4 754.614L1418.34 766.704V1313.74L1459.4 1301.65V754.614Z" fill="url(#paint49_linear_925_418)"/>
<path d="M1461.75 808.888L1516.3 819.743V765.469L1461.75 754.614V808.888Z" fill="url(#paint50_linear_925_418)" stroke="url(#paint51_linear_925_418)" stroke-width="4"/>
<path d="M1459.4 923.913L1418.34 930.608M1459.4 930.608L1418.34 937.304M1459.4 937.304L1418.34 943.999M1459.4 950.695L1418.34 957.39M1459.4 957.39L1418.34 964.085M1459.4 964.085L1418.34 970.781M1459.4 970.781L1418.34 977.476M1459.4 1031.04L1418.34 1037.73M1459.4 1024.34L1418.34 1031.04M1459.4 943.999L1418.34 950.695M1459.4 1037.73L1418.34 1044.43M1459.4 1044.43L1418.34 1051.13M1459.4 1057.82L1418.34 1064.52M1459.4 1064.52L1418.34 1071.21M1459.4 1071.21L1418.34 1077.91M1459.4 1077.91L1418.34 1084.6M1459.4 1084.6L1418.34 1091.3M1459.4 1091.3L1418.34 1097.99M1459.4 1097.99L1418.34 1104.69M1459.4 1104.69L1418.34 1111.38M1459.4 1138.17L1418.34 1144.86M1459.4 1118.08L1418.34 1124.78M1459.4 1124.78L1418.34 1131.47M1459.4 1131.47L1418.34 1138.17M1459.4 1111.38L1418.34 1118.08M1459.4 1051.13L1418.34 1057.82M1459.4 903.827L1418.34 910.522M1459.4 910.522L1418.34 917.217M1459.4 917.217L1418.34 923.913" stroke="#D66CE5"/>
<path fill-rule="evenodd" clip-rule="evenodd" d="M1469.38 820.038L1523.93 830.893V1011.78L1508.68 1020.9V1056.48L1523.93 1065.6L1523.93 1455.79H1469.38V888.905H1485.21V858.489L1469.38 849.83V820.038Z" fill="url(#paint52_linear_925_418)"/>
<path d="M1513.96 909.565V1005.98M1506.92 925.061V1005.98M1499.88 935.391V1005.98" stroke="#15F4F5" stroke-width="3"/>
<path d="M1437.16 667.187H1420.94L1410.8 580.293V1454.2H1469.62V921.828L1437.16 906.146V667.187Z" fill="url(#paint53_linear_925_418)"/>
<path d="M1385.26 843.678L1410.8 579.987V1457.92H1354.93V915.03H1343.76V856.087L1385.26 843.678Z" fill="url(#paint54_linear_925_418)"/>
<path d="M1394.73 900.83V857.125L1356.48 867.173V901.87L1394.73 900.83Z" fill="#15F4F5" stroke="url(#paint55_linear_925_418)" stroke-width="7"/>
<path d="M1396.97 834.55L1385.66 838.239L1386.5 830.86L1396.97 827.171V834.55Z" fill="#15F4F5"/>
<path d="M1396.97 818.973L1387.34 822.662L1388.17 814.463L1396.97 810.774V818.973Z" fill="#15F4F5"/>
<rect width="4.18999" height="13.9374" transform="matrix(-1 0 0 1 1422.53 919.404)" fill="#15F4F5"/>
<rect width="4.18999" height="13.9374" transform="matrix(-1 0 0 1 1422.53 938.26)" fill="#15F4F5"/>
<rect width="4.18999" height="13.9374" transform="matrix(-1 0 0 1 1430.07 938.26)" fill="#15F4F5"/>
<rect x="198.773" y="932.375" width="112.291" height="302.302" fill="url(#paint56_linear_925_418)"/>
<path d="M253.418 954.693V984.276H247.061V954.693H253.418ZM247.061 987.276H253.418V1016.86H247.061V987.276ZM256.418 1016.86V987.276H262.776V1016.86H256.418ZM247.061 1019.86H253.418V1049.44H247.061V1019.86ZM256.418 1049.44V1019.86H262.776V1049.44H256.418ZM247.061 1052.44H253.418V1082.03H247.061V1052.44ZM256.418 1082.03V1052.44H262.776V1082.03H256.418ZM247.061 1085.03H253.418V1114.61H247.061V1085.03ZM256.418 1114.61V1085.03H262.776V1114.61H256.418ZM247.061 1117.61H253.418V1147.19H247.061V1117.61ZM256.418 1147.19V1117.61H262.776V1147.19H256.418ZM247.061 1150.19H253.418V1179.78H247.061V1150.19ZM256.418 1179.78V1150.19H262.776V1179.78H256.418ZM247.061 1182.78H253.418V1212.36H247.061V1182.78ZM256.418 1212.36V1182.78H262.776V1212.36H256.418ZM244.061 1182.78V1212.36H237.703V1182.78H244.061ZM234.703 1182.78V1212.36H228.346V1182.78H234.703ZM225.346 1182.78V1212.36H218.988V1182.78H225.346ZM225.346 1179.78H218.988V1150.19H225.346V1179.78ZM225.346 1147.19H218.988V1117.61H225.346V1147.19ZM225.346 1114.61H218.988V1085.03H225.346V1114.61ZM225.346 1082.03H218.988V1052.44H225.346V1082.03ZM225.346 1049.44H218.988V1019.86H225.346V1049.44ZM225.346 1016.86H218.988V987.276H225.346V1016.86ZM218.988 984.276V954.693H225.346V984.276H218.988ZM228.346 984.276V954.693H234.703V984.276H228.346ZM228.346 1016.86V987.276H234.703V1016.86H228.346ZM237.703 1016.86V987.276H244.061V1016.86H237.703ZM244.061 954.693V984.276H237.703V954.693H244.061ZM237.703 1019.86H244.061V1049.44H237.703V1019.86ZM237.703 1052.44H244.061V1082.03H237.703V1052.44ZM237.703 1085.03H244.061V1114.61H237.703V1085.03ZM237.703 1117.61H244.061V1147.19H237.703V1117.61ZM237.703 1150.19H244.061V1179.78H237.703V1150.19ZM234.703 1150.19V1179.78H228.346V1150.19H234.703ZM234.703 1147.19H228.346V1117.61H234.703V1147.19ZM234.703 1114.61H228.346V1085.03H234.703V1114.61ZM234.703 1082.03H228.346V1052.44H234.703V1082.03ZM234.703 1049.44H228.346V1019.86H234.703V1049.44ZM256.418 984.276V954.693H262.776V984.276H256.418ZM265.776 984.276V954.693H272.134V984.276H265.776ZM275.134 984.276V954.693H281.491V984.276H275.134ZM284.491 984.276V954.693H290.849V984.276H284.491ZM284.491 987.276H290.849V1016.86H284.491V987.276ZM284.491 1019.86H290.849V1049.44H284.491V1019.86ZM284.491 1052.44H290.849V1082.03H284.491V1052.44ZM284.491 1085.03H290.849V1114.61H284.491V1085.03ZM284.491 1117.61H290.849V1147.19H284.491V1117.61ZM284.491 1150.19H290.849V1179.78H284.491V1150.19ZM284.491 1182.78H290.849V1212.36H284.491V1182.78ZM281.491 1182.78V1212.36H275.134V1182.78H281.491ZM272.134 1182.78V1212.36H265.776V1182.78H272.134ZM272.134 1179.78H265.776V1150.19H272.134V1179.78ZM272.134 1147.19H265.776V1117.61H272.134V1147.19ZM272.134 1114.61H265.776V1085.03H272.134V1114.61ZM272.134 1082.03H265.776V1052.44H272.134V1082.03ZM272.134 1049.44H265.776V1019.86H272.134V1049.44ZM272.134 1016.86H265.776V987.276H272.134V1016.86ZM275.134 1016.86V987.276H281.491V1016.86H275.134ZM275.134 1019.86H281.491V1049.44H275.134V1019.86ZM275.134 1052.44H281.491V1082.03H275.134V1052.44ZM275.134 1085.03H281.491V1114.61H275.134V1085.03ZM275.134 1117.61H281.491V1147.19H275.134V1117.61ZM275.134 1150.19H281.491V1179.78H275.134V1150.19Z" fill="url(#paint57_linear_925_418)" stroke="url(#paint58_linear_925_418)" stroke-width="3"/>
<path d="M1503.28 1323.97L1513.87 1002.01L1534.16 936.381L1543.51 1122.03L1533.45 1323.97H1503.28Z" fill="url(#paint59_linear_925_418)" stroke="#15F4F5" stroke-width="6"/>
<path d="M1585.82 1468.98V1068.1L1543.67 1055.19V987.239H1536.98V1148.95H1515.57V1213.5H1502.86V1354.83H1515.57V1468.98H1585.82Z" fill="url(#paint60_linear_925_418)"/>
<path d="M1579.93 1220.69V1200.78H1570.57V1220.69H1579.93Z" fill="#15F4F5"/>
<path d="M1564.33 1214.81V1190.82H1556.31V1214.81H1564.33Z" fill="#15F4F5"/>
<path d="M1570.57 1192.63V1197.16H1579.93V1192.63H1570.57Z" fill="#15F4F5"/>
<path d="M1485.46 1318.14V1264.46L1590.5 1246.12V1309.99L1485.46 1318.14Z" fill="url(#paint61_linear_925_418)"/>
<path d="M1589.83 1399.67V1309.31L1529.62 1314.74V1405.11L1589.83 1399.67Z" fill="url(#paint62_linear_925_418)"/>
<path d="M1554.98 1062.3L1563.67 1056.87L1595.52 1099.41L1554.98 1092.2V1062.3Z" fill="#3C2C9E"/>
<path d="M1486.8 1121.77L1498.84 1117.7V1161.18L1486.8 1165.26V1121.77Z" fill="#36176B"/>
<path d="M1572.44 1176.13L1585.82 1170.69L1499.51 1159.82L1486.13 1165.94L1572.44 1176.13Z" fill="#500C9F"/>
<path d="M1485.46 1248.15V1266.5L1590.5 1248.15V1229.81L1485.46 1248.15Z" fill="#15F4F5"/>
<path d="M1554.37 1303.19V1282.13L1586.49 1276.69V1300.47L1554.37 1303.19Z" fill="#15F4F5"/>
<path d="M1534.97 1356.87V1326.29L1575.11 1322.22V1354.15L1534.97 1356.87Z" fill="#15F4F5"/>
<path d="M1498.17 1160.5V1117.7L1586.49 1134V1170.69L1498.17 1160.5Z" fill="#15F4F5"/>
<path d="M1564.78 1086.73V1056.84L1594.88 1068.39V1098.29L1564.78 1086.73Z" fill="#15F4F5"/>
<path d="M1485.46 1248.15V1266.5L1590.5 1248.15V1229.81L1485.46 1248.15Z" stroke="#74FEFF" stroke-width="2"/>
<path d="M1554.37 1303.19V1282.13L1586.49 1276.69V1300.47L1554.37 1303.19Z" stroke="#74FEFF" stroke-width="2"/>
<path d="M1534.97 1356.87V1326.29L1575.11 1322.22V1354.15L1534.97 1356.87Z" stroke="#74FEFF" stroke-width="2"/>
<path d="M1498.17 1160.5V1117.7L1586.49 1134V1170.69L1498.17 1160.5Z" stroke="#74FEFF" stroke-width="2"/>
<path d="M1564.78 1086.73V1056.84L1594.88 1068.39V1098.29L1564.78 1086.73Z" stroke="#74FEFF" stroke-width="2"/>
<path d="M156.486 629.89L161.872 589.219L185.935 621.35V650.766L214.007 673.393V703.949L234.976 712.765V921.169H226.091V1108.86H234.976V1145.42L294.215 1235.6V1492.31H113.538V729.827L92.8047 712.765V661.578H156.486V629.89Z" fill="url(#paint63_linear_925_418)"/>
<rect x="200.64" y="809.61" width="7.12956" height="50.6853" fill="#15F4F5"/>
<rect x="200.64" y="865.726" width="7.12956" height="50.6853" fill="#15F4F5"/>
<path d="M140.32 629.89V589.672H163.105V629.89H171.499L179.893 638.422V671.328H191.885V921.17H184.69V1108.86L239.852 1235.6L235.056 1495.49H76.7637L93.5522 1191.73V729.827L76.7637 712.765V661.578H128.328V629.89H140.32Z" fill="url(#paint64_linear_925_418)"/>
<path d="M140.32 629.89V589.672H163.105V629.89H171.499L179.893 638.422V671.328H191.885V921.17H184.69V1108.86L239.852 1235.6L235.056 1495.49H76.7637L93.5522 1191.73V729.827L76.7637 712.765V661.578H128.328V629.89H140.32Z" fill="url(#paint65_linear_925_418)"/>
<path d="M110.628 685.702V1507.17M116.099 741.467V1507.17M134.425 792.943V1507.17M128.255 752.191V1507.17M147.204 792.943V1507.17M122.177 792.943V1507.17M140.594 792.943V1507.17" stroke="url(#paint66_linear_925_418)" stroke-width="3"/>
<rect x="134.691" y="680.181" width="46.3421" height="10.8611" fill="#15F4F5"/>
<rect x="134.691" y="697.378" width="46.3421" height="10.8611" fill="#15F4F5"/>
<rect x="134.691" y="714.575" width="46.3421" height="10.8611" fill="#15F4F5"/>
<path d="M1155.51 883.919L1150.78 859.063L1129.68 878.699V896.677L1105.06 910.505V929.18L1086.67 934.567V1061.93H1094.46V1176.64H1086.67V1198.98L1034.71 1254.1V1457.39H1206.16V1234.73L1193.18 1227.28V944.995L1211.36 934.567V903.284H1155.51V883.919Z" fill="url(#paint67_linear_925_418)"/>
<rect width="6.25297" height="30.9761" transform="matrix(-1 0 0 1 1116.78 993.753)" fill="#15F4F5"/>
<rect width="6.25297" height="30.9761" transform="matrix(-1 0 0 1 1116.78 1028.05)" fill="#15F4F5"/>
<path d="M1169.69 883.919V859.34H1149.7V883.919H1142.34L1134.98 889.133V909.243H1124.46V1061.93H1130.77V1176.64H1124.46V1198.98L1082.39 1254.1V1456.32H1221.22V1234.73L1210.7 1227.28V944.995L1225.43 934.567V903.284H1180.2V883.919H1169.69Z" fill="url(#paint68_linear_925_418)"/>
<path d="M1169.69 883.919V859.34H1149.7V883.919H1142.34L1134.98 889.133V909.243H1124.46V1061.93H1130.77V1176.64H1124.46V1198.98L1082.39 1254.1V1456.32H1221.22V1234.73L1210.7 1227.28V944.995L1225.43 934.567V903.284H1180.2V883.919H1169.69Z" fill="url(#paint69_linear_925_418)"/>
<path d="M1195.99 918.231V1456.32M1191.14 954.76V1456.32M1174.91 988.478V1456.32M1180.38 961.784V1456.32M1163.59 988.478V1456.32M1185.76 988.478V1456.32M1169.45 988.478V1456.32" stroke="url(#paint70_linear_925_418)" stroke-width="3"/>
<rect width="40.6443" height="6.63773" transform="matrix(-1 0 0 1 1174.62 914.654)" fill="#15F4F5"/>
<rect width="40.6443" height="6.63773" transform="matrix(-1 0 0 1 1174.62 925.164)" fill="#15F4F5"/>
<rect width="40.6443" height="6.63773" transform="matrix(-1 0 0 1 1174.62 935.673)" fill="#15F4F5"/>
<path d="M417.854 1002.97V1451.02L313.737 1473.42V1021.98L417.854 1002.97Z" fill="url(#paint71_linear_925_418)"/>
<path d="M419.051 1148.26L326.901 1164.56M419.051 1156.41L326.901 1172.7M419.051 1164.56L326.901 1180.85M419.051 1172.7L326.901 1189M419.051 1180.85L326.901 1197.15M419.051 1221.59L326.901 1237.88M419.051 1197.15L326.901 1213.44M419.051 1205.29L326.901 1221.59M419.051 1213.44L326.901 1229.73M419.051 1189L326.901 1205.29M419.051 1229.73L326.901 1246.03M419.051 1237.88L326.901 1254.17M419.051 1254.17L326.901 1270.47M419.051 1262.32L326.901 1278.62M419.051 1270.47L326.901 1286.76M419.051 1278.62L326.901 1294.91M419.051 1286.76L326.901 1303.06M419.051 1294.91L326.901 1311.2M419.051 1303.06L326.901 1319.35M419.051 1311.2L326.901 1327.5M419.051 1351.94L326.901 1368.23M419.051 1327.5L326.901 1343.79M419.051 1335.65L326.901 1351.94M419.051 1343.79L326.901 1360.09M419.051 1319.35L326.901 1335.65M419.051 1246.03L326.901 1262.32M419.051 1009.76L326.901 1026.06M419.051 1017.91L326.901 1034.2M419.051 1026.06L326.901 1042.35M419.051 1034.2L326.901 1050.5M419.051 1042.35L326.901 1058.64" stroke="#15F4F5" stroke-width="3"/>
<path d="M416.657 1454.2V1002.97L439.396 1007.89V1454.2H416.657Z" fill="url(#paint72_linear_925_418)"/>
<path d="M531.188 1450V520.784V383.888H535.942V493.631L541.645 501.551V526.441L562.559 542.28V570.564L602.484 604.505V1457.92L531.188 1450Z" fill="url(#paint73_linear_925_418)"/>
<path d="M547.316 593.513V1095.84M554.164 593.513V1095.84M581.558 593.513V1095.84M567.861 593.513V1095.84M561.013 593.513V1095.84M574.71 593.513V1095.84" stroke="url(#paint74_linear_925_418)" stroke-width="3"/>
<path d="M503.135 666.697H557.477V1457.39H503.135V666.697Z" fill="#EA6ED0"/>
<path d="M572.046 677.557L556.828 666.93V1095.84H572.046V677.557Z" fill="#6022C1"/>
<path d="M513.073 734.551V1093.91M519.922 734.551V1093.91M547.316 734.551V1093.91M533.619 734.551V1093.91M526.77 734.551V1093.91M540.467 734.551V1093.91" stroke="url(#paint75_linear_925_418)" stroke-width="3"/>
<path d="M11.622 916.808L-40.7803 928.804V1493.79L11.622 1481.8V916.808Z" fill="url(#paint76_linear_925_418)"/>
<path d="M11.622 876.26L55.2905 889.607V1492.41L11.622 1479.06V876.26Z" fill="url(#paint77_linear_925_418)"/>
<path d="M9.12664 936.177L-48.8901 948.16V888.243L9.12664 876.26V936.177Z" fill="url(#paint78_linear_925_418)" stroke="url(#paint79_linear_925_418)" stroke-width="4"/>
<path d="M17.1973 1031.68L60.8658 1039.07M17.1973 1009.51L60.8658 1016.9M17.1973 1016.9L60.8658 1024.29M17.1973 1024.29L60.8658 1031.68" stroke="#D66CE5"/>
<path fill-rule="evenodd" clip-rule="evenodd" d="M1.01678 948.486L-57 960.47V1160.17L-40.7803 1170.23V1209.52L-57 1219.58V1488.16L1.01678 1476.18V1024.51H-15.8268V990.935L1.01678 981.376V948.486Z" fill="url(#paint80_linear_925_418)"/>
<path d="M420.675 1149.7L431.265 827.738L451.559 762.109L460.9 947.763L450.848 1149.7H420.675Z" fill="url(#paint81_linear_925_418)" stroke="#15F4F5" stroke-width="6"/>
<path d="M507.225 1224.72V1056.22L529.972 1063.69V1234.92L507.225 1224.72Z" fill="url(#paint82_linear_925_418)"/>
<path d="M503.211 1453.14V893.824L461.062 880.914V812.968H454.372V974.68H432.963V1039.23H420.251V1180.56H432.963V1453.14H503.211Z" fill="url(#paint83_linear_925_418)"/>
<path d="M497.323 1046.42V1026.51H487.966V1046.42H497.323Z" fill="#15F4F5"/>
<path d="M481.727 1040.53V1016.55H473.707V1040.53H481.727Z" fill="#15F4F5"/>
<path d="M487.966 1018.36V1022.89H497.323V1018.36H487.966Z" fill="#15F4F5"/>
<path d="M402.856 1143.87V1090.19L507.894 1071.84V1135.71L402.856 1143.87Z" fill="url(#paint84_linear_925_418)"/>
<path d="M507.225 1225.4V1135.03L447.013 1140.47V1230.84L507.225 1225.4Z" fill="url(#paint85_linear_925_418)"/>
<path d="M472.37 888.031L481.067 882.595L512.919 925.135L472.37 917.928V888.031Z" fill="#3C2C9E"/>
<path d="M404.194 947.502L416.237 943.425V986.911L404.194 990.988V947.502Z" fill="#36176B"/>
<path d="M489.83 1001.86L503.211 996.423L416.906 985.552L403.525 991.667L489.83 1001.86Z" fill="#500C9F"/>
<path d="M507.895 1224.72L447.013 1229.48L479.126 1236.95L529.973 1234.24L507.895 1224.72Z" fill="#2C1469"/>
<path d="M402.856 1073.88V1092.23L507.894 1073.88V1055.54L402.856 1073.88Z" fill="#15F4F5"/>
<path d="M471.767 1128.92V1107.86L503.88 1102.42V1126.2L471.767 1128.92Z" fill="#15F4F5"/>
<path d="M452.365 1182.6V1152.02L492.507 1147.94V1179.88L452.365 1182.6Z" fill="#15F4F5"/>
<path d="M415.568 986.231V943.425L503.88 959.732V996.423L415.568 986.231Z" fill="#15F4F5"/>
<path d="M482.173 912.463V882.567L512.279 894.118V924.014L482.173 912.463Z" fill="#15F4F5"/>
<path d="M402.856 1073.88V1092.23L507.894 1073.88V1055.54L402.856 1073.88Z" stroke="#74FEFF" stroke-width="2"/>
<path d="M471.767 1128.92V1107.86L503.88 1102.42V1126.2L471.767 1128.92Z" stroke="#74FEFF" stroke-width="2"/>
<path d="M452.365 1182.6V1152.02L492.507 1147.94V1179.88L452.365 1182.6Z" stroke="#74FEFF" stroke-width="2"/>
<path d="M415.568 986.231V943.425L503.88 959.732V996.423L415.568 986.231Z" stroke="#74FEFF" stroke-width="2"/>
<path d="M482.173 912.463V882.567L512.279 894.118V924.014L482.173 912.463Z" stroke="#74FEFF" stroke-width="2"/>
<path d="M888.854 866.226L943.957 881.091V960.662L914.684 997.388V1567.45H851.832V987.769L888.854 944.923V866.226Z" fill="url(#paint86_linear_925_418)"/>
<path d="M791.563 1000.01V1567.98H851.832V987.769L791.563 1000.01Z" fill="url(#paint87_linear_925_418)"/>
<path d="M887.993 945.797L827.724 958.039V878.468L887.993 866.226V945.797Z" fill="url(#paint88_linear_925_418)"/>
<path d="M801.895 1014.88L810.935 1013.13L819.976 1011.38L829.016 1009.63L838.056 1007.88V1032.75V1057.61V1082.48V1107.35V1132.21V1157.08V1181.94V1206.81V1231.68V1256.54V1281.41V1306.27V1331.14V1356.01V1381.31V1405.74H829.016H819.976H810.935H801.895V1381.31V1356.88V1332.45V1308.02V1283.59V1259.17V1234.74V1210.31V1185.88V1161.45V1137.02V1112.59V1088.16V1063.73V1039.31V1014.88Z" fill="#6625C9"/>
<path d="M848.388 884.37L858.72 882.402L869.052 880.435L879.384 878.468V892.458V906.449V920.439V934.43L869.052 936.835L858.72 939.239L848.388 941.644L838.056 944.049V929.621V915.193V900.765V886.337L848.388 884.37Z" fill="#6625C9"/>
<path d="M819.976 1011.38V1405.74M819.976 1011.38L810.935 1013.13M819.976 1011.38L829.016 1009.63M819.976 1405.74H810.935M819.976 1405.74H829.016M810.935 1013.13L801.895 1014.88V1039.31M810.935 1013.13V1405.74M810.935 1405.74H801.895V1381.31M829.016 1009.63L838.056 1007.88V1032.75M829.016 1009.63V1083.9M829.016 1405.74H838.056V1381.31M829.016 1405.74V1108.66M801.895 1210.31L838.056 1206.81M801.895 1210.31V1185.88M801.895 1210.31V1234.74M838.056 1206.81V1181.94M838.056 1206.81V1231.68M801.895 1112.59V1088.16M801.895 1112.59V1137.02M801.895 1112.59L829.016 1108.66M838.056 1107.35V1082.48M838.056 1107.35V1132.21M838.056 1107.35L829.016 1108.66M801.895 1063.73L838.056 1057.61M801.895 1063.73V1039.31M801.895 1063.73V1088.16M838.056 1057.61V1032.75M838.056 1057.61V1082.48M801.895 1039.31L838.056 1032.75M801.895 1088.16L829.016 1083.9M838.056 1082.48L829.016 1083.9M801.895 1161.45L838.056 1157.08M801.895 1161.45V1137.02M801.895 1161.45V1185.88M838.056 1157.08V1132.21M838.056 1157.08V1181.94M801.895 1137.02L838.056 1132.21M801.895 1185.88L838.056 1181.94M801.895 1308.02L838.056 1306.27M801.895 1308.02V1283.59M801.895 1308.02V1332.45M838.056 1306.27V1281.41M838.056 1306.27V1331.14M801.895 1259.17L838.056 1256.54M801.895 1259.17V1234.74M801.895 1259.17V1283.59M838.056 1256.54V1231.68M838.056 1256.54V1281.41M801.895 1234.74L838.056 1231.68M801.895 1283.59L838.056 1281.41M801.895 1356.88L838.056 1356.01M801.895 1356.88V1332.45M801.895 1356.88V1381.31M838.056 1356.01V1331.14M838.056 1356.01V1381.31M801.895 1332.45L838.056 1331.14M801.895 1381.31H838.056M838.056 915.193L879.384 906.449M838.056 915.193V900.765M838.056 915.193V929.621M879.384 906.449V892.458M879.384 906.449V920.439M858.72 882.402V939.239M858.72 882.402L848.388 884.37M858.72 882.402L869.052 880.435M858.72 939.239L848.388 941.644M858.72 939.239L869.052 936.835M848.388 884.37L838.056 886.337V900.765M848.388 884.37V941.644M848.388 941.644L838.056 944.049V929.621M869.052 880.435L879.384 878.468V892.458M869.052 880.435V936.835M869.052 936.835L879.384 934.43V920.439M838.056 900.765L879.384 892.458M838.056 929.621L879.384 920.439M829.016 1083.9V1108.66" stroke="#5CD2FE" stroke-width="3"/>
<path d="M818.745 1133.68V1111.51L812.061 1112.41V1135.04L818.745 1133.68Z" fill="#15F4F5"/>
<path d="M837.014 1106.08V1083.9L830.33 1084.81V1107.43L837.014 1106.08Z" fill="#15F4F5"/>
<path d="M837.014 1180.75V1158.12L830.33 1159.02V1181.65L837.014 1180.75Z" fill="#15F4F5"/>
<path d="M851.832 987.769L791.563 1000.01L827.724 958.039L887.993 945.797L851.832 987.769Z" fill="#D66CE5"/>
<path d="M900.048 876.719L943.097 888.961M881.106 954.542L936.209 970.281M900.048 913.444L943.097 925.686M900.048 894.207L943.097 906.449M900.048 930.058L943.097 942.3M900.048 945.797L943.097 958.039M855.276 1007.01L915.545 1024.49M869.052 970.281L925.016 985.146M855.276 988.644L915.545 1006.13M852.693 1024.49L912.962 1041.98M852.693 1078.71L912.962 1096.2M852.693 1041.98L912.962 1059.47M852.693 1060.35L912.962 1077.83M852.693 1096.2L912.962 1113.68M852.693 1113.68L912.962 1131.17M852.693 1132.05L912.962 1149.54M852.693 1167.9L912.962 1185.39M852.693 1222.11L912.962 1239.6M852.693 1185.39L912.962 1202.87M852.693 1203.75L912.962 1221.24M852.693 1150.41L912.962 1167.9M852.693 1239.6L912.962 1257.09M852.693 1257.09L912.962 1274.58M852.693 1275.45L912.962 1292.94M852.693 1311.3L912.962 1328.79M852.693 1365.52L912.962 1383M852.693 1328.79L912.962 1346.28M852.693 1347.15L912.962 1364.64M852.693 1293.81L912.962 1311.3M852.693 1383L912.962 1400.49" stroke="#15F4F5" stroke-width="3"/>
<path d="M915.676 976.725L915.676 1460.57H982.133L982.134 995.735L915.676 976.725Z" fill="url(#paint89_linear_925_418)"/>
<path d="M914.912 1122.01L973.73 1138.31M914.912 1130.16L973.73 1146.46M914.912 1138.31L973.73 1154.6M914.912 1146.46L973.73 1162.75M914.912 1154.6L973.73 1170.9M914.912 1195.34L973.73 1211.63M914.912 1170.9L973.73 1187.19M914.912 1179.04L973.73 1195.34M914.912 1187.19L973.73 1203.49M914.912 1162.75L973.73 1179.04M914.912 1203.49L973.73 1219.78M914.912 1211.63L973.73 1227.93M914.912 1227.93L973.73 1244.22M914.912 1236.07L973.73 1252.37M914.912 1244.22L973.73 1260.52M914.912 1252.37L973.73 1268.66M914.912 1260.52L973.73 1276.81M914.912 1268.66L973.73 1284.96M914.912 1276.81L973.73 1293.1M914.912 1284.96L973.73 1301.25M914.912 1325.69L973.73 1341.99M914.912 1301.25L973.73 1317.54M914.912 1309.4L973.73 1325.69M914.912 1317.54L973.73 1333.84M914.912 1293.1L973.73 1309.4M914.912 1219.78L973.73 1236.07M914.912 983.514L973.73 999.809M914.912 991.661L973.73 1007.96M914.912 999.809L973.73 1016.1M914.912 1007.96L973.73 1024.25M914.912 1016.1L973.73 1032.4" stroke="#15F4F5" stroke-width="3"/>
<path d="M916.44 1461.63L916.44 976.725L901.926 981.639V1461.63H916.44Z" fill="url(#paint90_linear_925_418)"/>
<path d="M1065.1 950.834H1016.68V1457.92H1065.1V950.834Z" fill="url(#paint91_linear_925_418)"/>
<path d="M1016.68 950.834H968.265V1457.92H1016.68V950.834Z" fill="url(#paint92_linear_925_418)"/>
<path d="M1016.68 1092.03L1075.29 1109.03V1024.01L1016.68 1007.01V1092.03Z" fill="url(#paint93_linear_925_418)"/>
<path d="M1016.68 988.198L1075.29 1005.2V920.182L1016.68 903.179V988.198Z" fill="url(#paint94_linear_925_418)"/>
<path d="M1016.68 1300.98L1075.29 1317.98V1232.96L1016.68 1215.96V1300.98Z" fill="url(#paint95_linear_925_418)"/>
<path d="M1016.68 1197.15L1075.29 1214.15V1129.13L1016.68 1112.13V1197.15Z" fill="url(#paint96_linear_925_418)"/>
<path d="M1065.21 1089.1V1038.09L1027.4 1027.12V1078.13L1065.21 1089.1Z" fill="url(#paint97_linear_925_418)"/>
<path d="M1065.21 985.272V934.261L1027.4 923.291V974.302L1065.21 985.272Z" fill="url(#paint98_linear_925_418)"/>
<path d="M1065.21 1298.05V1247.04L1027.4 1236.07V1287.08L1065.21 1298.05Z" fill="url(#paint99_linear_925_418)"/>
<path d="M1065.21 1194.22V1143.21L1027.4 1132.24V1183.25L1065.21 1194.22Z" fill="url(#paint100_linear_925_418)"/>
<path d="M1016.68 1091.97L958.071 1109.03V1023.73L1016.68 1006.67V1091.97Z" fill="url(#paint101_linear_925_418)"/>
<path d="M1016.68 987.802L958.071 1004.86V919.566L1016.68 902.507V987.802Z" fill="url(#paint102_linear_925_418)"/>
<path d="M1016.68 1301.6L958.071 1318.65V1233.36L1016.68 1216.3V1301.6Z" fill="url(#paint103_linear_925_418)"/>
<path d="M1016.68 1197.43L958.071 1214.49V1129.19L1016.68 1112.14V1197.43Z" fill="url(#paint104_linear_925_418)"/>
<path d="M968.265 1088.95V1037.78L987.377 1032.28L996.934 1029.53L1001.71 1028.16L1006.49 1026.78V1077.94L1001.71 1079.32L996.934 1080.69L987.377 1083.44L968.265 1088.95Z" fill="url(#paint105_linear_925_418)"/>
<path d="M968.265 933.646L1006.49 922.643V935.434V948.225V961.016V973.806L968.265 984.809V972.018V959.228V946.437V933.646Z" fill="url(#paint106_linear_925_418)"/>
<path d="M968.265 1298.52V1247.36L977.821 1244.6L987.377 1241.85L996.934 1239.1L1006.49 1236.35V1287.52L996.934 1290.27L987.377 1293.02L977.821 1295.77L968.265 1298.52Z" fill="url(#paint107_linear_925_418)"/>
<path d="M1006.49 1132.22V1157.8V1183.38L996.934 1186.13L987.377 1188.88L977.821 1191.63L968.265 1194.38V1168.8V1143.22L977.821 1140.47L987.377 1137.72L996.934 1134.97L1006.49 1132.22Z" fill="url(#paint108_linear_925_418)"/>
<path d="M1006.49 948.225L968.265 959.228M1006.49 948.225V935.434M1006.49 948.225V961.016M968.265 959.228V946.437M968.265 959.228V972.018M1006.49 935.434V922.643L968.265 933.646V946.437M1006.49 935.434L968.265 946.437M1006.49 961.016V973.806L968.265 984.809V972.018M1006.49 961.016L968.265 972.018M987.377 1032.28L968.265 1037.78V1088.95L987.377 1083.44M987.377 1032.28V1083.44M987.377 1032.28L996.934 1029.53M987.377 1083.44L996.934 1080.69M996.934 1029.53V1080.69M996.934 1029.53L1001.71 1028.16M996.934 1080.69L1001.71 1079.32M1001.71 1028.16L1006.49 1026.78V1077.94L1001.71 1079.32M1001.71 1028.16V1079.32M1006.49 1157.8V1132.22L996.934 1134.97M1006.49 1157.8V1183.38L996.934 1186.13M1006.49 1157.8L968.265 1168.8M968.265 1168.8V1143.22L977.821 1140.47M968.265 1168.8V1194.38L977.821 1191.63M987.377 1137.72V1188.88M987.377 1137.72L977.821 1140.47M987.377 1137.72L996.934 1134.97M987.377 1188.88L977.821 1191.63M987.377 1188.88L996.934 1186.13M977.821 1140.47V1191.63M996.934 1134.97V1186.13M987.377 1241.85V1293.02M987.377 1241.85L996.934 1239.1M987.377 1241.85L977.821 1244.6M987.377 1293.02L996.934 1290.27M987.377 1293.02L977.821 1295.77M996.934 1239.1L1006.49 1236.35V1287.52L996.934 1290.27M996.934 1239.1V1290.27M977.821 1244.6L968.265 1247.36V1298.52L977.821 1295.77M977.821 1244.6V1295.77" stroke="#6E3FE7" stroke-width="3"/>
<path d="M41.738 779.384H55.0137L63.311 683.474V1478.08H15.1865V1060.45L41.738 1043.14V779.384Z" fill="url(#paint109_linear_925_418)"/>
<path d="M90.4713 974.584L63.311 683.474V1483.39H122.724V1053.35H134.607V988.283L90.4713 974.584Z" fill="url(#paint110_linear_925_418)"/>
<path d="M80.1787 1038.04V989.001L121.303 1000.22V1039.2L80.1787 1038.04Z" fill="#15F4F5" stroke="url(#paint111_linear_925_418)" stroke-width="7"/>
<path d="M78.0156 964.506L90.0468 968.579L89.1556 960.433L78.0156 956.36V964.506Z" fill="#15F4F5"/>
<path d="M78.0156 947.309L88.2644 951.382L87.3732 942.331L78.0156 938.258V947.309Z" fill="#15F4F5"/>
<rect x="50.8345" y="1058.18" width="4.45597" height="15.3866" fill="#15F4F5"/>
<rect x="50.8345" y="1079" width="4.45597" height="15.3866" fill="#15F4F5"/>
<rect x="42.8135" y="1079" width="4.45597" height="15.3866" fill="#15F4F5"/>
<path d="M561.482 1028.34H615.255V1462.16H561.482V1028.34Z" fill="url(#paint112_linear_925_418)"/>
<path d="M615.255 1028.34H669.028V1462.16H615.255V1028.34Z" fill="url(#paint113_linear_925_418)"/>
<path d="M615.255 1179.5L550.162 1197.7V1106.68L615.255 1088.48V1179.5Z" fill="url(#paint114_linear_925_418)"/>
<path d="M615.255 1068.34L550.162 1086.55V995.526L615.255 977.323V1068.34Z" fill="url(#paint115_linear_925_418)"/>
<path d="M615.255 1403.2L550.162 1421.4V1330.38L615.255 1312.18V1403.2Z" fill="url(#paint116_linear_925_418)"/>
<path d="M615.255 1292.04L550.162 1310.24V1219.22L615.255 1201.02V1292.04Z" fill="url(#paint117_linear_925_418)"/>
<path d="M561.361 1176.37V1121.76L603.357 1110.01V1164.62L561.361 1176.37Z" fill="url(#paint118_linear_925_418)"/>
<path d="M561.361 1065.21V1010.6L603.357 998.854V1053.47L561.361 1065.21Z" fill="url(#paint119_linear_925_418)"/>
<path d="M561.361 1400.07V1345.45L603.357 1333.71V1388.32L561.361 1400.07Z" fill="url(#paint120_linear_925_418)"/>
<path d="M561.361 1288.91V1234.3L603.357 1222.55V1277.16L561.361 1288.91Z" fill="url(#paint121_linear_925_418)"/>
<path d="M615.255 1179.43L680.349 1197.7V1106.38L615.255 1088.12V1179.43Z" fill="url(#paint122_linear_925_418)"/>
<path d="M615.255 1067.92L680.349 1086.18V994.867L615.255 976.604V1067.92Z" fill="url(#paint123_linear_925_418)"/>
<path d="M615.255 1403.86L680.349 1422.12V1330.81L615.255 1312.54V1403.86Z" fill="url(#paint124_linear_925_418)"/>
<path d="M615.255 1292.34L680.349 1310.6V1219.29L615.255 1201.03V1292.34Z" fill="url(#paint125_linear_925_418)"/>
<path d="M669.028 1176.2V1121.43L647.802 1115.54L637.189 1112.59L631.882 1111.12L626.576 1109.65V1164.42L631.882 1165.89L637.189 1167.37L647.802 1170.31L669.028 1176.2Z" fill="url(#paint126_linear_925_418)"/>
<path d="M669.028 1009.94L626.576 998.161V1011.85V1025.55V1039.24V1052.93L669.028 1064.71V1051.02V1037.33V1023.63V1009.94Z" fill="url(#paint127_linear_925_418)"/>
<path d="M669.028 1400.56V1345.79L658.415 1342.84L647.802 1339.9L637.189 1336.95L626.576 1334.01V1388.78L637.189 1391.73L647.802 1394.67L658.415 1397.62L669.028 1400.56Z" fill="url(#paint128_linear_925_418)"/>
<path d="M626.576 1222.52V1249.91V1277.3L637.189 1280.24L647.802 1283.19L658.415 1286.13L669.028 1289.08V1261.69V1234.3L658.415 1231.36L647.802 1228.41L637.189 1225.47L626.576 1222.52Z" fill="url(#paint129_linear_925_418)"/>
<path d="M626.576 1025.55L669.028 1037.33M626.576 1025.55V1011.85M626.576 1025.55V1039.24M669.028 1037.33V1023.63M669.028 1037.33V1051.02M626.576 1011.85V998.161L669.028 1009.94V1023.63M626.576 1011.85L669.028 1023.63M626.576 1039.24V1052.93L669.028 1064.71V1051.02M626.576 1039.24L669.028 1051.02M647.802 1115.54L669.028 1121.43V1176.2L647.802 1170.31M647.802 1115.54V1170.31M647.802 1115.54L637.189 1112.59M647.802 1170.31L637.189 1167.37M637.189 1112.59V1167.37M637.189 1112.59L631.882 1111.12M637.189 1167.37L631.882 1165.89M631.882 1111.12L626.576 1109.65V1164.42L631.882 1165.89M631.882 1111.12V1165.89M626.576 1249.91V1222.52L637.189 1225.47M626.576 1249.91V1277.3L637.189 1280.24M626.576 1249.91L669.028 1261.69M669.028 1261.69V1234.3L658.415 1231.36M669.028 1261.69V1289.08L658.415 1286.13M647.802 1228.41V1283.19M647.802 1228.41L658.415 1231.36M647.802 1228.41L637.189 1225.47M647.802 1283.19L658.415 1286.13M647.802 1283.19L637.189 1280.24M658.415 1231.36V1286.13M637.189 1225.47V1280.24M647.802 1339.9V1394.67M647.802 1339.9L637.189 1336.95M647.802 1339.9L658.415 1342.84M647.802 1394.67L637.189 1391.73M647.802 1394.67L658.415 1397.62M637.189 1336.95L626.576 1334.01V1388.78L637.189 1391.73M637.189 1336.95V1391.73M658.415 1342.84L669.028 1345.79V1400.56L658.415 1397.62M658.415 1342.84V1397.62" stroke="#6E3FE7" stroke-width="3"/>
<path fill-rule="evenodd" clip-rule="evenodd" d="M19.4884 565.203V642.675L25.689 647.878V662.635L49.1131 676.207V801.834L50.7975 802.507V811.323L56.9981 813.432L55.3137 899.372L120.075 919.029V1015.41L198.328 1015.5V894.889L241.227 864.755V839.643L263.698 825.581V803.482L269.827 796.451V699.018H274.934V820.558V950.536H304.619V1148.04L350.283 1140.29V1079.97H354.518L358.191 1019.64L385.508 1092.64V1021.72L403.758 1015.53V994.988L410.582 989.023V933.426L426.219 920.305V907.657L437.024 900.021V891.67L454.371 881.095V793.84H457.783V838.698L467.735 847.05V865.661L480.246 876.16V879.015L507.542 891.67V909.357L513.513 912.906V944.88L534.27 967.309V1007.4L545.928 1019.09V1185.98H594.229V1154.45H584.682V969.42L607.213 961.594V934.465L637.377 914.375V888.259L661.588 860.134H686.389V895.842H699.274V923.975H737.443H754.68V969.42L736.641 984.569V1226.49L748.478 1223.46L777.662 965.001L786.577 1050.15H800.842V1144.33L833.636 1133.85L861.115 1138.54V1095.31L867.063 1087.7V1035.67L930.171 1025.29L954.342 1033.4V949.963H971.776L982.67 872.833V872.544L1010.11 1106.66L1021.24 1109.41V890.269L1004.28 876.548V835.382H1020.49H1056.38L1068.49 777.555H1090.21L1090.27 777.191L1090.61 777.555H1091.51V778.514L1114.58 826.687L1142.94 844.884V869.458L1164.13 876.548V1020.01L1168.97 1016.1V1002.71L1176.4 996.697V964.423H1178.95V1027.2L1211.66 1064.85V1104.85L1230.13 1127.51L1230.44 1142.38H1241.74V1120.56L1284.73 1137.75V1153.71L1311.18 1165.99V1182.57L1316.87 1183.94V1093.95H1341.7V957.06V860.763H1345.98V937.96L1351.12 943.53V961.039L1369.96 972.181V992.077L1405.92 1015.95V1159.54L1406.14 1159.48L1406.14 1158.89L1460.85 1172.04L1460.85 1064.13L1469.12 1061.89L1489.61 1041.36V939.588L1478.74 941.488V912.931L1513.34 903.424L1513.4 903.352L1518.53 906.001L1534.9 901.859V841.534L1563.8 827.574V943.53L1596 960.978V1607.42L-18.0128 1608L-20 660.019H-2.55787V651.347H7.77633V640.94H13.2879V611.455H16.0437V560L19.4884 565.203Z" fill="black"/>
</g>
<defs>
<linearGradient id="paint0_linear_925_418" x1="1608.79" y1="922.209" x2="1608.79" y2="1275.75" gradientUnits="userSpaceOnUse">
<stop stop-color="#FF5FBD"/>
<stop offset="1" stop-color="#6E3FE7"/>
</linearGradient>
<linearGradient id="paint1_linear_925_418" x1="1555.02" y1="922.209" x2="1555.02" y2="1275.75" gradientUnits="userSpaceOnUse">
<stop stop-color="#401A7F"/>
<stop offset="1" stop-color="#6E3FE7"/>
</linearGradient>
<linearGradient id="paint2_linear_925_418" x1="1614.45" y1="871.19" x2="1614.45" y2="1315.27" gradientUnits="userSpaceOnUse">
<stop offset="0.520833" stop-color="#9FE2FF"/>
<stop offset="1" stop-color="#E26DD3"/>
</linearGradient>
<linearGradient id="paint3_linear_925_418" x1="1614.45" y1="871.19" x2="1614.45" y2="1315.27" gradientUnits="userSpaceOnUse">
<stop offset="0.520833" stop-color="#9FE2FF"/>
<stop offset="1" stop-color="#E26DD3"/>
</linearGradient>
<linearGradient id="paint4_linear_925_418" x1="1614.45" y1="871.19" x2="1614.45" y2="1315.27" gradientUnits="userSpaceOnUse">
<stop offset="0.520833" stop-color="#9FE2FF"/>
<stop offset="1" stop-color="#E26DD3"/>
</linearGradient>
<linearGradient id="paint5_linear_925_418" x1="1614.45" y1="871.19" x2="1614.45" y2="1315.27" gradientUnits="userSpaceOnUse">
<stop offset="0.520833" stop-color="#9FE2FF"/>
<stop offset="1" stop-color="#E26DD3"/>
</linearGradient>
<linearGradient id="paint6_linear_925_418" x1="1549.36" y1="870.471" x2="1549.36" y2="1315.99" gradientUnits="userSpaceOnUse">
<stop stop-color="#6E3FE7"/>
<stop offset="1" stop-color="#766DE2"/>
</linearGradient>
<linearGradient id="paint7_linear_925_418" x1="1549.36" y1="870.471" x2="1549.36" y2="1315.99" gradientUnits="userSpaceOnUse">
<stop stop-color="#6E3FE7"/>
<stop offset="1" stop-color="#766DE2"/>
</linearGradient>
<linearGradient id="paint8_linear_925_418" x1="1549.36" y1="870.471" x2="1549.36" y2="1315.99" gradientUnits="userSpaceOnUse">
<stop stop-color="#6E3FE7"/>
<stop offset="1" stop-color="#766DE2"/>
</linearGradient>
<linearGradient id="paint9_linear_925_418" x1="1549.36" y1="870.471" x2="1549.36" y2="1315.99" gradientUnits="userSpaceOnUse">
<stop stop-color="#6E3FE7"/>
<stop offset="1" stop-color="#766DE2"/>
</linearGradient>
<linearGradient id="paint10_linear_925_418" x1="1549.36" y1="892.029" x2="1549.36" y2="1294.43" gradientUnits="userSpaceOnUse">
<stop stop-color="#88DDFE"/>
<stop offset="1" stop-color="#4DA6FF"/>
</linearGradient>
<linearGradient id="paint11_linear_925_418" x1="1549.36" y1="892.029" x2="1549.36" y2="1294.43" gradientUnits="userSpaceOnUse">
<stop stop-color="#88DDFE"/>
<stop offset="1" stop-color="#4DA6FF"/>
</linearGradient>
<linearGradient id="paint12_linear_925_418" x1="1549.36" y1="892.029" x2="1549.36" y2="1294.43" gradientUnits="userSpaceOnUse">
<stop stop-color="#88DDFE"/>
<stop offset="1" stop-color="#4DA6FF"/>
</linearGradient>
<linearGradient id="paint13_linear_925_418" x1="1549.36" y1="892.029" x2="1549.36" y2="1294.43" gradientUnits="userSpaceOnUse">
<stop stop-color="#88DDFE"/>
<stop offset="1" stop-color="#4DA6FF"/>
</linearGradient>
<linearGradient id="paint14_linear_925_418" x1="727.834" y1="718.701" x2="727.834" y2="837.76" gradientUnits="userSpaceOnUse">
<stop stop-color="#411B99"/>
<stop offset="1" stop-color="#EA6ED0"/>
</linearGradient>
<linearGradient id="paint15_linear_925_418" x1="767.661" y1="808.197" x2="767.661" y2="1332.81" gradientUnits="userSpaceOnUse">
<stop stop-color="#4F1F9C"/>
<stop offset="1" stop-color="#8103A0"/>
</linearGradient>
<linearGradient id="paint16_linear_925_418" x1="754.032" y1="846.092" x2="754.032" y2="1300.02" gradientUnits="userSpaceOnUse">
<stop stop-color="#EA6FCF"/>
<stop offset="0.552083" stop-color="#3705AA"/>
</linearGradient>
<linearGradient id="paint17_linear_925_418" x1="696.873" y1="807.659" x2="696.873" y2="1323.94" gradientUnits="userSpaceOnUse">
<stop stop-color="#6E3FE7"/>
<stop offset="1" stop-color="#F97AE4"/>
</linearGradient>
<linearGradient id="paint18_linear_925_418" x1="775.07" y1="846.092" x2="775.07" y2="1300.02" gradientUnits="userSpaceOnUse">
<stop stop-color="#92DFFF"/>
<stop offset="0.515625" stop-color="#2283F3"/>
<stop offset="1" stop-color="#92DFFF"/>
</linearGradient>
<linearGradient id="paint19_linear_925_418" x1="799.549" y1="967.838" x2="799.549" y2="1087.43" gradientUnits="userSpaceOnUse">
<stop stop-color="#4ACDFE"/>
<stop offset="1" stop-color="#8DDDFE"/>
</linearGradient>
<linearGradient id="paint20_linear_925_418" x1="765.544" y1="851.467" x2="765.544" y2="1216.44" gradientUnits="userSpaceOnUse">
<stop stop-color="#212AB0" stop-opacity="0"/>
<stop offset="0.536458" stop-color="#5921B0"/>
<stop offset="1" stop-color="#212AB0" stop-opacity="0"/>
</linearGradient>
<linearGradient id="paint21_linear_925_418" x1="685.626" y1="829.966" x2="685.626" y2="1218.86" gradientUnits="userSpaceOnUse">
<stop offset="0.416667" stop-color="#84DBFF"/>
<stop offset="1" stop-color="#7A41FF"/>
</linearGradient>
<linearGradient id="paint22_linear_925_418" x1="703.621" y1="1131.78" x2="703.075" y2="923.224" gradientUnits="userSpaceOnUse">
<stop stop-color="#7FE2F8"/>
<stop offset="0.546875" stop-color="#8B62CD"/>
<stop offset="1" stop-color="#EA6ED0"/>
</linearGradient>
<linearGradient id="paint23_linear_925_418" x1="697.799" y1="830.235" x2="697.799" y2="1219.12" gradientUnits="userSpaceOnUse">
<stop stop-color="#740BA0"/>
<stop offset="1" stop-color="#3705AA"/>
</linearGradient>
<linearGradient id="paint24_linear_925_418" x1="338.747" y1="358.75" x2="338.747" y2="513.732" gradientUnits="userSpaceOnUse">
<stop stop-color="#66FFF6"/>
<stop offset="1" stop-color="#F668E3"/>
</linearGradient>
<linearGradient id="paint25_linear_925_418" x1="366.879" y1="598.519" x2="366.879" y2="1279.15" gradientUnits="userSpaceOnUse">
<stop stop-color="#6E26D7"/>
<stop offset="1" stop-color="#7FCEFC"/>
</linearGradient>
<linearGradient id="paint26_linear_925_418" x1="364.395" y1="334.656" x2="364.395" y2="483.127" gradientUnits="userSpaceOnUse">
<stop stop-color="#FF37EC"/>
<stop offset="1" stop-color="#8232F9"/>
</linearGradient>
<linearGradient id="paint27_linear_925_418" x1="312.962" y1="606.665" x2="312.962" y2="1300.87" gradientUnits="userSpaceOnUse">
<stop stop-color="#7FC5FA"/>
<stop offset="1" stop-color="#DE58D3"/>
</linearGradient>
<linearGradient id="paint28_linear_925_418" x1="366.959" y1="483.127" x2="366.959" y2="621.178" gradientUnits="userSpaceOnUse">
<stop stop-color="#FF6DE3"/>
<stop offset="1" stop-color="#9D31E0"/>
</linearGradient>
<linearGradient id="paint29_linear_925_418" x1="388.118" y1="483.778" x2="388.118" y2="624.434" gradientUnits="userSpaceOnUse">
<stop stop-color="#9B2EE0"/>
<stop offset="1" stop-color="#486BE0"/>
</linearGradient>
<linearGradient id="paint30_linear_925_418" x1="301.238" y1="498.755" x2="301.238" y2="744.253" gradientUnits="userSpaceOnUse">
<stop stop-color="#9617FF"/>
<stop offset="1" stop-color="#05FFFE"/>
</linearGradient>
<linearGradient id="paint31_linear_925_418" x1="280.399" y1="798.953" x2="280.399" y2="896.631" gradientUnits="userSpaceOnUse">
<stop stop-color="#4BCFFD"/>
<stop offset="1" stop-color="#919AEA"/>
</linearGradient>
<linearGradient id="paint32_linear_925_418" x1="1280.91" y1="472.997" x2="1280.91" y2="1141.99" gradientUnits="userSpaceOnUse">
<stop stop-color="#D55FFF"/>
<stop offset="0.864583" stop-color="#4100E9"/>
</linearGradient>
<linearGradient id="paint33_linear_925_418" x1="1314.01" y1="472.997" x2="1314.01" y2="1141.99" gradientUnits="userSpaceOnUse">
<stop stop-color="#66FFF6"/>
<stop offset="0.864583" stop-color="#6E3FE7"/>
</linearGradient>
<linearGradient id="paint34_linear_925_418" x1="1314.01" y1="472.997" x2="1314.01" y2="1141.99" gradientUnits="userSpaceOnUse">
<stop stop-color="#66FFF6"/>
<stop offset="0.864583" stop-color="#6E3FE7"/>
</linearGradient>
<linearGradient id="paint35_linear_925_418" x1="1341.77" y1="559.502" x2="1341.77" y2="1456.32" gradientUnits="userSpaceOnUse">
<stop offset="0.479167" stop-color="#66FFF6"/>
<stop offset="1" stop-color="#FF5FBD"/>
</linearGradient>
<linearGradient id="paint36_linear_925_418" x1="1237.12" y1="683.474" x2="1237.12" y2="769.132" gradientUnits="userSpaceOnUse">
<stop stop-color="#411B99"/>
<stop offset="1" stop-color="#EA6ED0"/>
</linearGradient>
<linearGradient id="paint37_linear_925_418" x1="1207.37" y1="747.863" x2="1207.37" y2="1125.3" gradientUnits="userSpaceOnUse">
<stop stop-color="#4F1F9C"/>
<stop offset="1" stop-color="#8103A0"/>
</linearGradient>
<linearGradient id="paint38_linear_925_418" x1="1217.55" y1="775.127" x2="1217.55" y2="1101.71" gradientUnits="userSpaceOnUse">
<stop stop-color="#EA6FCF"/>
<stop offset="0.552083" stop-color="#3705AA"/>
</linearGradient>
<linearGradient id="paint39_linear_925_418" x1="1260.24" y1="747.476" x2="1260.24" y2="1118.92" gradientUnits="userSpaceOnUse">
<stop stop-color="#6E3FE7"/>
<stop offset="1" stop-color="#F97AE4"/>
</linearGradient>
<linearGradient id="paint40_linear_925_418" x1="1201.84" y1="775.127" x2="1201.84" y2="1101.71" gradientUnits="userSpaceOnUse">
<stop stop-color="#92DFFF"/>
<stop offset="0.515625" stop-color="#2283F3"/>
<stop offset="1" stop-color="#92DFFF"/>
</linearGradient>
<linearGradient id="paint41_linear_925_418" x1="1183.56" y1="862.718" x2="1183.56" y2="948.763" gradientUnits="userSpaceOnUse">
<stop stop-color="#4ACDFE"/>
<stop offset="1" stop-color="#8DDDFE"/>
</linearGradient>
<linearGradient id="paint42_linear_925_418" x1="1208.95" y1="778.994" x2="1208.95" y2="1041.58" gradientUnits="userSpaceOnUse">
<stop stop-color="#212AB0" stop-opacity="0"/>
<stop offset="0.536458" stop-color="#5921B0"/>
<stop offset="1" stop-color="#212AB0" stop-opacity="0"/>
</linearGradient>
<linearGradient id="paint43_linear_925_418" x1="1268.64" y1="763.525" x2="1268.64" y2="1043.32" gradientUnits="userSpaceOnUse">
<stop offset="0.416667" stop-color="#84DBFF"/>
<stop offset="1" stop-color="#7A41FF"/>
</linearGradient>
<linearGradient id="paint44_linear_925_418" x1="1255.2" y1="980.667" x2="1255.58" y2="830.621" gradientUnits="userSpaceOnUse">
<stop stop-color="#7FE2F8"/>
<stop offset="0.546875" stop-color="#8B62CD"/>
<stop offset="1" stop-color="#EA6ED0"/>
</linearGradient>
<linearGradient id="paint45_linear_925_418" x1="1259.55" y1="763.718" x2="1259.55" y2="1043.51" gradientUnits="userSpaceOnUse">
<stop stop-color="#740BA0"/>
<stop offset="1" stop-color="#3705AA"/>
</linearGradient>
<linearGradient id="paint46_linear_925_418" x1="1226.93" y1="1052.04" x2="1226.93" y2="1313.86" gradientUnits="userSpaceOnUse">
<stop stop-color="#FF93F2"/>
<stop offset="1" stop-color="#A130DF"/>
</linearGradient>
<linearGradient id="paint47_linear_925_418" x1="1180.45" y1="1052.04" x2="1180.45" y2="1307.51" gradientUnits="userSpaceOnUse">
<stop stop-color="#6624CB"/>
<stop offset="1" stop-color="#3B1874"/>
</linearGradient>
<linearGradient id="paint48_linear_925_418" x1="1484.04" y1="791.344" x2="1484.04" y2="1193.98" gradientUnits="userSpaceOnUse">
<stop stop-color="#6E3FE7"/>
<stop offset="1" stop-color="#3705AA"/>
</linearGradient>
<linearGradient id="paint49_linear_925_418" x1="1438.87" y1="754.614" x2="1438.87" y2="1117.31" gradientUnits="userSpaceOnUse">
<stop stop-color="#66FFF6"/>
<stop offset="1" stop-color="#3705AA"/>
</linearGradient>
<linearGradient id="paint50_linear_925_418" x1="1489.03" y1="754.614" x2="1489.03" y2="819.743" gradientUnits="userSpaceOnUse">
<stop stop-color="#6691FF"/>
<stop offset="1" stop-color="#E95FFF"/>
</linearGradient>
<linearGradient id="paint51_linear_925_418" x1="1489.03" y1="754.614" x2="1489.03" y2="819.743" gradientUnits="userSpaceOnUse">
<stop stop-color="#66FFF6"/>
<stop offset="1" stop-color="#8050ED"/>
</linearGradient>
<linearGradient id="paint52_linear_925_418" x1="1496.65" y1="820.038" x2="1496.65" y2="1145.68" gradientUnits="userSpaceOnUse">
<stop stop-color="#A3E9FF"/>
<stop offset="1" stop-color="#F25FFF"/>
</linearGradient>
<linearGradient id="paint53_linear_925_418" x1="1440.21" y1="580.293" x2="1440.21" y2="1254.86" gradientUnits="userSpaceOnUse">
<stop stop-color="#6E3FE7"/>
<stop offset="1" stop-color="#3705AA"/>
</linearGradient>
<linearGradient id="paint54_linear_925_418" x1="1377.28" y1="579.987" x2="1377.28" y2="1139.94" gradientUnits="userSpaceOnUse">
<stop stop-color="#66FFF6"/>
<stop offset="1" stop-color="#EA6ED0"/>
</linearGradient>
<linearGradient id="paint55_linear_925_418" x1="1375.6" y1="852.586" x2="1375.6" y2="905.466" gradientUnits="userSpaceOnUse">
<stop stop-color="#E164F5"/>
<stop offset="1" stop-color="#6E3FE7"/>
</linearGradient>
<linearGradient id="paint56_linear_925_418" x1="254.918" y1="932.375" x2="254.918" y2="1234.68" gradientUnits="userSpaceOnUse">
<stop stop-color="#98DAFF"/>
<stop offset="1" stop-color="#CF3FE7"/>
</linearGradient>
<linearGradient id="paint57_linear_925_418" x1="254.918" y1="953.193" x2="254.918" y2="1213.86" gradientUnits="userSpaceOnUse">
<stop stop-color="#982EE3"/>
<stop offset="0.541667" stop-color="#3705AA"/>
</linearGradient>
<linearGradient id="paint58_linear_925_418" x1="254.918" y1="953.193" x2="254.918" y2="1213.86" gradientUnits="userSpaceOnUse">
<stop stop-color="#8DFFF8"/>
<stop offset="1" stop-color="#6E3FE7"/>
</linearGradient>
<linearGradient id="paint59_linear_925_418" x1="1518.24" y1="919.292" x2="1518.24" y2="1326.97" gradientUnits="userSpaceOnUse">
<stop offset="0.21875" stop-color="#9FE2FE"/>
<stop offset="0.619792" stop-color="#3705AA"/>
</linearGradient>
<linearGradient id="paint60_linear_925_418" x1="1544.34" y1="987.239" x2="1544.34" y2="1468.98" gradientUnits="userSpaceOnUse">
<stop offset="0.046875" stop-color="#3D1977"/>
<stop offset="0.655497" stop-color="#7527E3"/>
<stop offset="1" stop-color="#E16ED1"/>
</linearGradient>
<linearGradient id="paint61_linear_925_418" x1="1496.17" y1="1263.78" x2="1538.79" y2="1317.5" gradientUnits="userSpaceOnUse">
<stop stop-color="#E67BD5"/>
<stop offset="1" stop-color="#992FE1"/>
</linearGradient>
<linearGradient id="paint62_linear_925_418" x1="1559.72" y1="1309.31" x2="1599.63" y2="1429.89" gradientUnits="userSpaceOnUse">
<stop stop-color="#95BBF3"/>
<stop offset="1" stop-color="#7728E5"/>
</linearGradient>
<linearGradient id="paint63_linear_925_418" x1="193.51" y1="589.672" x2="193.51" y2="1328.23" gradientUnits="userSpaceOnUse">
<stop stop-color="#D55FFF"/>
<stop offset="0.864583" stop-color="#4100E9"/>
</linearGradient>
<linearGradient id="paint64_linear_925_418" x1="158.308" y1="589.672" x2="158.308" y2="1328.23" gradientUnits="userSpaceOnUse">
<stop stop-color="#66FFF6"/>
<stop offset="0.864583" stop-color="#6E3FE7"/>
</linearGradient>
<linearGradient id="paint65_linear_925_418" x1="158.308" y1="589.672" x2="158.308" y2="1328.23" gradientUnits="userSpaceOnUse">
<stop stop-color="#66FFF6"/>
<stop offset="0.864583" stop-color="#6E3FE7"/>
</linearGradient>
<linearGradient id="paint66_linear_925_418" x1="128.916" y1="685.702" x2="128.916" y2="1507.17" gradientUnits="userSpaceOnUse">
<stop offset="0.479167" stop-color="#66FFF6"/>
<stop offset="1" stop-color="#FF5FBD"/>
</linearGradient>
<linearGradient id="paint67_linear_925_418" x1="1123.04" y1="859.339" x2="1123.04" y2="1310.71" gradientUnits="userSpaceOnUse">
<stop stop-color="#D55FFF"/>
<stop offset="0.864583" stop-color="#4100E9"/>
</linearGradient>
<linearGradient id="paint68_linear_925_418" x1="1153.91" y1="859.34" x2="1153.91" y2="1310.71" gradientUnits="userSpaceOnUse">
<stop stop-color="#66FFF6"/>
<stop offset="0.864583" stop-color="#6E3FE7"/>
</linearGradient>
<linearGradient id="paint69_linear_925_418" x1="1153.91" y1="859.34" x2="1153.91" y2="1310.71" gradientUnits="userSpaceOnUse">
<stop stop-color="#66FFF6"/>
<stop offset="0.864583" stop-color="#6E3FE7"/>
</linearGradient>
<linearGradient id="paint70_linear_925_418" x1="1179.79" y1="918.231" x2="1179.79" y2="1456.32" gradientUnits="userSpaceOnUse">
<stop offset="0.479167" stop-color="#66FFF6"/>
<stop offset="1" stop-color="#FF5FBD"/>
</linearGradient>
<linearGradient id="paint71_linear_925_418" x1="365.795" y1="1002.97" x2="365.795" y2="1366.88" gradientUnits="userSpaceOnUse">
<stop stop-color="#FF93F2"/>
<stop offset="1" stop-color="#A130DF"/>
</linearGradient>
<linearGradient id="paint72_linear_925_418" x1="428.026" y1="1002.97" x2="428.026" y2="1358.05" gradientUnits="userSpaceOnUse">
<stop stop-color="#6624CB"/>
<stop offset="1" stop-color="#3B1874"/>
</linearGradient>
<linearGradient id="paint73_linear_925_418" x1="566.836" y1="383.888" x2="566.836" y2="1234.68" gradientUnits="userSpaceOnUse">
<stop stop-color="#4BCDFC"/>
<stop offset="0.515625" stop-color="#92B9F2"/>
<stop offset="1" stop-color="#E86ED2"/>
</linearGradient>
<linearGradient id="paint74_linear_925_418" x1="564.437" y1="593.513" x2="564.437" y2="1095.84" gradientUnits="userSpaceOnUse">
<stop stop-color="#44F5FD"/>
<stop offset="1" stop-color="#EA6ED0"/>
</linearGradient>
<linearGradient id="paint75_linear_925_418" x1="530.194" y1="734.551" x2="530.194" y2="1093.91" gradientUnits="userSpaceOnUse">
<stop stop-color="#44F5FD"/>
<stop offset="1" stop-color="#EA6ED0"/>
</linearGradient>
<linearGradient id="paint76_linear_925_418" x1="-14.5791" y1="916.808" x2="-14.5791" y2="1362.18" gradientUnits="userSpaceOnUse">
<stop stop-color="#6E3FE7"/>
<stop offset="1" stop-color="#3705AA"/>
</linearGradient>
<linearGradient id="paint77_linear_925_418" x1="33.4563" y1="876.26" x2="33.4563" y2="1276.67" gradientUnits="userSpaceOnUse">
<stop stop-color="#66FFF6"/>
<stop offset="1" stop-color="#3705AA"/>
</linearGradient>
<linearGradient id="paint78_linear_925_418" x1="-19.8817" y1="876.26" x2="-19.8817" y2="948.16" gradientUnits="userSpaceOnUse">
<stop stop-color="#6691FF"/>
<stop offset="1" stop-color="#E95FFF"/>
</linearGradient>
<linearGradient id="paint79_linear_925_418" x1="-19.8817" y1="876.26" x2="-19.8817" y2="948.16" gradientUnits="userSpaceOnUse">
<stop stop-color="#66FFF6"/>
<stop offset="1" stop-color="#8050ED"/>
</linearGradient>
<linearGradient id="paint80_linear_925_418" x1="-27.9916" y1="948.486" x2="-27.9916" y2="1307.99" gradientUnits="userSpaceOnUse">
<stop stop-color="#A3E9FF"/>
<stop offset="1" stop-color="#F25FFF"/>
</linearGradient>
<linearGradient id="paint81_linear_925_418" x1="435.639" y1="745.021" x2="435.639" y2="1152.7" gradientUnits="userSpaceOnUse">
<stop offset="0.21875" stop-color="#9FE2FE"/>
<stop offset="0.619792" stop-color="#3705AA"/>
</linearGradient>
<linearGradient id="paint82_linear_925_418" x1="518.599" y1="1056.22" x2="518.599" y2="1234.92" gradientUnits="userSpaceOnUse">
<stop stop-color="#FF92C5"/>
<stop offset="1" stop-color="#6E3FE7"/>
</linearGradient>
<linearGradient id="paint83_linear_925_418" x1="461.731" y1="812.968" x2="461.731" y2="1294.71" gradientUnits="userSpaceOnUse">
<stop offset="0.046875" stop-color="#3D1977"/>
<stop offset="0.655497" stop-color="#7527E3"/>
<stop offset="1" stop-color="#E16ED1"/>
</linearGradient>
<linearGradient id="paint84_linear_925_418" x1="413.561" y1="1089.51" x2="456.182" y2="1143.23" gradientUnits="userSpaceOnUse">
<stop stop-color="#E67BD5"/>
<stop offset="1" stop-color="#992FE1"/>
</linearGradient>
<linearGradient id="paint85_linear_925_418" x1="477.119" y1="1135.03" x2="517.022" y2="1255.62" gradientUnits="userSpaceOnUse">
<stop stop-color="#95BBF3"/>
<stop offset="1" stop-color="#7728E5"/>
</linearGradient>
<linearGradient id="paint86_linear_925_418" x1="897.895" y1="866.226" x2="897.895" y2="1411.86" gradientUnits="userSpaceOnUse">
<stop stop-color="#6E26D7"/>
<stop offset="1" stop-color="#E76FD1"/>
</linearGradient>
<linearGradient id="paint87_linear_925_418" x1="839.778" y1="866.226" x2="839.778" y2="1407.49" gradientUnits="userSpaceOnUse">
<stop stop-color="#9FE2FE"/>
<stop offset="0.541667" stop-color="#4ACDFE"/>
<stop offset="0.958333" stop-color="#E570D4"/>
</linearGradient>
<linearGradient id="paint88_linear_925_418" x1="839.778" y1="866.226" x2="839.778" y2="1407.49" gradientUnits="userSpaceOnUse">
<stop stop-color="#9FE2FE"/>
<stop offset="0.541667" stop-color="#4ACDFE"/>
<stop offset="0.958333" stop-color="#E570D4"/>
</linearGradient>
<linearGradient id="paint89_linear_925_418" x1="948.905" y1="976.725" x2="948.905" y2="1340.63" gradientUnits="userSpaceOnUse">
<stop stop-color="#FF93F2"/>
<stop offset="1" stop-color="#A130DF"/>
</linearGradient>
<linearGradient id="paint90_linear_925_418" x1="909.183" y1="976.725" x2="909.183" y2="1331.8" gradientUnits="userSpaceOnUse">
<stop stop-color="#6624CB"/>
<stop offset="1" stop-color="#3B1874"/>
</linearGradient>
<linearGradient id="paint91_linear_925_418" x1="1040.89" y1="950.834" x2="1040.89" y2="1281.07" gradientUnits="userSpaceOnUse">
<stop stop-color="#FF5FBD"/>
<stop offset="1" stop-color="#6E3FE7"/>
</linearGradient>
<linearGradient id="paint92_linear_925_418" x1="992.474" y1="950.834" x2="992.474" y2="1281.07" gradientUnits="userSpaceOnUse">
<stop stop-color="#401A7F"/>
<stop offset="1" stop-color="#6E3FE7"/>
</linearGradient>
<linearGradient id="paint93_linear_925_418" x1="1045.99" y1="903.179" x2="1045.99" y2="1317.98" gradientUnits="userSpaceOnUse">
<stop offset="0.520833" stop-color="#9FE2FF"/>
<stop offset="1" stop-color="#E26DD3"/>
</linearGradient>
<linearGradient id="paint94_linear_925_418" x1="1045.99" y1="903.179" x2="1045.99" y2="1317.98" gradientUnits="userSpaceOnUse">
<stop offset="0.520833" stop-color="#9FE2FF"/>
<stop offset="1" stop-color="#E26DD3"/>
</linearGradient>
<linearGradient id="paint95_linear_925_418" x1="1045.99" y1="903.179" x2="1045.99" y2="1317.98" gradientUnits="userSpaceOnUse">
<stop offset="0.520833" stop-color="#9FE2FF"/>
<stop offset="1" stop-color="#E26DD3"/>
</linearGradient>
<linearGradient id="paint96_linear_925_418" x1="1045.99" y1="903.179" x2="1045.99" y2="1317.98" gradientUnits="userSpaceOnUse">
<stop offset="0.520833" stop-color="#9FE2FF"/>
<stop offset="1" stop-color="#E26DD3"/>
</linearGradient>
<linearGradient id="paint97_linear_925_418" x1="1046.3" y1="923.291" x2="1046.3" y2="1298.05" gradientUnits="userSpaceOnUse">
<stop stop-color="#FF5FEF"/>
<stop offset="1" stop-color="#6FB7FF"/>
</linearGradient>
<linearGradient id="paint98_linear_925_418" x1="1046.3" y1="923.291" x2="1046.3" y2="1298.05" gradientUnits="userSpaceOnUse">
<stop stop-color="#FF5FEF"/>
<stop offset="1" stop-color="#6FB7FF"/>
</linearGradient>
<linearGradient id="paint99_linear_925_418" x1="1046.3" y1="923.291" x2="1046.3" y2="1298.05" gradientUnits="userSpaceOnUse">
<stop stop-color="#FF5FEF"/>
<stop offset="1" stop-color="#6FB7FF"/>
</linearGradient>
<linearGradient id="paint100_linear_925_418" x1="1046.3" y1="923.291" x2="1046.3" y2="1298.05" gradientUnits="userSpaceOnUse">
<stop stop-color="#FF5FEF"/>
<stop offset="1" stop-color="#6FB7FF"/>
</linearGradient>
<linearGradient id="paint101_linear_925_418" x1="987.377" y1="902.507" x2="987.377" y2="1318.65" gradientUnits="userSpaceOnUse">
<stop stop-color="#6E3FE7"/>
<stop offset="1" stop-color="#766DE2"/>
</linearGradient>
<linearGradient id="paint102_linear_925_418" x1="987.377" y1="902.507" x2="987.377" y2="1318.65" gradientUnits="userSpaceOnUse">
<stop stop-color="#6E3FE7"/>
<stop offset="1" stop-color="#766DE2"/>
</linearGradient>
<linearGradient id="paint103_linear_925_418" x1="987.377" y1="902.507" x2="987.377" y2="1318.65" gradientUnits="userSpaceOnUse">
<stop stop-color="#6E3FE7"/>
<stop offset="1" stop-color="#766DE2"/>
</linearGradient>
<linearGradient id="paint104_linear_925_418" x1="987.377" y1="902.507" x2="987.377" y2="1318.65" gradientUnits="userSpaceOnUse">
<stop stop-color="#6E3FE7"/>
<stop offset="1" stop-color="#766DE2"/>
</linearGradient>
<linearGradient id="paint105_linear_925_418" x1="987.377" y1="922.643" x2="987.377" y2="1298.52" gradientUnits="userSpaceOnUse">
<stop stop-color="#88DDFE"/>
<stop offset="1" stop-color="#4DA6FF"/>
</linearGradient>
<linearGradient id="paint106_linear_925_418" x1="987.377" y1="922.643" x2="987.377" y2="1298.52" gradientUnits="userSpaceOnUse">
<stop stop-color="#88DDFE"/>
<stop offset="1" stop-color="#4DA6FF"/>
</linearGradient>
<linearGradient id="paint107_linear_925_418" x1="987.377" y1="922.643" x2="987.377" y2="1298.52" gradientUnits="userSpaceOnUse">
<stop stop-color="#88DDFE"/>
<stop offset="1" stop-color="#4DA6FF"/>
</linearGradient>
<linearGradient id="paint108_linear_925_418" x1="987.377" y1="922.643" x2="987.377" y2="1298.52" gradientUnits="userSpaceOnUse">
<stop stop-color="#88DDFE"/>
<stop offset="1" stop-color="#4DA6FF"/>
</linearGradient>
<linearGradient id="paint109_linear_925_418" x1="39.2488" y1="683.474" x2="39.2488" y2="1296.83" gradientUnits="userSpaceOnUse">
<stop stop-color="#6E3FE7"/>
<stop offset="1" stop-color="#3705AA"/>
</linearGradient>
<linearGradient id="paint110_linear_925_418" x1="98.9588" y1="683.474" x2="98.9588" y2="1301.65" gradientUnits="userSpaceOnUse">
<stop stop-color="#66FFF6"/>
<stop offset="1" stop-color="#EA6ED0"/>
</linearGradient>
<linearGradient id="paint111_linear_925_418" x1="100.741" y1="984.418" x2="100.741" y2="1042.8" gradientUnits="userSpaceOnUse">
<stop stop-color="#E164F5"/>
<stop offset="1" stop-color="#6E3FE7"/>
</linearGradient>
<linearGradient id="paint112_linear_925_418" x1="588.369" y1="1028.34" x2="588.369" y2="1381.88" gradientUnits="userSpaceOnUse">
<stop stop-color="#FF5FBD"/>
<stop offset="1" stop-color="#6E3FE7"/>
</linearGradient>
<linearGradient id="paint113_linear_925_418" x1="642.141" y1="1028.34" x2="642.141" y2="1381.88" gradientUnits="userSpaceOnUse">
<stop stop-color="#401A7F"/>
<stop offset="1" stop-color="#6E3FE7"/>
</linearGradient>
<linearGradient id="paint114_linear_925_418" x1="582.708" y1="977.323" x2="582.708" y2="1421.4" gradientUnits="userSpaceOnUse">
<stop offset="0.520833" stop-color="#9FE2FF"/>
<stop offset="1" stop-color="#E26DD3"/>
</linearGradient>
<linearGradient id="paint115_linear_925_418" x1="582.708" y1="977.323" x2="582.708" y2="1421.4" gradientUnits="userSpaceOnUse">
<stop offset="0.520833" stop-color="#9FE2FF"/>
<stop offset="1" stop-color="#E26DD3"/>
</linearGradient>
<linearGradient id="paint116_linear_925_418" x1="582.708" y1="977.323" x2="582.708" y2="1421.4" gradientUnits="userSpaceOnUse">
<stop offset="0.520833" stop-color="#9FE2FF"/>
<stop offset="1" stop-color="#E26DD3"/>
</linearGradient>
<linearGradient id="paint117_linear_925_418" x1="582.708" y1="977.323" x2="582.708" y2="1421.4" gradientUnits="userSpaceOnUse">
<stop offset="0.520833" stop-color="#9FE2FF"/>
<stop offset="1" stop-color="#E26DD3"/>
</linearGradient>
<linearGradient id="paint118_linear_925_418" x1="582.359" y1="998.854" x2="582.359" y2="1400.07" gradientUnits="userSpaceOnUse">
<stop stop-color="#FF5FEF"/>
<stop offset="1" stop-color="#6FB7FF"/>
</linearGradient>
<linearGradient id="paint119_linear_925_418" x1="582.359" y1="998.854" x2="582.359" y2="1400.07" gradientUnits="userSpaceOnUse">
<stop stop-color="#FF5FEF"/>
<stop offset="1" stop-color="#6FB7FF"/>
</linearGradient>
<linearGradient id="paint120_linear_925_418" x1="582.359" y1="998.854" x2="582.359" y2="1400.07" gradientUnits="userSpaceOnUse">
<stop stop-color="#FF5FEF"/>
<stop offset="1" stop-color="#6FB7FF"/>
</linearGradient>
<linearGradient id="paint121_linear_925_418" x1="582.359" y1="998.854" x2="582.359" y2="1400.07" gradientUnits="userSpaceOnUse">
<stop stop-color="#FF5FEF"/>
<stop offset="1" stop-color="#6FB7FF"/>
</linearGradient>
<linearGradient id="paint122_linear_925_418" x1="647.802" y1="976.604" x2="647.802" y2="1422.12" gradientUnits="userSpaceOnUse">
<stop stop-color="#6E3FE7"/>
<stop offset="1" stop-color="#766DE2"/>
</linearGradient>
<linearGradient id="paint123_linear_925_418" x1="647.802" y1="976.604" x2="647.802" y2="1422.12" gradientUnits="userSpaceOnUse">
<stop stop-color="#6E3FE7"/>
<stop offset="1" stop-color="#766DE2"/>
</linearGradient>
<linearGradient id="paint124_linear_925_418" x1="647.802" y1="976.604" x2="647.802" y2="1422.12" gradientUnits="userSpaceOnUse">
<stop stop-color="#6E3FE7"/>
<stop offset="1" stop-color="#766DE2"/>
</linearGradient>
<linearGradient id="paint125_linear_925_418" x1="647.802" y1="976.604" x2="647.802" y2="1422.12" gradientUnits="userSpaceOnUse">
<stop stop-color="#6E3FE7"/>
<stop offset="1" stop-color="#766DE2"/>
</linearGradient>
<linearGradient id="paint126_linear_925_418" x1="647.802" y1="998.161" x2="647.802" y2="1400.56" gradientUnits="userSpaceOnUse">
<stop stop-color="#88DDFE"/>
<stop offset="1" stop-color="#4DA6FF"/>
</linearGradient>
<linearGradient id="paint127_linear_925_418" x1="647.802" y1="998.161" x2="647.802" y2="1400.56" gradientUnits="userSpaceOnUse">
<stop stop-color="#88DDFE"/>
<stop offset="1" stop-color="#4DA6FF"/>
</linearGradient>
<linearGradient id="paint128_linear_925_418" x1="647.802" y1="998.161" x2="647.802" y2="1400.56" gradientUnits="userSpaceOnUse">
<stop stop-color="#88DDFE"/>
<stop offset="1" stop-color="#4DA6FF"/>
</linearGradient>
<linearGradient id="paint129_linear_925_418" x1="647.802" y1="998.161" x2="647.802" y2="1400.56" gradientUnits="userSpaceOnUse">
<stop stop-color="#88DDFE"/>
<stop offset="1" stop-color="#4DA6FF"/>
</linearGradient>
<clipPath id="clip0_925_418">
<rect width="1586" height="1345" fill="white"/>
</clipPath>
</defs>
</svg>
