<svg width="1513" height="978" viewBox="0 0 1513 978" fill="none" xmlns="http://www.w3.org/2000/svg">
<path d="M722.563 68.216V4.29336L719.495 0V42.4561H717.04V66.7849H712.131V75.3715H702.927V82.527H699.245V191.291H694.949L682.063 197.492V294.808L687.391 298.082V488.535L655.834 460.498L652.783 399.497L638.12 397.217L636.75 365.349L655.193 363.681L654.553 331.328L635.178 328.751L631.503 243.226L607.172 182.998L603.901 232.773H600.129V282.548L585.553 285.966L580.984 283.78L580.926 283.839L550.113 291.683V315.246L559.791 313.678V397.65L541.545 414.591L534.18 416.443L534.18 505.481L485.451 494.625L485.451 495.117L485.253 495.161V376.688L453.22 356.988V340.571L436.441 331.378V316.932L431.865 312.335V248.639H428.051V328.095V441.041H405.934V515.299L400.872 514.164V500.484L377.309 490.354V477.185L339.021 463.002V481.008H328.956L328.679 468.736L312.223 450.038V417.034L283.094 385.969V334.171H280.824V360.8L274.204 365.758V376.806L269.893 380.035V261.663L251.023 255.814V235.538L225.76 220.523L205.215 180.774V179.983H204.411L204.106 179.683L204.052 179.983H184.711L173.919 227.697H141.952H127.516V261.663L142.624 272.985V453.799L132.71 451.53L108.268 258.36V258.598L98.5651 322.24H83.0364V391.082L61.5079 384.396L5.29785 392.957V435.885L0 442.164V977.5H1513V537.086L1497.48 534.632V528.429L1507.24 529.972V482.905L1447.71 473.494L1418.5 482.141V404.43H1405.8L1397.86 334.171L1373.13 537.059L1373.12 537.06L1372.27 543.027L1372.41 542.992L1371.87 547.426L1361.32 549.931V350.316L1377.39 337.817V300.32H1362.04H1328.04V277.107H1316.56V247.644H1294.47L1272.91 270.851V292.399L1246.04 308.975V331.359L1225.97 337.817V490.486H1234.48V516.506H1191.46V378.798L1181.07 369.151V336.075L1162.58 317.569V291.187L1157.27 288.258V273.664L1132.95 263.223V260.867L1121.81 252.205V236.848L1112.95 229.957V192.944H1109.91V264.939L1094.46 273.664V280.555L1084.83 286.855V297.291L1070.91 308.118V353.991L1064.83 358.913V375.862L1048.57 380.969V439.485L1024.24 379.257L1020.97 429.032H1017.2V478.807L976.525 485.198V322.236H950.085V214.99V114.705H945.536V195.099L940.077 200.9V219.134L920.063 230.737V251.457L881.853 276.321V375.835L812.154 375.768V296.239L754.472 280.02L755.972 209.11L750.45 207.369V200.095L748.949 199.54V95.884L728.086 84.6851V72.5093L722.563 68.216Z" fill="black"/>
</svg>