<svg width="1631" height="1182" viewBox="0 0 1631 1182" fill="none" xmlns="http://www.w3.org/2000/svg">
<path d="M1619.75 630.748H1568.29V1039.5H1619.75V630.748Z" fill="url(#paint0_linear_349_252)"/>
<path d="M1568.29 630.748H1516.83V1039.5H1568.29V630.748Z" fill="url(#paint1_linear_349_252)"/>
<path d="M1568.29 773.171L1630.58 790.323V704.563L1568.29 687.411V773.171Z" fill="url(#paint2_linear_349_252)"/>
<path d="M1568.29 668.437L1630.58 685.589V599.829L1568.29 582.677V668.437Z" fill="url(#paint3_linear_349_252)"/>
<path d="M1568.29 983.943L1630.58 1001.09V915.335L1568.29 898.183V983.943Z" fill="url(#paint4_linear_349_252)"/>
<path d="M1568.29 879.209L1630.58 896.361V810.601L1568.29 793.449V879.209Z" fill="url(#paint5_linear_349_252)"/>
<path d="M1619.86 770.22V718.764L1579.68 707.698V759.154L1619.86 770.22Z" fill="url(#paint6_linear_349_252)"/>
<path d="M1619.86 665.486V614.03L1579.68 602.964V654.42L1619.86 665.486Z" fill="url(#paint7_linear_349_252)"/>
<path d="M1619.86 980.992V929.536L1579.68 918.47V969.926L1619.86 980.992Z" fill="url(#paint8_linear_349_252)"/>
<path d="M1619.86 876.258V824.802L1579.68 813.737V865.192L1619.86 876.258Z" fill="url(#paint9_linear_349_252)"/>
<path d="M1568.29 773.11L1506 790.317V704.28L1568.29 687.073V773.11Z" fill="url(#paint10_linear_349_252)"/>
<path d="M1568.29 668.037L1506 685.245V599.207L1568.29 582V668.037Z" fill="url(#paint11_linear_349_252)"/>
<path d="M1568.29 984.564L1506 1001.77V915.734L1568.29 898.527V984.564Z" fill="url(#paint12_linear_349_252)"/>
<path d="M1568.29 879.492L1506 896.699V810.662L1568.29 793.454V879.492Z" fill="url(#paint13_linear_349_252)"/>
<path d="M1516.83 770.063V718.455L1537.14 712.905L1547.3 710.131L1552.38 708.743L1557.46 707.356V758.964L1552.38 760.352L1547.3 761.739L1537.14 764.514L1516.83 770.063Z" fill="url(#paint14_linear_349_252)"/>
<path d="M1516.83 613.41L1557.46 602.312V615.214V628.116V641.018V653.92L1516.83 665.019V652.116V639.214V626.312V613.41Z" fill="url(#paint15_linear_349_252)"/>
<path d="M1516.83 981.46V929.852L1526.99 927.077L1537.14 924.303L1547.3 921.528L1557.46 918.753V970.362L1547.3 973.136L1537.14 975.911L1526.99 978.686L1516.83 981.46Z" fill="url(#paint16_linear_349_252)"/>
<path d="M1557.46 813.709V839.513V865.317L1547.3 868.092L1537.14 870.867L1526.99 873.641L1516.83 876.416V850.612V824.807L1526.99 822.033L1537.14 819.258L1547.3 816.483L1557.46 813.709Z" fill="url(#paint17_linear_349_252)"/>
<path d="M1557.46 628.116L1516.83 639.214M1557.46 628.116V615.214M1557.46 628.116V641.018M1516.83 639.214V626.312M1516.83 639.214V652.116M1557.46 615.214V602.312L1516.83 613.41V626.312M1557.46 615.214L1516.83 626.312M1557.46 641.018V653.92L1516.83 665.019V652.116M1557.46 641.018L1516.83 652.116M1537.14 712.905L1516.83 718.455V770.063L1537.14 764.514M1537.14 712.905V764.514M1537.14 712.905L1547.3 710.131M1537.14 764.514L1547.3 761.739M1547.3 710.131V761.739M1547.3 710.131L1552.38 708.743M1547.3 761.739L1552.38 760.352M1552.38 708.743L1557.46 707.356V758.964L1552.38 760.352M1552.38 708.743V760.352M1557.46 839.513V813.709L1547.3 816.483M1557.46 839.513V865.317L1547.3 868.092M1557.46 839.513L1516.83 850.612M1516.83 850.612V824.807L1526.99 822.033M1516.83 850.612V876.416L1526.99 873.641M1537.14 819.258V870.867M1537.14 819.258L1526.99 822.033M1537.14 819.258L1547.3 816.483M1537.14 870.867L1526.99 873.641M1537.14 870.867L1547.3 868.092M1526.99 822.033V873.641M1547.3 816.483V868.092M1537.14 924.303V975.911M1537.14 924.303L1547.3 921.528M1537.14 924.303L1526.99 927.077M1537.14 975.911L1547.3 973.136M1537.14 975.911L1526.99 978.686M1547.3 921.528L1557.46 918.753V970.362L1547.3 973.136M1547.3 921.528V973.136M1526.99 927.077L1516.83 929.852V981.46L1526.99 978.686M1526.99 927.077V978.686" stroke="#6E3FE7" stroke-width="3"/>
<path d="M741.495 474.363V499.179H764.539V387H761.5V434.606L752.637 443.469V463.221L741.495 474.363Z" fill="url(#paint18_linear_349_252)"/>
<path d="M779.987 490.823L753.145 471.324L744.787 1138.31H820.755L820.757 943.022V931.509V916.495V630.603L789.61 607.307V507.789L779.987 499.686V490.823Z" fill="url(#paint19_linear_349_252)"/>
<path d="M786.569 932.955L791.634 934.728V800.012L768.59 776.968V575.4L775.174 567.804V507.029L769.856 512.853V562.233L764.539 570.336V779.754L786.569 803.557V932.955Z" fill="url(#paint20_linear_349_252)"/>
<path d="M753.397 470.818V1133.5H693.382V779.247L717.186 718.726V490.823L753.397 470.818Z" fill="url(#paint21_linear_349_252)"/>
<path d="M768.337 575.4L775.427 567.044V507.029L803.535 535.137V594.139L809.613 600.47V725.31L828.098 743.796V915.989L804.801 934.728H791.38V801.784L768.337 777.475V575.4Z" fill="url(#paint22_linear_349_252)"/>
<path d="M825.566 627.564L817.716 621.74V727.082L825.566 734.426V627.564Z" fill="url(#paint23_linear_349_252)"/>
<path d="M780.745 789.123V512.094L796.952 528.807V666.055L789.608 676.437V773.929L797.458 782.033V845.086L791.887 855.975V801.784L780.745 789.123Z" fill="url(#paint24_linear_349_252)"/>
<path d="M683 626.045L693.382 613.637V571.095L711.868 547.292V513.36L742.255 491.835V554.889L733.898 565.524V764.053L700.726 802.29V858.253L683 845.086V626.045Z" fill="url(#paint25_linear_349_252)"/>
<rect x="739.469" y="804.316" width="6.07742" height="14.1807" fill="#15F4F5"/>
<rect x="739.469" y="822.042" width="6.07742" height="14.1807" fill="#15F4F5"/>
<rect x="729.34" y="822.042" width="6.07742" height="14.1807" fill="#15F4F5"/>
<rect x="708.264" y="860.837" width="5.54795" height="12.2055" fill="#15F4F5"/>
<rect x="708.264" y="876.371" width="5.54795" height="11.0959" fill="#15F4F5"/>
<rect x="700.497" y="876.371" width="4.43836" height="11.0959" fill="#15F4F5"/>
<rect x="724.908" y="868.604" width="5.54795" height="12.2055" fill="#15F4F5"/>
<rect x="724.908" y="884.138" width="5.54795" height="11.0959" fill="#15F4F5"/>
<rect x="717.141" y="884.138" width="4.43836" height="11.0959" fill="#15F4F5"/>
<rect x="708.264" y="890.795" width="5.54795" height="12.2055" fill="#15F4F5"/>
<rect x="708.264" y="906.33" width="5.54795" height="11.0959" fill="#15F4F5"/>
<rect x="700.497" y="906.33" width="4.43836" height="11.0959" fill="#15F4F5"/>
<rect x="738.457" y="832.171" width="8.60968" height="2.02581" fill="#D66CE5"/>
<path d="M729.34 571.095L729.34 770.637M713.64 590.594L713.64 790.136M723.06 584.01L723.06 783.552M719.92 585.782L719.92 785.324M716.78 590.594L716.78 790.136M726.2 574.387L726.2 773.929" stroke="url(#paint26_linear_349_252)" stroke-width="3"/>
<path d="M705.79 853.189L700.219 858.507V803.81L734.152 763.8V565.524L742.255 555.902V492.089L748.332 499.179V557.168L742.255 566.791V763.8L705.79 803.81V853.189Z" fill="url(#paint27_linear_349_252)"/>
<path d="M392.193 58.7391V-23.478L395.261 -29V-8.13895H397.715V3.51869H395.261V25.6069H397.715V56.8984H402.624V67.9425H411.827V85.1222H386.671V64.2612L392.193 58.7391Z" fill="#6E3FE7"/>
<path d="M391.58 218.265V76.5322L365.811 94.3255V229.309L391.58 218.265Z" fill="#93DEFD"/>
<path d="M373.173 99.8477V245.875M376.6 109.761V245.875M380.409 118.911V245.875M384.217 111.667V245.875" stroke="url(#paint28_linear_349_252)" stroke-width="3"/>
<path d="M427.361 1134.5V354.392L383.868 325.763V1134.5H427.361Z" fill="url(#paint29_linear_349_252)"/>
<path d="M415.509 77.146H390.966V217.038H415.509V77.146Z" fill="url(#paint30_linear_349_252)"/>
<path d="M392.396 333.438V1134.5H315.645V417.001L392.396 333.438Z" fill="url(#paint31_linear_349_252)"/>
<path d="M339.883 466.119L349.454 463.936M350.903 473.045L365.858 469.634M357.913 465.153L363.297 463.925M346.233 482.921L355.206 480.874M325.453 480.108L330.837 478.881M339.968 505.117L345.351 503.889M355.206 534.523C355.206 534.523 363.591 532.61 368.964 531.385M359.697 540.421L377.643 536.328M358.721 508.548L367.096 506.638M377.297 456.327L382.681 455.099M374.642 523.167L383.017 521.257M366.414 575.389L378.378 572.66M373.488 542.939L377.675 541.984" stroke="#15F4F5" stroke-width="3"/>
<path d="M419.803 345.272L391.58 347.112V217.038H419.803V345.272Z" fill="url(#paint32_linear_349_252)"/>
<path d="M432.688 225.014L419.19 217.651V344.045L432.688 350.18V225.014Z" fill="url(#paint33_linear_349_252)"/>
<path d="M302.614 463.075V352.021L360.288 331.16V240.967L382.99 231.763V444.669L377.468 445.933V429.33L364.583 432.662V448.884L360.288 449.867V433.773L344.711 437.801V453.435L340.041 454.504V439.009L324.702 442.976V458.017L320.407 459.001V444.087L306.295 447.736V462.232L302.614 463.075Z" fill="url(#paint34_linear_349_252)"/>
<path d="M302 419.512L383.603 398.651M302 428.716L383.603 408.468M302 409.695L383.603 387.607M302 401.106L383.603 378.404M302 391.289L383.603 367.973M359.061 325.024C359.061 325.024 374.019 318.667 383.603 314.594M302 383.312L383.603 357.543M302 374.109L383.603 346.499M302 364.905L383.603 335.455M302 354.475L383.603 325.024M359.061 309.685C359.061 309.685 374.019 303.328 383.603 299.255M359.061 316.434C359.061 316.434 374.019 310.077 383.603 306.004M359.061 286.983C359.061 286.983 374.019 280.626 383.603 276.553M359.061 302.322C359.061 302.322 374.019 295.965 383.603 291.892M359.061 294.346L383.603 285.143M359.061 272.871C390.929 261.37 383.603 262.441 383.603 262.441M359.061 280.234C359.061 280.234 374.019 273.877 383.603 269.804" stroke="#05FBFD" stroke-width="3"/>
<path d="M391.58 226.273L382.928 225.014V444.62L391.58 446.509V226.273Z" fill="#6223C2"/>
<path d="M364.389 448.599V431.585L371.805 429.696V450.488L364.389 448.599Z" fill="#6223C2"/>
<path d="M352.03 455.147L344.614 453.258V436.624L352.03 434.734V455.147Z" fill="#6223C2"/>
<path d="M332.255 460.007L324.221 458.118V441.662L332.255 439.773V460.007Z" fill="#6223C2"/>
<path d="M313.715 463.689L305.682 462.429V447.33L313.715 444.811V463.689Z" fill="#6223C2"/>
<path d="M424.098 352.021L432.688 350.18L419.804 344.658L392.193 347.112L424.098 352.021Z" fill="#3705AA"/>
<path d="M360.288 263.055V240.966L365.81 238.728V229.309L391.58 217.038V228.082L382.99 231.763V253.851L360.288 263.055Z" fill="#B8E8FF"/>
<path d="M382.99 231.763V253.851L360.288 263.055V240.966L365.81 238.728M382.99 231.763L365.81 238.728M382.99 231.763L391.58 228.082V217.038L365.81 229.309V238.728" stroke="#451C8D" stroke-width="3"/>
<path d="M307.522 606.648V520.136L338.2 514.614V606.648H307.522Z" fill="url(#paint35_linear_349_252)"/>
<path d="M348.017 517.682L338.2 515.228V606.648L348.017 604.194V517.682Z" fill="#982EE3"/>
<path d="M328.383 460.621L320.407 458.78L324.088 458.167L332.065 460.007L328.383 460.621Z" fill="#37176D"/>
<path d="M348.631 456.326L340.041 454.485L344.336 453.258L352.312 455.099L348.631 456.326Z" fill="#37176D"/>
<path d="M368.265 451.418L360.288 449.577L364.583 448.35L371.946 450.19L368.265 451.418Z" fill="#37176D"/>
<path d="M368.265 451.418L360.288 449.577L364.583 448.35L371.946 450.19L368.265 451.418Z" fill="#37176D"/>
<path d="M387.899 447.736L377.468 445.896L382.99 444.668L391.58 446.509L387.899 447.736Z" fill="#37176D"/>
<path d="M387.899 447.736L377.468 445.896L382.99 444.668L391.58 446.509L387.899 447.736Z" fill="#37176D"/>
<path d="M402.63 374.372V979.856M407.923 415.475V979.856M413.804 453.417V979.856M419.686 423.38V979.856" stroke="#15F4F5" stroke-width="3"/>
<rect x="397.715" y="99.8477" width="6.1356" height="11.0441" fill="#ADE4FD"/>
<rect x="406.305" y="118.254" width="6.1356" height="11.0441" fill="#ADE4FD"/>
<rect x="397.715" y="152.614" width="6.1356" height="11.0441" fill="#ADE4FD"/>
<rect x="407.532" y="309.685" width="6.1356" height="11.0441" fill="#ADE4FD"/>
<rect x="407.532" y="326.865" width="6.1356" height="11.0441" fill="#ADE4FD"/>
<rect x="397.715" y="326.865" width="6.1356" height="11.0441" fill="#ADE4FD"/>
<path d="M1313.58 241.819L1308.73 207.107L1287.08 234.53V259.636L1261.82 278.947V305.026L1242.95 312.55V490.418H1250.95V650.603H1242.95V681.807L1189.65 758.779V837.832H1365.55V731.735L1352.22 721.334V327.112L1370.88 312.55V268.863H1313.58V241.819Z" fill="url(#paint36_linear_349_252)"/>
<rect width="6.41511" height="43.2585" transform="matrix(-1 0 0 1 1273.85 395.205)" fill="#15F4F5"/>
<rect width="6.41511" height="43.2585" transform="matrix(-1 0 0 1 1273.85 443.098)" fill="#15F4F5"/>
<path d="M1328.12 241.819V207.494H1307.62V241.819H1300.07L1292.51 249.1V277.184H1281.72V490.418H1288.2V650.603H1281.72V681.807L1238.56 758.779V1134H1380.99V731.735L1370.2 721.334V327.112L1385.31 312.55V268.863H1338.91V241.819H1328.12Z" fill="url(#paint37_linear_349_252)"/>
<path d="M1328.12 241.819V207.494H1307.62V241.819H1300.07L1292.51 249.1V277.184H1281.72V490.418H1288.2V650.603H1281.72V681.807L1238.56 758.779V1134H1380.99V731.735L1370.2 721.334V327.112L1385.31 312.55V268.863H1338.91V241.819H1328.12Z" fill="url(#paint38_linear_349_252)"/>
<path d="M1355 289V1134M1350.06 346.363V1134M1333.53 399.313V1134M1339.1 357.394V1134M1322 399.313V1134M1344.58 399.313V1134M1327.96 399.313V1134" stroke="url(#paint39_linear_349_252)" stroke-width="3"/>
<rect width="41.6982" height="9.26968" transform="matrix(-1 0 0 1 1333.19 284.741)" fill="#15F4F5"/>
<rect width="41.6982" height="9.26968" transform="matrix(-1 0 0 1 1333.19 299.418)" fill="#15F4F5"/>
<rect width="41.6982" height="9.26968" transform="matrix(-1 0 0 1 1333.19 314.095)" fill="#15F4F5"/>
<path d="M1246.96 468.663V486.517H1229.75V405.809H1232.02V440.06L1238.64 446.436V460.647L1246.96 468.663Z" fill="url(#paint40_linear_349_252)"/>
<path d="M1218.21 480.505L1238.26 466.477L1244.5 946.348H1187.77L1187.76 805.845V797.562V786.76V581.072L1211.03 564.311V492.711L1218.21 486.881V480.505Z" fill="url(#paint41_linear_349_252)"/>
<path d="M1213.3 798.602L1209.52 799.877V702.954L1226.73 686.375V541.355L1221.81 535.889V492.165L1225.78 496.355V531.881L1229.75 537.711V688.379L1213.3 705.504V798.602Z" fill="url(#paint42_linear_349_252)"/>
<path d="M1238.07 466.112V947.575H1282.9V688.015L1265.12 644.473V480.505L1238.07 466.112Z" fill="url(#paint43_linear_349_252)"/>
<path d="M1226.92 541.355L1221.62 535.343V492.165L1200.63 512.387V554.837L1196.09 559.391V649.209L1182.28 662.509V786.395L1199.68 799.877H1209.7V704.229L1226.92 686.739V541.355Z" fill="url(#paint44_linear_349_252)"/>
<path d="M1184.17 578.886L1190.04 574.695V650.485L1184.17 655.768V578.886Z" fill="url(#paint45_linear_349_252)"/>
<path d="M1217.65 695.12V495.809L1205.54 507.833V606.578L1211.03 614.047V684.189L1205.17 690.019V735.383L1209.33 743.217V704.23L1217.65 695.12Z" fill="url(#paint46_linear_349_252)"/>
<path d="M1290.65 577.793L1282.9 568.865V538.258L1269.09 521.133V496.72L1246.39 481.234V526.598L1252.64 534.25V677.084L1277.41 704.594V744.857L1290.65 735.384V577.793Z" fill="url(#paint47_linear_349_252)"/>
<rect width="4.53897" height="10.2024" transform="matrix(-1 0 0 1 1248.47 706.051)" fill="#15F4F5"/>
<rect width="4.53897" height="10.2024" transform="matrix(-1 0 0 1 1248.47 718.804)" fill="#15F4F5"/>
<rect width="4.53897" height="10.2024" transform="matrix(-1 0 0 1 1256.04 718.804)" fill="#15F4F5"/>
<rect width="1.89124" height="4.00809" transform="matrix(-1 0 0 1 1271.17 748.683)" fill="#15F4F5"/>
<rect width="1.89124" height="3.64372" transform="matrix(-1 0 0 1 1271.17 753.784)" fill="#15F4F5"/>
<rect width="1.51299" height="3.64372" transform="matrix(-1 0 0 1 1273.82 753.784)" fill="#15F4F5"/>
<rect width="1.89124" height="4.00809" transform="matrix(-1 0 0 1 1265.5 751.233)" fill="#15F4F5"/>
<rect width="1.89124" height="3.64372" transform="matrix(-1 0 0 1 1265.5 756.335)" fill="#15F4F5"/>
<rect width="1.51299" height="3.64372" transform="matrix(-1 0 0 1 1268.14 756.335)" fill="#15F4F5"/>
<rect width="1.89124" height="4.00809" transform="matrix(-1 0 0 1 1271.17 758.521)" fill="#15F4F5"/>
<rect width="1.89124" height="3.64372" transform="matrix(-1 0 0 1 1271.17 763.622)" fill="#15F4F5"/>
<rect width="1.51299" height="3.64372" transform="matrix(-1 0 0 1 1273.82 763.622)" fill="#15F4F5"/>
<rect width="6.43021" height="1.45749" transform="matrix(-1 0 0 1 1249.23 726.092)" fill="#D66CE5"/>
<path d="M1256.04 538.258L1256.04 681.82M1267.77 552.286L1267.77 695.849M1260.73 547.549L1260.73 691.112M1263.08 548.825L1263.08 692.387M1265.42 552.286L1265.42 695.849M1258.39 540.626L1258.39 684.189" stroke="url(#paint48_linear_349_252)" stroke-width="3"/>
<path d="M1273.63 741.213L1277.79 745.039V705.687L1252.45 676.902V534.25L1246.39 527.327V481.416L1241.86 486.517V528.238L1246.39 535.161V676.902L1273.63 705.687V741.213Z" fill="url(#paint49_linear_349_252)"/>
<path d="M1191.4 753.079V1134H1265.81V765.966L1191.4 753.079Z" fill="url(#paint50_linear_349_252)"/>
<path d="M1190.54 851.569L1256.4 862.615M1190.54 857.092L1256.4 868.138M1190.54 862.615L1256.4 873.661M1190.54 868.138L1256.4 879.183M1190.54 873.661L1256.4 884.706M1190.54 901.275L1256.4 912.32M1190.54 884.706L1256.4 895.752M1190.54 890.229L1256.4 901.275M1190.54 895.752L1256.4 906.797M1190.54 879.183L1256.4 890.229M1190.54 906.797L1256.4 917.843M1190.54 912.32L1256.4 923.366M1190.54 923.366L1256.4 934.412M1190.54 928.889L1256.4 939.934M1190.54 934.412L1256.4 945.457M1190.54 939.934L1256.4 950.98M1190.54 945.457L1256.4 956.503M1190.54 950.98L1256.4 962.026M1190.54 956.503L1256.4 967.548M1190.54 962.026L1256.4 973.071M1190.54 989.64L1256.4 1000.69M1190.54 973.071L1256.4 984.117M1190.54 978.594L1256.4 989.64M1190.54 984.117L1256.4 995.162M1190.54 967.548L1256.4 978.594M1190.54 917.843L1256.4 928.889M1190.54 757.682L1256.4 768.727M1190.54 763.204L1256.4 774.25M1190.54 768.727L1256.4 779.773M1190.54 774.25L1256.4 785.296M1190.54 779.773L1256.4 790.818" stroke="#15F4F5" stroke-width="3"/>
<path d="M1192.25 993.781V753.079L1176 756.41V993.781H1192.25Z" fill="url(#paint51_linear_349_252)"/>
<path d="M1451.06 507.445L1498.22 517.683V998.927L1451.06 988.689V507.445Z" fill="url(#paint52_linear_349_252)"/>
<path d="M1451.07 472.838L1411.77 484.229V999.659L1451.07 988.267V472.838Z" fill="url(#paint53_linear_349_252)"/>
<path d="M1453.31 523.976L1505.51 534.203V483.065L1453.31 472.838V523.976Z" fill="url(#paint54_linear_349_252)" stroke="url(#paint55_linear_349_252)" stroke-width="4"/>
<path d="M1451.07 632.354L1411.77 638.662M1451.07 638.662L1411.77 644.971M1451.07 644.971L1411.77 651.279M1451.07 657.588L1411.77 663.896M1451.07 663.896L1411.77 670.205M1451.07 670.205L1411.77 676.514M1451.07 676.514L1411.77 682.822M1451.07 733.29L1411.77 739.599M1451.07 726.982L1411.77 733.29M1451.07 651.279L1411.77 657.588M1451.07 739.599L1411.77 745.907M1451.07 745.907L1411.77 752.216M1451.07 758.524L1411.77 764.833M1451.07 764.833L1411.77 771.141M1451.07 771.141L1411.77 777.45M1451.07 777.45L1411.77 783.759M1451.07 783.759L1411.77 790.067M1451.07 790.067L1411.77 796.376M1451.07 796.376L1411.77 802.684M1451.07 802.684L1411.77 808.993M1451.07 834.227L1411.77 840.535M1451.07 815.301L1411.77 821.61M1451.07 821.61L1411.77 827.918M1451.07 827.918L1411.77 834.227M1451.07 808.993L1411.77 815.301M1451.07 752.216L1411.77 758.524M1451.07 613.428L1411.77 619.737M1451.07 619.737L1411.77 626.045M1451.07 626.045L1411.77 632.354" stroke="#D66CE5"/>
<path fill-rule="evenodd" clip-rule="evenodd" d="M1460.61 534.481L1512.81 544.709V715.146L1498.22 723.737V757.263L1512.81 765.854L1512.81 1133.5H1460.61V599.369H1475.76V570.71L1460.61 562.552V534.481Z" fill="url(#paint56_linear_349_252)"/>
<path d="M1503.27 618.835V709.678M1496.53 633.435V709.678M1489.8 643.168V709.678" stroke="#15F4F5" stroke-width="3"/>
<path d="M1429.78 390.463H1414.26L1404.55 308.59V1132H1460.84V630.39L1429.78 615.614V390.463Z" fill="url(#paint57_linear_349_252)"/>
<path d="M1380.12 556.755L1404.56 308.301V1135.5H1351.1V623.984H1340.4V568.447L1380.12 556.755Z" fill="url(#paint58_linear_349_252)"/>
<path d="M1389.03 610.407V569.669L1352.73 579.059V611.378L1389.03 610.407Z" fill="#15F4F5" stroke="url(#paint59_linear_349_252)" stroke-width="7"/>
<path d="M1391.33 548.154L1380.5 551.63L1381.3 544.678L1391.33 541.202V548.154Z" fill="#15F4F5"/>
<path d="M1391.33 533.477L1382.1 536.953L1382.91 529.229L1391.33 525.752V533.477Z" fill="#15F4F5"/>
<rect width="4.00945" height="13.132" transform="matrix(-1 0 0 1 1415.78 628.105)" fill="#15F4F5"/>
<rect width="4.00945" height="13.132" transform="matrix(-1 0 0 1 1415.78 645.872)" fill="#15F4F5"/>
<rect width="4.00945" height="13.132" transform="matrix(-1 0 0 1 1423 645.872)" fill="#15F4F5"/>
<rect x="244.752" y="640.327" width="107.452" height="284.833" fill="url(#paint60_linear_349_252)"/>
<path d="M264.161 661.441H271.615H280.569H289.524H298.478H307.432H316.387H325.341H332.795V690.642V721.343V752.043V782.744V813.444V844.145V874.846V904.046H325.341H316.387H307.432H298.478H289.524H280.569H271.615H264.161V874.846V844.145V813.444V782.744V752.043V721.343V690.642V661.441Z" fill="url(#paint61_linear_349_252)" stroke="url(#paint62_linear_349_252)" stroke-width="3"/>
<path d="M1493.19 1009.12L1503.31 705.973L1522.51 644.838L1531.41 819.027L1521.8 1009.12H1493.19Z" fill="url(#paint63_linear_349_252)" stroke="#15F4F5" stroke-width="6"/>
<path d="M1575.87 1079.98V921.213L1597.64 928.256V1089.59L1575.87 1079.98Z" fill="url(#paint64_linear_349_252)"/>
<path d="M1572.03 1145.92V768.205L1531.7 756.041V692.021H1525.3V844.389H1504.81V905.208H1492.65V1038.37H1504.81V1145.92H1572.03Z" fill="url(#paint65_linear_349_252)"/>
<path d="M1566.4 911.981V893.219H1557.44V911.981H1566.4Z" fill="#15F4F5"/>
<path d="M1551.47 906.437V883.838H1543.8V906.437H1551.47Z" fill="#15F4F5"/>
<path d="M1557.44 885.544V889.808H1566.4V885.544H1557.44Z" fill="#15F4F5"/>
<path d="M1476 1003.8V953.223L1576.51 935.938V996.117L1476 1003.8Z" fill="url(#paint66_linear_349_252)"/>
<path d="M1575.87 1080.62V995.477L1518.25 1000.6V1085.75L1575.87 1080.62Z" fill="url(#paint67_linear_349_252)"/>
<path d="M1542.52 762.747L1550.84 757.625L1581.32 797.706L1542.52 790.916V762.747Z" fill="#3C2C9E"/>
<path d="M1477.28 818.781L1488.8 814.939V855.912L1477.28 859.754V818.781Z" fill="#36176B"/>
<path d="M1559.23 869.997L1572.03 864.876L1489.44 854.632L1476.64 860.394L1559.23 869.997Z" fill="#500C9F"/>
<path d="M1576.51 1079.98L1518.25 1084.47L1548.98 1091.51L1597.64 1088.95L1576.51 1079.98Z" fill="#2C1469"/>
<path d="M1476 937.859V955.144L1576.51 937.859V920.573L1476 937.859Z" fill="#15F4F5"/>
<path d="M1541.94 989.715V969.869L1572.67 964.747V987.154L1541.94 989.715Z" fill="#15F4F5"/>
<path d="M1523.38 1040.29V1011.48L1561.79 1007.64V1037.73L1523.38 1040.29Z" fill="#15F4F5"/>
<path d="M1488.16 855.272V814.94L1572.67 830.304V864.875L1488.16 855.272Z" fill="#15F4F5"/>
<path d="M1551.9 785.767V757.598L1580.71 768.482V796.651L1551.9 785.767Z" fill="#15F4F5"/>
<path d="M1476 937.859V955.144L1576.51 937.859V920.573L1476 937.859Z" stroke="#74FEFF" stroke-width="2"/>
<path d="M1541.94 989.715V969.869L1572.67 964.747V987.154L1541.94 989.715Z" stroke="#74FEFF" stroke-width="2"/>
<path d="M1523.38 1040.29V1011.48L1561.79 1007.64V1037.73L1523.38 1040.29Z" stroke="#74FEFF" stroke-width="2"/>
<path d="M1488.16 855.272V814.94L1572.67 830.304V864.875L1488.16 855.272Z" stroke="#74FEFF" stroke-width="2"/>
<path d="M1551.9 785.767V757.598L1580.71 768.482V796.651L1551.9 785.767Z" stroke="#74FEFF" stroke-width="2"/>
<path d="M204.287 355.321L209.442 317L232.467 347.274V374.99L259.33 396.31V425.101L279.396 433.406V629.769H270.893V806.61H279.396V841.059L336.082 926.035V1167.91H163.19V449.483L143.35 433.406V385.177H204.287V355.321Z" fill="url(#paint68_linear_349_252)"/>
<rect x="246.539" y="524.656" width="6.82236" height="47.7565" fill="#15F4F5"/>
<rect x="246.539" y="577.529" width="6.82236" height="47.7565" fill="#15F4F5"/>
<path d="M188.818 355.321V317.426H210.621V355.321H218.653L226.686 363.359V394.364H238.161V629.769H231.276V806.61L284.061 926.035L279.471 1170.91H128L144.065 884.695V449.483L128 433.406V385.177H177.343V355.321H188.818Z" fill="url(#paint69_linear_349_252)"/>
<path d="M188.818 355.321V317.426H210.621V355.321H218.653L226.686 363.359V394.364H238.161V629.769H231.276V806.61L284.061 926.035L279.471 1170.91H128L144.065 884.695V449.483L128 433.406V385.177H177.343V355.321H188.818Z" fill="url(#paint70_linear_349_252)"/>
<path d="M160.406 407.907V1181.91M165.64 460.45V1181.91M183.177 508.952V1181.91M177.273 470.555V1181.91M195.406 508.952V1181.91M171.457 508.952V1181.91M189.08 508.952V1181.91" stroke="url(#paint71_linear_349_252)" stroke-width="3"/>
<rect x="183.432" y="402.706" width="44.3453" height="10.2335" fill="#15F4F5"/>
<rect x="183.432" y="418.909" width="44.3453" height="10.2335" fill="#15F4F5"/>
<rect x="183.432" y="435.112" width="44.3453" height="10.2335" fill="#15F4F5"/>
<path d="M1160.26 594.671L1155.74 571.251L1135.55 589.753V606.691L1111.99 619.721V637.316L1094.39 642.392V762.398H1101.85V870.474H1094.39V891.527L1044.67 943.46V1135H1208.74V925.213L1196.31 918.195V652.217L1213.71 642.392V612.917H1160.26V594.671Z" fill="url(#paint72_linear_349_252)"/>
<rect width="5.98354" height="29.1862" transform="matrix(-1 0 0 1 1123.21 698.159)" fill="#15F4F5"/>
<rect width="5.98354" height="29.1862" transform="matrix(-1 0 0 1 1123.21 730.472)" fill="#15F4F5"/>
<path d="M1173.83 594.671V571.512H1154.71V594.671H1147.66L1140.62 599.583V618.532H1130.56V762.398H1136.59V870.474H1130.56V891.527L1090.3 943.46V1134H1223.15V925.213L1213.08 918.195V652.217L1227.17 642.392V612.917H1183.9V594.671H1173.83Z" fill="url(#paint73_linear_349_252)"/>
<path d="M1173.83 594.671V571.512H1154.71V594.671H1147.66L1140.62 599.583V618.532H1130.56V762.398H1136.59V870.474H1130.56V891.527L1090.3 943.46V1134H1223.15V925.213L1213.08 918.195V652.217L1227.17 642.392V612.917H1183.9V594.671H1173.83Z" fill="url(#paint74_linear_349_252)"/>
<path d="M1199 627V1134M1194.36 661.418V1134M1178.83 693.188V1134M1184.06 668.037V1134M1168 693.188V1134M1189.21 693.188V1134M1173.6 693.188V1134" stroke="url(#paint75_linear_349_252)" stroke-width="3"/>
<rect width="38.893" height="6.25418" transform="matrix(-1 0 0 1 1178.56 623.63)" fill="#15F4F5"/>
<rect width="38.893" height="6.25418" transform="matrix(-1 0 0 1 1178.56 633.532)" fill="#15F4F5"/>
<rect width="38.893" height="6.25418" transform="matrix(-1 0 0 1 1178.56 643.435)" fill="#15F4F5"/>
<path d="M454.393 706.845V1129L354.762 1150.11V724.757L454.393 706.845Z" fill="url(#paint76_linear_349_252)"/>
<path d="M455.539 843.74L367.36 859.092M455.539 851.416L367.36 866.769M455.539 859.092L367.36 874.445M455.539 866.769L367.36 882.121M455.539 874.445L367.36 889.797M455.539 912.826L367.36 928.179M455.539 889.797L367.36 905.15M455.539 897.474L367.36 912.826M455.539 905.15L367.36 920.503M455.539 882.121L367.36 897.474M455.539 920.503L367.36 935.855M455.539 928.179L367.36 943.532M455.539 943.532L367.36 958.884M455.539 951.208L367.36 966.561M455.539 958.884L367.36 974.237M455.539 966.561L367.36 981.913M455.539 974.237L367.36 989.59M455.539 981.913L367.36 997.266M455.539 989.59L367.36 1004.94M455.539 997.266L367.36 1012.62M455.539 1035.65L367.36 1051M455.539 1012.62L367.36 1027.97M455.539 1020.29L367.36 1035.65M455.539 1027.97L367.36 1043.32M455.539 1004.94L367.36 1020.29M455.539 935.855L367.36 951.208M455.539 713.242L367.36 728.595M455.539 720.919L367.36 736.271M455.539 728.595L367.36 743.947M455.539 736.271L367.36 751.624M455.539 743.947L367.36 759.3" stroke="#15F4F5" stroke-width="3"/>
<path d="M453.248 1132V706.845L475.007 711.475V1132H453.248Z" fill="url(#paint77_linear_349_252)"/>
<path d="M562.845 1128.04V252.519V123.534H567.393V226.935L572.851 234.397V257.849L592.863 272.773V299.423L631.068 331.402V1135.5L562.845 1128.04Z" fill="url(#paint78_linear_349_252)"/>
<path d="M578.277 321.046V794.347M584.83 321.046V794.347M611.044 321.046V794.347M597.937 321.046V794.347M591.384 321.046V794.347M604.49 321.046V794.347" stroke="url(#paint79_linear_349_252)" stroke-width="3"/>
<path d="M536 390H588V1135H536V390Z" fill="#EA6ED0"/>
<path d="M601.942 400.233L587.379 390.221V794.347H601.942V400.233Z" fill="#6022C1"/>
<path d="M545.51 453.934V792.526M552.063 453.934V792.526M578.277 453.934V792.526M565.17 453.934V792.526M558.617 453.934V792.526M571.723 453.934V792.526" stroke="url(#paint80_linear_349_252)" stroke-width="3"/>
<path d="M65.6653 625.659L15.521 636.962V1169.3L65.6653 1158V625.659Z" fill="url(#paint81_linear_349_252)"/>
<path d="M65.6652 587.454L107.452 600.03V1168L65.6652 1155.42V587.454Z" fill="url(#paint82_linear_349_252)"/>
<path d="M63.2777 643.909L7.76074 655.2V598.745L63.2777 587.454V643.909Z" fill="url(#paint83_linear_349_252)" stroke="url(#paint84_linear_349_252)" stroke-width="4"/>
<path d="M71 733.893L112.787 740.858M71 713L112.787 719.964M71 719.964L112.787 726.929M71 726.929L112.787 733.893" stroke="#D66CE5"/>
<path fill-rule="evenodd" clip-rule="evenodd" d="M55.5169 655.507L0 666.798V854.957L15.5209 864.442V901.453L0 910.938V1164L55.5169 1152.71V727.142H39.3991V695.503L55.5169 686.496V655.507Z" fill="url(#paint85_linear_349_252)"/>
<path d="M10.1479 748.632V848.921M17.3114 764.75V848.921M24.4749 775.495V848.921" stroke="#15F4F5" stroke-width="3"/>
<path d="M457.228 844.921L467.354 541.772L486.554 480.637L495.455 654.826L485.845 844.921H457.228Z" fill="url(#paint86_linear_349_252)" stroke="#15F4F5" stroke-width="6"/>
<path d="M539.914 915.783V757.012L561.681 764.054V925.386L539.914 915.783Z" fill="url(#paint87_linear_349_252)"/>
<path d="M536.073 1131V604.004L495.74 591.84V527.819H489.338V680.188H468.851V741.007H456.688V874.169H468.851V1131H536.073Z" fill="url(#paint88_linear_349_252)"/>
<path d="M530.438 747.779V729.018H521.484V747.779H530.438Z" fill="#15F4F5"/>
<path d="M515.515 742.236V719.637H507.839V742.236H515.515Z" fill="#15F4F5"/>
<path d="M521.484 721.343V725.607H530.438V721.343H521.484Z" fill="#15F4F5"/>
<path d="M440.042 839.598V789.022L540.554 771.737V831.916L440.042 839.598Z" fill="url(#paint89_linear_349_252)"/>
<path d="M539.914 916.423V831.276L482.295 836.398V921.545L539.914 916.423Z" fill="url(#paint90_linear_349_252)"/>
<path d="M506.56 598.545L514.883 593.424L545.362 633.505L506.56 626.714V598.545Z" fill="#3C2C9E"/>
<path d="M441.322 654.58L452.846 650.738V691.711L441.322 695.553V654.58Z" fill="#36176B"/>
<path d="M523.268 705.796L536.072 700.674L453.486 690.431L440.682 696.193L523.268 705.796Z" fill="#500C9F"/>
<path d="M540.554 915.783L482.295 920.264L513.025 927.306L561.681 924.746L540.554 915.783Z" fill="#2C1469"/>
<path d="M440.042 773.657V790.943L540.554 773.657V756.372L440.042 773.657Z" fill="#15F4F5"/>
<path d="M505.983 825.514V805.668L536.713 800.546V822.953L505.983 825.514Z" fill="#15F4F5"/>
<path d="M487.417 876.09V847.281L525.829 843.44V873.529L487.417 876.09Z" fill="#15F4F5"/>
<path d="M452.206 691.071V650.738L536.713 666.103V700.674L452.206 691.071Z" fill="#15F4F5"/>
<path d="M515.941 621.566V593.397L544.75 604.28V632.449L515.941 621.566Z" fill="#15F4F5"/>
<path d="M440.042 773.657V790.943L540.554 773.657V756.372L440.042 773.657Z" stroke="#74FEFF" stroke-width="2"/>
<path d="M505.983 825.514V805.668L536.713 800.546V822.953L505.983 825.514Z" stroke="#74FEFF" stroke-width="2"/>
<path d="M487.417 876.09V847.281L525.829 843.44V873.529L487.417 876.09Z" stroke="#74FEFF" stroke-width="2"/>
<path d="M452.206 691.071V650.738L536.713 666.103V700.674L452.206 691.071Z" stroke="#74FEFF" stroke-width="2"/>
<path d="M515.941 621.566V593.397L544.75 604.28V632.449L515.941 621.566Z" stroke="#74FEFF" stroke-width="2"/>
<path d="M905.099 578L957.828 592.006V666.98L929.816 701.583V1139.5H869.672V692.52L905.099 652.15V578Z" fill="url(#paint91_linear_349_252)"/>
<path d="M812 704.055V1138H869.672V692.52L812 704.055Z" fill="url(#paint92_linear_349_252)"/>
<path d="M904.275 652.974L846.603 664.508V589.534L904.275 578V652.974Z" fill="url(#paint93_linear_349_252)"/>
<path d="M821.887 718.06L830.538 716.413L839.188 714.765L847.839 713.117L856.49 711.469V734.899V758.328V781.757V805.186V828.616V852.045V875.474V898.904V922.333V945.762V969.191V992.621V1016.05V1039.48V1063.32V1086.34H847.839H839.188H830.538H821.887V1063.32V1040.3V1017.29V994.268V971.251V948.234V925.216V902.199V879.182V856.164V833.147V810.13V787.112V764.095V741.078V718.06Z" fill="#6625C9"/>
<path d="M866.377 595.095L876.263 593.242L886.15 591.388L896.036 589.534V602.716V615.899V629.081V642.263L886.15 644.529L876.263 646.794L866.377 649.06L856.49 651.326V637.732V624.137V610.543V596.949L866.377 595.095Z" fill="#6625C9"/>
<path d="M839.188 714.765V1086.34M839.188 714.765L830.538 716.413M839.188 714.765L847.839 713.117M839.188 1086.34H830.538M839.188 1086.34H847.839M830.538 716.413L821.887 718.06V741.078M830.538 716.413V1086.34M830.538 1086.34H821.887V1063.32M847.839 713.117L856.49 711.469V734.899M847.839 713.117V783.096M847.839 1086.34H856.49V1063.32M847.839 1086.34V806.422M821.887 902.199L856.49 898.904M821.887 902.199V879.182M821.887 902.199V925.216M856.49 898.904V875.474M856.49 898.904V922.333M821.887 810.13V787.112M821.887 810.13V833.147M821.887 810.13L847.839 806.422M856.49 805.186V781.757M856.49 805.186V828.616M856.49 805.186L847.839 806.422M821.887 764.095L856.49 758.328M821.887 764.095V741.078M821.887 764.095V787.112M856.49 758.328V734.899M856.49 758.328V781.757M821.887 741.078L856.49 734.899M821.887 787.112L847.839 783.096M856.49 781.757L847.839 783.096M821.887 856.164L856.49 852.045M821.887 856.164V833.147M821.887 856.164V879.182M856.49 852.045V828.616M856.49 852.045V875.474M821.887 833.147L856.49 828.616M821.887 879.182L856.49 875.474M821.887 994.268L856.49 992.621M821.887 994.268V971.251M821.887 994.268V1017.29M856.49 992.621V969.191M856.49 992.621V1016.05M821.887 948.234L856.49 945.762M821.887 948.234V925.216M821.887 948.234V971.251M856.49 945.762V922.333M856.49 945.762V969.191M821.887 925.216L856.49 922.333M821.887 971.251L856.49 969.191M821.887 1040.3L856.49 1039.48M821.887 1040.3V1017.29M821.887 1040.3V1063.32M856.49 1039.48V1016.05M856.49 1039.48V1063.32M821.887 1017.29L856.49 1016.05M821.887 1063.32H856.49M856.49 624.137L896.036 615.899M856.49 624.137V610.543M856.49 624.137V637.732M896.036 615.899V602.716M896.036 615.899V629.081M876.263 593.242V646.794M876.263 593.242L866.377 595.095M876.263 593.242L886.15 591.388M876.263 646.794L866.377 649.06M876.263 646.794L886.15 644.529M866.377 595.095L856.49 596.949V610.543M866.377 595.095V649.06M866.377 649.06L856.49 651.326V637.732M886.15 591.388L896.036 589.534V602.716M886.15 591.388V644.529M886.15 644.529L896.036 642.263V629.081M856.49 610.543L896.036 602.716M856.49 637.732L896.036 629.081M847.839 783.096V806.422" stroke="#5CD2FE" stroke-width="3"/>
<path d="M838.01 830.001V809.107L831.614 809.96V831.28L838.01 830.001Z" fill="#15F4F5"/>
<path d="M855.493 803.991V783.097L849.097 783.95V805.27L855.493 803.991Z" fill="#15F4F5"/>
<path d="M855.493 874.346V853.026L849.097 853.879V875.199L855.493 874.346Z" fill="#15F4F5"/>
<path d="M869.672 692.52L812 704.055L846.603 664.508L904.275 652.974L869.672 692.52Z" fill="#D66CE5"/>
<path d="M915.81 587.887L957.004 599.421M897.684 661.213L950.413 676.043M915.81 622.49L957.004 634.024M915.81 604.364L957.004 615.899M915.81 638.144L957.004 649.678M915.81 652.974L957.004 664.508M872.968 710.646L930.64 727.124M886.15 676.043L939.703 690.049M872.968 693.344L930.64 709.822M870.496 727.124L928.168 743.601M870.496 778.204L928.168 794.682M870.496 743.601L928.168 760.079M870.496 760.903L928.168 777.381M870.496 794.682L928.168 811.16M870.496 811.16L928.168 827.638M870.496 828.462L928.168 844.939M870.496 862.241L928.168 878.719M870.496 913.322L928.168 929.8M870.496 878.719L928.168 895.196M870.496 896.02L928.168 912.498M870.496 845.763L928.168 862.241M870.496 929.8L928.168 946.277M870.496 946.277L928.168 962.755M870.496 963.579L928.168 980.057M870.496 997.358L928.168 1013.84M870.496 1048.44L928.168 1064.92M870.496 1013.84L928.168 1030.31M870.496 1031.14L928.168 1047.62M870.496 980.881L928.168 997.358M870.496 1064.92L928.168 1081.39" stroke="#15F4F5" stroke-width="3"/>
<path d="M930.765 682.114L930.765 1138H994.359L994.359 700.026L930.765 682.114Z" fill="url(#paint94_linear_349_252)"/>
<path d="M930.034 819.009L986.318 834.361M930.034 826.685L986.318 842.038M930.034 834.361L986.318 849.714M930.034 842.038L986.318 857.39M930.034 849.714L986.318 865.067M930.034 888.095L986.318 903.448M930.034 865.067L986.318 880.419M930.034 872.743L986.318 888.095M930.034 880.419L986.318 895.772M930.034 857.39L986.318 872.743M930.034 895.772L986.318 911.124M930.034 903.448L986.318 918.801M930.034 918.801L986.318 934.153M930.034 926.477L986.318 941.83M930.034 934.153L986.318 949.506M930.034 941.83L986.318 957.182M930.034 949.506L986.318 964.859M930.034 957.182L986.318 972.535M930.034 964.859L986.318 980.211M930.034 972.535L986.318 987.888M930.034 1010.92L986.318 1026.27M930.034 987.888L986.318 1003.24M930.034 995.564L986.318 1010.92M930.034 1003.24L986.318 1018.59M930.034 980.211L986.318 995.564M930.034 911.124L986.318 926.477M930.034 688.511L986.318 703.864M930.034 696.188L986.318 711.54M930.034 703.864L986.318 719.217M930.034 711.54L986.318 726.893M930.034 719.217L986.318 734.569" stroke="#15F4F5" stroke-width="3"/>
<path d="M931.496 1139L931.496 682.114L917.607 686.744V1139H931.496Z" fill="url(#paint95_linear_349_252)"/>
<path d="M1073.75 657.719H1027.42V1135.5H1073.75V657.719Z" fill="url(#paint96_linear_349_252)"/>
<path d="M1027.42 657.719H981.088V1135.5H1027.42V657.719Z" fill="url(#paint97_linear_349_252)"/>
<path d="M1027.42 790.753L1083.51 806.775V726.668L1027.42 710.647V790.753Z" fill="url(#paint98_linear_349_252)"/>
<path d="M1027.42 692.924L1083.51 708.945V628.839L1027.42 612.817V692.924Z" fill="url(#paint99_linear_349_252)"/>
<path d="M1027.42 987.631L1083.51 1003.65V923.546L1027.42 907.525V987.631Z" fill="url(#paint100_linear_349_252)"/>
<path d="M1027.42 889.802L1083.51 905.823V825.717L1027.42 809.695V889.802Z" fill="url(#paint101_linear_349_252)"/>
<path d="M1073.86 787.997V739.934L1037.67 729.597V777.661L1073.86 787.997Z" fill="url(#paint102_linear_349_252)"/>
<path d="M1073.86 690.168V642.104L1037.67 631.768V679.831L1073.86 690.168Z" fill="url(#paint103_linear_349_252)"/>
<path d="M1073.86 984.875V936.812L1037.67 926.475V974.539L1073.86 984.875Z" fill="url(#paint104_linear_349_252)"/>
<path d="M1073.86 887.046V838.982L1037.67 828.646V876.71L1073.86 887.046Z" fill="url(#paint105_linear_349_252)"/>
<path d="M1027.42 790.697L971.333 806.77V726.404L1027.42 710.331V790.697Z" fill="url(#paint106_linear_349_252)"/>
<path d="M1027.42 692.551L971.333 708.624V628.258L1027.42 612.185V692.551Z" fill="url(#paint107_linear_349_252)"/>
<path d="M1027.42 988.212L971.333 1004.29V923.92L1027.42 907.846V988.212Z" fill="url(#paint108_linear_349_252)"/>
<path d="M1027.42 890.066L971.333 906.139V825.773L1027.42 809.7V890.066Z" fill="url(#paint109_linear_349_252)"/>
<path d="M981.087 787.851V739.645L999.376 734.461L1008.52 731.869L1013.09 730.573L1017.67 729.278V777.484L1013.09 778.78L1008.52 780.076L999.376 782.667L981.087 787.851Z" fill="url(#paint110_linear_349_252)"/>
<path d="M981.087 641.525L1017.67 631.158V643.209V655.261V667.313V679.364L981.087 689.731V677.68V665.628V653.576V641.525Z" fill="url(#paint111_linear_349_252)"/>
<path d="M981.087 985.313V937.106L990.232 934.515L999.376 931.923L1008.52 929.331L1017.67 926.739V974.946L1008.52 977.538L999.376 980.129L990.232 982.721L981.087 985.313Z" fill="url(#paint112_linear_349_252)"/>
<path d="M1017.67 828.62V852.723V876.826L1008.52 879.418L999.376 882.01L990.232 884.601L981.087 887.193V863.09V838.987L990.232 836.395L999.376 833.803L1008.52 831.211L1017.67 828.62Z" fill="url(#paint113_linear_349_252)"/>
<path d="M1017.67 655.261L981.087 665.628M1017.67 655.261V643.209M1017.67 655.261V667.313M981.087 665.628V653.576M981.087 665.628V677.68M1017.67 643.209V631.158L981.087 641.525V653.576M1017.67 643.209L981.087 653.576M1017.67 667.313V679.364L981.087 689.731V677.68M1017.67 667.313L981.087 677.68M999.376 734.461L981.087 739.645V787.851L999.376 782.667M999.376 734.461V782.667M999.376 734.461L1008.52 731.869M999.376 782.667L1008.52 780.076M1008.52 731.869V780.076M1008.52 731.869L1013.09 730.573M1008.52 780.076L1013.09 778.78M1013.09 730.573L1017.67 729.278V777.484L1013.09 778.78M1013.09 730.573V778.78M1017.67 852.723V828.62L1008.52 831.211M1017.67 852.723V876.826L1008.52 879.418M1017.67 852.723L981.087 863.09M981.087 863.09V838.987L990.232 836.395M981.087 863.09V887.193L990.232 884.601M999.376 833.803V882.01M999.376 833.803L990.232 836.395M999.376 833.803L1008.52 831.211M999.376 882.01L990.232 884.601M999.376 882.01L1008.52 879.418M990.232 836.395V884.601M1008.52 831.211V879.418M999.376 931.923V980.129M999.376 931.923L1008.52 929.331M999.376 931.923L990.232 934.515M999.376 980.129L1008.52 977.538M999.376 980.129L990.232 982.721M1008.52 929.331L1017.67 926.739V974.946L1008.52 977.538M1008.52 929.331V977.538M990.232 934.515L981.087 937.106V985.313L990.232 982.721M990.232 934.515V982.721" stroke="#6E3FE7" stroke-width="3"/>
<path d="M94.4836 496.177H107.187L115.127 405.809V1154.5H69.0762V760.998L94.4836 744.689V496.177Z" fill="url(#paint114_linear_349_252)"/>
<path d="M141.117 680.097L115.127 405.809V1159.5H171.98V754.316H183.351V693.004L141.117 680.097Z" fill="url(#paint115_linear_349_252)"/>
<path d="M131.419 739.685V693.927L170.47 704.412V740.769L131.419 739.685Z" fill="#15F4F5" stroke="url(#paint116_linear_349_252)" stroke-width="7"/>
<path d="M129.198 670.601L140.711 674.439L139.858 666.764L129.198 662.926V670.601Z" fill="#15F4F5"/>
<path d="M129.198 654.398L139.005 658.236L138.153 649.708L129.198 645.87V654.398Z" fill="#15F4F5"/>
<rect x="103.188" y="758.866" width="4.26397" height="14.4975" fill="#15F4F5"/>
<rect x="103.188" y="778.48" width="4.26397" height="14.4975" fill="#15F4F5"/>
<rect x="95.5127" y="778.48" width="4.26397" height="14.4975" fill="#15F4F5"/>
<path d="M591.833 730.748H643.289V1139.5H591.833V730.748Z" fill="url(#paint117_linear_349_252)"/>
<path d="M643.289 730.748H694.745V1139.5H643.289V730.748Z" fill="url(#paint118_linear_349_252)"/>
<path d="M643.289 873.171L581 890.323V804.563L643.289 787.411V873.171Z" fill="url(#paint119_linear_349_252)"/>
<path d="M643.289 768.437L581 785.589V699.829L643.289 682.677V768.437Z" fill="url(#paint120_linear_349_252)"/>
<path d="M643.289 1083.94L581 1101.09V1015.34L643.289 998.183V1083.94Z" fill="url(#paint121_linear_349_252)"/>
<path d="M643.289 979.209L581 996.361V910.601L643.289 893.449V979.209Z" fill="url(#paint122_linear_349_252)"/>
<path d="M591.717 870.22V818.764L631.903 807.698V859.154L591.717 870.22Z" fill="url(#paint123_linear_349_252)"/>
<path d="M591.717 765.486V714.03L631.903 702.964V754.42L591.717 765.486Z" fill="url(#paint124_linear_349_252)"/>
<path d="M591.717 1080.99V1029.54L631.903 1018.47V1069.93L591.717 1080.99Z" fill="url(#paint125_linear_349_252)"/>
<path d="M591.717 976.258V924.802L631.903 913.737V965.192L591.717 976.258Z" fill="url(#paint126_linear_349_252)"/>
<path d="M643.289 873.11L705.578 890.317V804.28L643.289 787.073V873.11Z" fill="url(#paint127_linear_349_252)"/>
<path d="M643.289 768.037L705.578 785.245V699.207L643.289 682V768.037Z" fill="url(#paint128_linear_349_252)"/>
<path d="M643.289 1084.56L705.578 1101.77V1015.73L643.289 998.527V1084.56Z" fill="url(#paint129_linear_349_252)"/>
<path d="M643.289 979.492L705.578 996.699V910.662L643.289 893.454V979.492Z" fill="url(#paint130_linear_349_252)"/>
<path d="M694.745 870.063V818.455L674.433 812.905L664.277 810.131L659.199 808.743L654.122 807.356V858.964L659.199 860.352L664.277 861.739L674.433 864.514L694.745 870.063Z" fill="url(#paint131_linear_349_252)"/>
<path d="M694.745 713.41L654.122 702.312V715.214V728.116V741.018V753.92L694.745 765.019V752.116V739.214V726.312V713.41Z" fill="url(#paint132_linear_349_252)"/>
<path d="M694.745 1081.46V1029.85L684.589 1027.08L674.433 1024.3L664.277 1021.53L654.122 1018.75V1070.36L664.277 1073.14L674.433 1075.91L684.589 1078.69L694.745 1081.46Z" fill="url(#paint133_linear_349_252)"/>
<path d="M654.122 913.709V939.513V965.317L664.277 968.092L674.433 970.867L684.589 973.641L694.745 976.416V950.612V924.807L684.589 922.033L674.433 919.258L664.277 916.483L654.122 913.709Z" fill="url(#paint134_linear_349_252)"/>
<path d="M654.122 728.116L694.745 739.214M654.122 728.116V715.214M654.122 728.116V741.018M694.745 739.214V726.312M694.745 739.214V752.116M654.122 715.214V702.312L694.745 713.41V726.312M654.122 715.214L694.745 726.312M654.122 741.018V753.92L694.745 765.019V752.116M654.122 741.018L694.745 752.116M674.433 812.905L694.745 818.455V870.063L674.433 864.514M674.433 812.905V864.514M674.433 812.905L664.277 810.131M674.433 864.514L664.277 861.739M664.277 810.131V861.739M664.277 810.131L659.199 808.743M664.277 861.739L659.199 860.352M659.199 808.743L654.122 807.356V858.964L659.199 860.352M659.199 808.743V860.352M654.122 939.513V913.709L664.277 916.483M654.122 939.513V965.317L664.277 968.092M654.122 939.513L694.745 950.612M694.745 950.612V924.807L684.589 922.033M694.745 950.612V976.416L684.589 973.641M674.433 919.258V970.867M674.433 919.258L684.589 922.033M674.433 919.258L664.277 916.483M674.433 970.867L684.589 973.641M674.433 970.867L664.277 968.092M684.589 922.033V973.641M664.277 916.483V968.092M674.433 1024.3V1075.91M674.433 1024.3L664.277 1021.53M674.433 1024.3L684.589 1027.08M674.433 1075.91L664.277 1073.14M674.433 1075.91L684.589 1078.69M664.277 1021.53L654.122 1018.75V1070.36L664.277 1073.14M664.277 1021.53V1073.14M684.589 1027.08L694.745 1029.85V1081.46L684.589 1078.69M684.589 1027.08V1078.69" stroke="#6E3FE7" stroke-width="3"/>
<defs>
<linearGradient id="paint0_linear_349_252" x1="1594.02" y1="630.748" x2="1594.02" y2="963.856" gradientUnits="userSpaceOnUse">
<stop stop-color="#FF5FBD"/>
<stop offset="1" stop-color="#6E3FE7"/>
</linearGradient>
<linearGradient id="paint1_linear_349_252" x1="1542.56" y1="630.748" x2="1542.56" y2="963.857" gradientUnits="userSpaceOnUse">
<stop stop-color="#401A7F"/>
<stop offset="1" stop-color="#6E3FE7"/>
</linearGradient>
<linearGradient id="paint2_linear_349_252" x1="1599.43" y1="582.677" x2="1599.43" y2="1001.09" gradientUnits="userSpaceOnUse">
<stop offset="0.520833" stop-color="#9FE2FF"/>
<stop offset="1" stop-color="#E26DD3"/>
</linearGradient>
<linearGradient id="paint3_linear_349_252" x1="1599.43" y1="582.677" x2="1599.43" y2="1001.09" gradientUnits="userSpaceOnUse">
<stop offset="0.520833" stop-color="#9FE2FF"/>
<stop offset="1" stop-color="#E26DD3"/>
</linearGradient>
<linearGradient id="paint4_linear_349_252" x1="1599.43" y1="582.677" x2="1599.43" y2="1001.09" gradientUnits="userSpaceOnUse">
<stop offset="0.520833" stop-color="#9FE2FF"/>
<stop offset="1" stop-color="#E26DD3"/>
</linearGradient>
<linearGradient id="paint5_linear_349_252" x1="1599.43" y1="582.677" x2="1599.43" y2="1001.09" gradientUnits="userSpaceOnUse">
<stop offset="0.520833" stop-color="#9FE2FF"/>
<stop offset="1" stop-color="#E26DD3"/>
</linearGradient>
<linearGradient id="paint6_linear_349_252" x1="1599.77" y1="602.964" x2="1599.77" y2="980.992" gradientUnits="userSpaceOnUse">
<stop stop-color="#FF5FEF"/>
<stop offset="1" stop-color="#6FB7FF"/>
</linearGradient>
<linearGradient id="paint7_linear_349_252" x1="1599.77" y1="602.964" x2="1599.77" y2="980.992" gradientUnits="userSpaceOnUse">
<stop stop-color="#FF5FEF"/>
<stop offset="1" stop-color="#6FB7FF"/>
</linearGradient>
<linearGradient id="paint8_linear_349_252" x1="1599.77" y1="602.964" x2="1599.77" y2="980.992" gradientUnits="userSpaceOnUse">
<stop stop-color="#FF5FEF"/>
<stop offset="1" stop-color="#6FB7FF"/>
</linearGradient>
<linearGradient id="paint9_linear_349_252" x1="1599.77" y1="602.964" x2="1599.77" y2="980.992" gradientUnits="userSpaceOnUse">
<stop stop-color="#FF5FEF"/>
<stop offset="1" stop-color="#6FB7FF"/>
</linearGradient>
<linearGradient id="paint10_linear_349_252" x1="1537.15" y1="582" x2="1537.15" y2="1001.77" gradientUnits="userSpaceOnUse">
<stop stop-color="#6E3FE7"/>
<stop offset="1" stop-color="#766DE2"/>
</linearGradient>
<linearGradient id="paint11_linear_349_252" x1="1537.15" y1="582" x2="1537.15" y2="1001.77" gradientUnits="userSpaceOnUse">
<stop stop-color="#6E3FE7"/>
<stop offset="1" stop-color="#766DE2"/>
</linearGradient>
<linearGradient id="paint12_linear_349_252" x1="1537.15" y1="582" x2="1537.15" y2="1001.77" gradientUnits="userSpaceOnUse">
<stop stop-color="#6E3FE7"/>
<stop offset="1" stop-color="#766DE2"/>
</linearGradient>
<linearGradient id="paint13_linear_349_252" x1="1537.15" y1="582" x2="1537.15" y2="1001.77" gradientUnits="userSpaceOnUse">
<stop stop-color="#6E3FE7"/>
<stop offset="1" stop-color="#766DE2"/>
</linearGradient>
<linearGradient id="paint14_linear_349_252" x1="1537.14" y1="602.312" x2="1537.14" y2="981.46" gradientUnits="userSpaceOnUse">
<stop stop-color="#88DDFE"/>
<stop offset="1" stop-color="#4DA6FF"/>
</linearGradient>
<linearGradient id="paint15_linear_349_252" x1="1537.14" y1="602.312" x2="1537.14" y2="981.46" gradientUnits="userSpaceOnUse">
<stop stop-color="#88DDFE"/>
<stop offset="1" stop-color="#4DA6FF"/>
</linearGradient>
<linearGradient id="paint16_linear_349_252" x1="1537.14" y1="602.312" x2="1537.14" y2="981.46" gradientUnits="userSpaceOnUse">
<stop stop-color="#88DDFE"/>
<stop offset="1" stop-color="#4DA6FF"/>
</linearGradient>
<linearGradient id="paint17_linear_349_252" x1="1537.14" y1="602.312" x2="1537.14" y2="981.46" gradientUnits="userSpaceOnUse">
<stop stop-color="#88DDFE"/>
<stop offset="1" stop-color="#4DA6FF"/>
</linearGradient>
<linearGradient id="paint18_linear_349_252" x1="753.017" y1="387" x2="753.017" y2="499.179" gradientUnits="userSpaceOnUse">
<stop stop-color="#411B99"/>
<stop offset="1" stop-color="#EA6ED0"/>
</linearGradient>
<linearGradient id="paint19_linear_349_252" x1="791.127" y1="471.324" x2="791.127" y2="965.621" gradientUnits="userSpaceOnUse">
<stop stop-color="#4F1F9C"/>
<stop offset="1" stop-color="#8103A0"/>
</linearGradient>
<linearGradient id="paint20_linear_349_252" x1="778.086" y1="507.029" x2="778.086" y2="934.728" gradientUnits="userSpaceOnUse">
<stop stop-color="#EA6FCF"/>
<stop offset="0.552083" stop-color="#3705AA"/>
</linearGradient>
<linearGradient id="paint21_linear_349_252" x1="723.39" y1="470.818" x2="723.39" y2="957.265" gradientUnits="userSpaceOnUse">
<stop stop-color="#6E3FE7"/>
<stop offset="1" stop-color="#F97AE4"/>
</linearGradient>
<linearGradient id="paint22_linear_349_252" x1="798.218" y1="507.029" x2="798.218" y2="934.728" gradientUnits="userSpaceOnUse">
<stop stop-color="#92DFFF"/>
<stop offset="0.515625" stop-color="#2283F3"/>
<stop offset="1" stop-color="#92DFFF"/>
</linearGradient>
<linearGradient id="paint23_linear_349_252" x1="821.641" y1="621.74" x2="821.641" y2="734.426" gradientUnits="userSpaceOnUse">
<stop stop-color="#4ACDFE"/>
<stop offset="1" stop-color="#8DDDFE"/>
</linearGradient>
<linearGradient id="paint24_linear_349_252" x1="789.102" y1="512.094" x2="789.102" y2="855.975" gradientUnits="userSpaceOnUse">
<stop stop-color="#212AB0" stop-opacity="0"/>
<stop offset="0.536458" stop-color="#5921B0"/>
<stop offset="1" stop-color="#212AB0" stop-opacity="0"/>
</linearGradient>
<linearGradient id="paint25_linear_349_252" x1="712.627" y1="491.835" x2="712.627" y2="858.253" gradientUnits="userSpaceOnUse">
<stop offset="0.416667" stop-color="#84DBFF"/>
<stop offset="1" stop-color="#7A41FF"/>
</linearGradient>
<linearGradient id="paint26_linear_349_252" x1="729.847" y1="776.208" x2="729.34" y2="579.705" gradientUnits="userSpaceOnUse">
<stop stop-color="#7FE2F8"/>
<stop offset="0.546875" stop-color="#8B62CD"/>
<stop offset="1" stop-color="#EA6ED0"/>
</linearGradient>
<linearGradient id="paint27_linear_349_252" x1="724.276" y1="492.089" x2="724.276" y2="858.507" gradientUnits="userSpaceOnUse">
<stop stop-color="#740BA0"/>
<stop offset="1" stop-color="#3705AA"/>
</linearGradient>
<linearGradient id="paint28_linear_349_252" x1="378.695" y1="99.8477" x2="378.695" y2="245.875" gradientUnits="userSpaceOnUse">
<stop stop-color="#66FFF6"/>
<stop offset="1" stop-color="#F668E3"/>
</linearGradient>
<linearGradient id="paint29_linear_349_252" x1="405.614" y1="325.763" x2="405.614" y2="967.064" gradientUnits="userSpaceOnUse">
<stop stop-color="#6E26D7"/>
<stop offset="1" stop-color="#7FCEFC"/>
</linearGradient>
<linearGradient id="paint30_linear_349_252" x1="403.238" y1="77.146" x2="403.238" y2="217.038" gradientUnits="userSpaceOnUse">
<stop stop-color="#FF37EC"/>
<stop offset="1" stop-color="#8232F9"/>
</linearGradient>
<linearGradient id="paint31_linear_349_252" x1="354.02" y1="333.438" x2="354.02" y2="987.532" gradientUnits="userSpaceOnUse">
<stop stop-color="#7FC5FA"/>
<stop offset="1" stop-color="#DE58D3"/>
</linearGradient>
<linearGradient id="paint32_linear_349_252" x1="405.691" y1="217.038" x2="405.691" y2="347.112" gradientUnits="userSpaceOnUse">
<stop stop-color="#FF6DE3"/>
<stop offset="1" stop-color="#9D31E0"/>
</linearGradient>
<linearGradient id="paint33_linear_349_252" x1="425.939" y1="217.651" x2="425.939" y2="350.18" gradientUnits="userSpaceOnUse">
<stop stop-color="#9B2EE0"/>
<stop offset="1" stop-color="#486BE0"/>
</linearGradient>
<linearGradient id="paint34_linear_349_252" x1="342.802" y1="231.763" x2="342.802" y2="463.075" gradientUnits="userSpaceOnUse">
<stop stop-color="#9617FF"/>
<stop offset="1" stop-color="#05FFFE"/>
</linearGradient>
<linearGradient id="paint35_linear_349_252" x1="322.861" y1="514.614" x2="322.861" y2="606.648" gradientUnits="userSpaceOnUse">
<stop stop-color="#4BCFFD"/>
<stop offset="1" stop-color="#919AEA"/>
</linearGradient>
<linearGradient id="paint36_linear_349_252" x1="1280.26" y1="207.494" x2="1280.26" y2="837.832" gradientUnits="userSpaceOnUse">
<stop stop-color="#D55FFF"/>
<stop offset="0.864583" stop-color="#4100E9"/>
</linearGradient>
<linearGradient id="paint37_linear_349_252" x1="1311.94" y1="207.494" x2="1311.94" y2="837.832" gradientUnits="userSpaceOnUse">
<stop stop-color="#66FFF6"/>
<stop offset="0.864583" stop-color="#6E3FE7"/>
</linearGradient>
<linearGradient id="paint38_linear_349_252" x1="1311.94" y1="207.494" x2="1311.94" y2="837.832" gradientUnits="userSpaceOnUse">
<stop stop-color="#66FFF6"/>
<stop offset="0.864583" stop-color="#6E3FE7"/>
</linearGradient>
<linearGradient id="paint39_linear_349_252" x1="1338.5" y1="289" x2="1338.5" y2="1134" gradientUnits="userSpaceOnUse">
<stop offset="0.479167" stop-color="#66FFF6"/>
<stop offset="1" stop-color="#FF5FBD"/>
</linearGradient>
<linearGradient id="paint40_linear_349_252" x1="1238.36" y1="405.809" x2="1238.36" y2="486.517" gradientUnits="userSpaceOnUse">
<stop stop-color="#411B99"/>
<stop offset="1" stop-color="#EA6ED0"/>
</linearGradient>
<linearGradient id="paint41_linear_349_252" x1="1209.89" y1="466.477" x2="1209.89" y2="822.104" gradientUnits="userSpaceOnUse">
<stop stop-color="#4F1F9C"/>
<stop offset="1" stop-color="#8103A0"/>
</linearGradient>
<linearGradient id="paint42_linear_349_252" x1="1219.63" y1="492.165" x2="1219.63" y2="799.877" gradientUnits="userSpaceOnUse">
<stop stop-color="#EA6FCF"/>
<stop offset="0.552083" stop-color="#3705AA"/>
</linearGradient>
<linearGradient id="paint43_linear_349_252" x1="1260.48" y1="466.112" x2="1260.48" y2="816.092" gradientUnits="userSpaceOnUse">
<stop stop-color="#6E3FE7"/>
<stop offset="1" stop-color="#F97AE4"/>
</linearGradient>
<linearGradient id="paint44_linear_349_252" x1="1204.6" y1="492.165" x2="1204.6" y2="799.877" gradientUnits="userSpaceOnUse">
<stop stop-color="#92DFFF"/>
<stop offset="0.515625" stop-color="#2283F3"/>
<stop offset="1" stop-color="#92DFFF"/>
</linearGradient>
<linearGradient id="paint45_linear_349_252" x1="1187.1" y1="574.695" x2="1187.1" y2="655.768" gradientUnits="userSpaceOnUse">
<stop stop-color="#4ACDFE"/>
<stop offset="1" stop-color="#8DDDFE"/>
</linearGradient>
<linearGradient id="paint46_linear_349_252" x1="1211.41" y1="495.809" x2="1211.41" y2="743.217" gradientUnits="userSpaceOnUse">
<stop stop-color="#212AB0" stop-opacity="0"/>
<stop offset="0.536458" stop-color="#5921B0"/>
<stop offset="1" stop-color="#212AB0" stop-opacity="0"/>
</linearGradient>
<linearGradient id="paint47_linear_349_252" x1="1268.52" y1="481.234" x2="1268.52" y2="744.857" gradientUnits="userSpaceOnUse">
<stop offset="0.416667" stop-color="#84DBFF"/>
<stop offset="1" stop-color="#7A41FF"/>
</linearGradient>
<linearGradient id="paint48_linear_349_252" x1="1255.66" y1="685.829" x2="1256.01" y2="544.452" gradientUnits="userSpaceOnUse">
<stop stop-color="#7FE2F8"/>
<stop offset="0.546875" stop-color="#8B62CD"/>
<stop offset="1" stop-color="#EA6ED0"/>
</linearGradient>
<linearGradient id="paint49_linear_349_252" x1="1259.82" y1="481.416" x2="1259.82" y2="745.039" gradientUnits="userSpaceOnUse">
<stop stop-color="#740BA0"/>
<stop offset="1" stop-color="#3705AA"/>
</linearGradient>
<linearGradient id="paint50_linear_349_252" x1="1228.6" y1="753.079" x2="1228.6" y2="999.764" gradientUnits="userSpaceOnUse">
<stop stop-color="#FF93F2"/>
<stop offset="1" stop-color="#A130DF"/>
</linearGradient>
<linearGradient id="paint51_linear_349_252" x1="1184.13" y1="753.079" x2="1184.13" y2="993.781" gradientUnits="userSpaceOnUse">
<stop stop-color="#6624CB"/>
<stop offset="1" stop-color="#3B1874"/>
</linearGradient>
<linearGradient id="paint52_linear_349_252" x1="1474.64" y1="507.445" x2="1474.64" y2="886.82" gradientUnits="userSpaceOnUse">
<stop stop-color="#6E3FE7"/>
<stop offset="1" stop-color="#3705AA"/>
</linearGradient>
<linearGradient id="paint53_linear_349_252" x1="1431.42" y1="472.838" x2="1431.42" y2="814.58" gradientUnits="userSpaceOnUse">
<stop stop-color="#66FFF6"/>
<stop offset="1" stop-color="#3705AA"/>
</linearGradient>
<linearGradient id="paint54_linear_349_252" x1="1479.41" y1="472.838" x2="1479.41" y2="534.203" gradientUnits="userSpaceOnUse">
<stop stop-color="#6691FF"/>
<stop offset="1" stop-color="#E95FFF"/>
</linearGradient>
<linearGradient id="paint55_linear_349_252" x1="1479.41" y1="472.838" x2="1479.41" y2="534.203" gradientUnits="userSpaceOnUse">
<stop stop-color="#66FFF6"/>
<stop offset="1" stop-color="#8050ED"/>
</linearGradient>
<linearGradient id="paint56_linear_349_252" x1="1486.71" y1="534.481" x2="1486.71" y2="841.308" gradientUnits="userSpaceOnUse">
<stop stop-color="#A3E9FF"/>
<stop offset="1" stop-color="#F25FFF"/>
</linearGradient>
<linearGradient id="paint57_linear_349_252" x1="1432.7" y1="308.59" x2="1432.7" y2="944.18" gradientUnits="userSpaceOnUse">
<stop stop-color="#6E3FE7"/>
<stop offset="1" stop-color="#3705AA"/>
</linearGradient>
<linearGradient id="paint58_linear_349_252" x1="1372.48" y1="308.301" x2="1372.48" y2="835.901" gradientUnits="userSpaceOnUse">
<stop stop-color="#66FFF6"/>
<stop offset="1" stop-color="#EA6ED0"/>
</linearGradient>
<linearGradient id="paint59_linear_349_252" x1="1370.88" y1="565.148" x2="1370.88" y2="614.973" gradientUnits="userSpaceOnUse">
<stop stop-color="#E164F5"/>
<stop offset="1" stop-color="#6E3FE7"/>
</linearGradient>
<linearGradient id="paint60_linear_349_252" x1="298.478" y1="640.327" x2="298.478" y2="925.161" gradientUnits="userSpaceOnUse">
<stop stop-color="#98DAFF"/>
<stop offset="1" stop-color="#CF3FE7"/>
</linearGradient>
<linearGradient id="paint61_linear_349_252" x1="298.478" y1="659.941" x2="298.478" y2="905.546" gradientUnits="userSpaceOnUse">
<stop stop-color="#982EE3"/>
<stop offset="0.541667" stop-color="#3705AA"/>
</linearGradient>
<linearGradient id="paint62_linear_349_252" x1="298.478" y1="659.941" x2="298.478" y2="905.546" gradientUnits="userSpaceOnUse">
<stop stop-color="#8DFFF8"/>
<stop offset="1" stop-color="#6E3FE7"/>
</linearGradient>
<linearGradient id="paint63_linear_349_252" x1="1507.37" y1="628" x2="1507.37" y2="1012.12" gradientUnits="userSpaceOnUse">
<stop offset="0.21875" stop-color="#9FE2FE"/>
<stop offset="0.619792" stop-color="#3705AA"/>
</linearGradient>
<linearGradient id="paint64_linear_349_252" x1="1586.76" y1="921.213" x2="1586.76" y2="1089.59" gradientUnits="userSpaceOnUse">
<stop stop-color="#FF92C5"/>
<stop offset="1" stop-color="#6E3FE7"/>
</linearGradient>
<linearGradient id="paint65_linear_349_252" x1="1532.34" y1="692.021" x2="1532.34" y2="1145.92" gradientUnits="userSpaceOnUse">
<stop offset="0.046875" stop-color="#3D1977"/>
<stop offset="0.655497" stop-color="#7527E3"/>
<stop offset="1" stop-color="#E16ED1"/>
</linearGradient>
<linearGradient id="paint66_linear_349_252" x1="1486.24" y1="952.583" x2="1526.26" y2="1003.8" gradientUnits="userSpaceOnUse">
<stop stop-color="#E67BD5"/>
<stop offset="1" stop-color="#992FE1"/>
</linearGradient>
<linearGradient id="paint67_linear_349_252" x1="1547.06" y1="995.477" x2="1584.19" y2="1109.43" gradientUnits="userSpaceOnUse">
<stop stop-color="#95BBF3"/>
<stop offset="1" stop-color="#7728E5"/>
</linearGradient>
<linearGradient id="paint68_linear_349_252" x1="239.716" y1="317.426" x2="239.716" y2="1013.31" gradientUnits="userSpaceOnUse">
<stop stop-color="#D55FFF"/>
<stop offset="0.864583" stop-color="#4100E9"/>
</linearGradient>
<linearGradient id="paint69_linear_349_252" x1="206.031" y1="317.426" x2="206.031" y2="1013.31" gradientUnits="userSpaceOnUse">
<stop stop-color="#66FFF6"/>
<stop offset="0.864583" stop-color="#6E3FE7"/>
</linearGradient>
<linearGradient id="paint70_linear_349_252" x1="206.031" y1="317.426" x2="206.031" y2="1013.31" gradientUnits="userSpaceOnUse">
<stop stop-color="#66FFF6"/>
<stop offset="0.864583" stop-color="#6E3FE7"/>
</linearGradient>
<linearGradient id="paint71_linear_349_252" x1="177.906" y1="407.907" x2="177.906" y2="1181.91" gradientUnits="userSpaceOnUse">
<stop offset="0.479167" stop-color="#66FFF6"/>
<stop offset="1" stop-color="#FF5FBD"/>
</linearGradient>
<linearGradient id="paint72_linear_349_252" x1="1129.19" y1="571.512" x2="1129.19" y2="996.796" gradientUnits="userSpaceOnUse">
<stop stop-color="#D55FFF"/>
<stop offset="0.864583" stop-color="#4100E9"/>
</linearGradient>
<linearGradient id="paint73_linear_349_252" x1="1158.74" y1="571.512" x2="1158.74" y2="996.796" gradientUnits="userSpaceOnUse">
<stop stop-color="#66FFF6"/>
<stop offset="0.864583" stop-color="#6E3FE7"/>
</linearGradient>
<linearGradient id="paint74_linear_349_252" x1="1158.74" y1="571.512" x2="1158.74" y2="996.796" gradientUnits="userSpaceOnUse">
<stop stop-color="#66FFF6"/>
<stop offset="0.864583" stop-color="#6E3FE7"/>
</linearGradient>
<linearGradient id="paint75_linear_349_252" x1="1183.5" y1="627" x2="1183.5" y2="1134" gradientUnits="userSpaceOnUse">
<stop offset="0.479167" stop-color="#66FFF6"/>
<stop offset="1" stop-color="#FF5FBD"/>
</linearGradient>
<linearGradient id="paint76_linear_349_252" x1="404.578" y1="706.845" x2="404.578" y2="1049.72" gradientUnits="userSpaceOnUse">
<stop stop-color="#FF93F2"/>
<stop offset="1" stop-color="#A130DF"/>
</linearGradient>
<linearGradient id="paint77_linear_349_252" x1="464.128" y1="706.845" x2="464.128" y2="1041.4" gradientUnits="userSpaceOnUse">
<stop stop-color="#6624CB"/>
<stop offset="1" stop-color="#3B1874"/>
</linearGradient>
<linearGradient id="paint78_linear_349_252" x1="596.957" y1="123.534" x2="596.957" y2="925.161" gradientUnits="userSpaceOnUse">
<stop stop-color="#4BCDFC"/>
<stop offset="0.515625" stop-color="#92B9F2"/>
<stop offset="1" stop-color="#E86ED2"/>
</linearGradient>
<linearGradient id="paint79_linear_349_252" x1="594.66" y1="321.046" x2="594.66" y2="794.347" gradientUnits="userSpaceOnUse">
<stop stop-color="#44F5FD"/>
<stop offset="1" stop-color="#EA6ED0"/>
</linearGradient>
<linearGradient id="paint80_linear_349_252" x1="561.893" y1="453.934" x2="561.893" y2="792.526" gradientUnits="userSpaceOnUse">
<stop stop-color="#44F5FD"/>
<stop offset="1" stop-color="#EA6ED0"/>
</linearGradient>
<linearGradient id="paint81_linear_349_252" x1="40.5932" y1="625.659" x2="40.5932" y2="1045.3" gradientUnits="userSpaceOnUse">
<stop stop-color="#6E3FE7"/>
<stop offset="1" stop-color="#3705AA"/>
</linearGradient>
<linearGradient id="paint82_linear_349_252" x1="86.5587" y1="587.454" x2="86.5587" y2="964.73" gradientUnits="userSpaceOnUse">
<stop stop-color="#66FFF6"/>
<stop offset="1" stop-color="#3705AA"/>
</linearGradient>
<linearGradient id="paint83_linear_349_252" x1="35.5192" y1="587.454" x2="35.5192" y2="655.2" gradientUnits="userSpaceOnUse">
<stop stop-color="#6691FF"/>
<stop offset="1" stop-color="#E95FFF"/>
</linearGradient>
<linearGradient id="paint84_linear_349_252" x1="35.5192" y1="587.454" x2="35.5192" y2="655.2" gradientUnits="userSpaceOnUse">
<stop stop-color="#66FFF6"/>
<stop offset="1" stop-color="#8050ED"/>
</linearGradient>
<linearGradient id="paint85_linear_349_252" x1="27.7585" y1="655.507" x2="27.7585" y2="994.238" gradientUnits="userSpaceOnUse">
<stop stop-color="#A3E9FF"/>
<stop offset="1" stop-color="#F25FFF"/>
</linearGradient>
<linearGradient id="paint86_linear_349_252" x1="471.412" y1="463.799" x2="471.412" y2="847.921" gradientUnits="userSpaceOnUse">
<stop offset="0.21875" stop-color="#9FE2FE"/>
<stop offset="0.619792" stop-color="#3705AA"/>
</linearGradient>
<linearGradient id="paint87_linear_349_252" x1="550.798" y1="757.012" x2="550.798" y2="925.386" gradientUnits="userSpaceOnUse">
<stop stop-color="#FF92C5"/>
<stop offset="1" stop-color="#6E3FE7"/>
</linearGradient>
<linearGradient id="paint88_linear_349_252" x1="496.38" y1="527.819" x2="496.38" y2="981.724" gradientUnits="userSpaceOnUse">
<stop offset="0.046875" stop-color="#3D1977"/>
<stop offset="0.655497" stop-color="#7527E3"/>
<stop offset="1" stop-color="#E16ED1"/>
</linearGradient>
<linearGradient id="paint89_linear_349_252" x1="450.285" y1="788.382" x2="490.298" y2="839.598" gradientUnits="userSpaceOnUse">
<stop stop-color="#E67BD5"/>
<stop offset="1" stop-color="#992FE1"/>
</linearGradient>
<linearGradient id="paint90_linear_349_252" x1="511.105" y1="831.276" x2="548.236" y2="945.232" gradientUnits="userSpaceOnUse">
<stop stop-color="#95BBF3"/>
<stop offset="1" stop-color="#7728E5"/>
</linearGradient>
<linearGradient id="paint91_linear_349_252" x1="913.75" y1="578" x2="913.75" y2="1092.11" gradientUnits="userSpaceOnUse">
<stop stop-color="#6E26D7"/>
<stop offset="1" stop-color="#E76FD1"/>
</linearGradient>
<linearGradient id="paint92_linear_349_252" x1="858.138" y1="578" x2="858.138" y2="1087.99" gradientUnits="userSpaceOnUse">
<stop stop-color="#9FE2FE"/>
<stop offset="0.541667" stop-color="#4ACDFE"/>
<stop offset="0.958333" stop-color="#E570D4"/>
</linearGradient>
<linearGradient id="paint93_linear_349_252" x1="858.138" y1="578" x2="858.138" y2="1087.99" gradientUnits="userSpaceOnUse">
<stop stop-color="#9FE2FE"/>
<stop offset="0.541667" stop-color="#4ACDFE"/>
<stop offset="0.958333" stop-color="#E570D4"/>
</linearGradient>
<linearGradient id="paint94_linear_349_252" x1="962.562" y1="682.114" x2="962.562" y2="1024.99" gradientUnits="userSpaceOnUse">
<stop stop-color="#FF93F2"/>
<stop offset="1" stop-color="#A130DF"/>
</linearGradient>
<linearGradient id="paint95_linear_349_252" x1="924.552" y1="682.114" x2="924.552" y2="1016.67" gradientUnits="userSpaceOnUse">
<stop stop-color="#6624CB"/>
<stop offset="1" stop-color="#3B1874"/>
</linearGradient>
<linearGradient id="paint96_linear_349_252" x1="1050.59" y1="657.719" x2="1050.59" y2="968.87" gradientUnits="userSpaceOnUse">
<stop stop-color="#FF5FBD"/>
<stop offset="1" stop-color="#6E3FE7"/>
</linearGradient>
<linearGradient id="paint97_linear_349_252" x1="1004.25" y1="657.719" x2="1004.25" y2="968.87" gradientUnits="userSpaceOnUse">
<stop stop-color="#401A7F"/>
<stop offset="1" stop-color="#6E3FE7"/>
</linearGradient>
<linearGradient id="paint98_linear_349_252" x1="1055.46" y1="612.817" x2="1055.46" y2="1003.65" gradientUnits="userSpaceOnUse">
<stop offset="0.520833" stop-color="#9FE2FF"/>
<stop offset="1" stop-color="#E26DD3"/>
</linearGradient>
<linearGradient id="paint99_linear_349_252" x1="1055.46" y1="612.817" x2="1055.46" y2="1003.65" gradientUnits="userSpaceOnUse">
<stop offset="0.520833" stop-color="#9FE2FF"/>
<stop offset="1" stop-color="#E26DD3"/>
</linearGradient>
<linearGradient id="paint100_linear_349_252" x1="1055.46" y1="612.817" x2="1055.46" y2="1003.65" gradientUnits="userSpaceOnUse">
<stop offset="0.520833" stop-color="#9FE2FF"/>
<stop offset="1" stop-color="#E26DD3"/>
</linearGradient>
<linearGradient id="paint101_linear_349_252" x1="1055.46" y1="612.817" x2="1055.46" y2="1003.65" gradientUnits="userSpaceOnUse">
<stop offset="0.520833" stop-color="#9FE2FF"/>
<stop offset="1" stop-color="#E26DD3"/>
</linearGradient>
<linearGradient id="paint102_linear_349_252" x1="1055.76" y1="631.768" x2="1055.76" y2="984.875" gradientUnits="userSpaceOnUse">
<stop stop-color="#FF5FEF"/>
<stop offset="1" stop-color="#6FB7FF"/>
</linearGradient>
<linearGradient id="paint103_linear_349_252" x1="1055.76" y1="631.768" x2="1055.76" y2="984.875" gradientUnits="userSpaceOnUse">
<stop stop-color="#FF5FEF"/>
<stop offset="1" stop-color="#6FB7FF"/>
</linearGradient>
<linearGradient id="paint104_linear_349_252" x1="1055.76" y1="631.768" x2="1055.76" y2="984.875" gradientUnits="userSpaceOnUse">
<stop stop-color="#FF5FEF"/>
<stop offset="1" stop-color="#6FB7FF"/>
</linearGradient>
<linearGradient id="paint105_linear_349_252" x1="1055.76" y1="631.768" x2="1055.76" y2="984.875" gradientUnits="userSpaceOnUse">
<stop stop-color="#FF5FEF"/>
<stop offset="1" stop-color="#6FB7FF"/>
</linearGradient>
<linearGradient id="paint106_linear_349_252" x1="999.377" y1="612.185" x2="999.377" y2="1004.29" gradientUnits="userSpaceOnUse">
<stop stop-color="#6E3FE7"/>
<stop offset="1" stop-color="#766DE2"/>
</linearGradient>
<linearGradient id="paint107_linear_349_252" x1="999.377" y1="612.185" x2="999.377" y2="1004.29" gradientUnits="userSpaceOnUse">
<stop stop-color="#6E3FE7"/>
<stop offset="1" stop-color="#766DE2"/>
</linearGradient>
<linearGradient id="paint108_linear_349_252" x1="999.377" y1="612.185" x2="999.377" y2="1004.29" gradientUnits="userSpaceOnUse">
<stop stop-color="#6E3FE7"/>
<stop offset="1" stop-color="#766DE2"/>
</linearGradient>
<linearGradient id="paint109_linear_349_252" x1="999.377" y1="612.185" x2="999.377" y2="1004.29" gradientUnits="userSpaceOnUse">
<stop stop-color="#6E3FE7"/>
<stop offset="1" stop-color="#766DE2"/>
</linearGradient>
<linearGradient id="paint110_linear_349_252" x1="999.376" y1="631.158" x2="999.376" y2="985.313" gradientUnits="userSpaceOnUse">
<stop stop-color="#88DDFE"/>
<stop offset="1" stop-color="#4DA6FF"/>
</linearGradient>
<linearGradient id="paint111_linear_349_252" x1="999.376" y1="631.158" x2="999.376" y2="985.313" gradientUnits="userSpaceOnUse">
<stop stop-color="#88DDFE"/>
<stop offset="1" stop-color="#4DA6FF"/>
</linearGradient>
<linearGradient id="paint112_linear_349_252" x1="999.376" y1="631.158" x2="999.376" y2="985.313" gradientUnits="userSpaceOnUse">
<stop stop-color="#88DDFE"/>
<stop offset="1" stop-color="#4DA6FF"/>
</linearGradient>
<linearGradient id="paint113_linear_349_252" x1="999.376" y1="631.158" x2="999.376" y2="985.313" gradientUnits="userSpaceOnUse">
<stop stop-color="#88DDFE"/>
<stop offset="1" stop-color="#4DA6FF"/>
</linearGradient>
<linearGradient id="paint114_linear_349_252" x1="92.1016" y1="405.809" x2="92.1016" y2="983.723" gradientUnits="userSpaceOnUse">
<stop stop-color="#6E3FE7"/>
<stop offset="1" stop-color="#3705AA"/>
</linearGradient>
<linearGradient id="paint115_linear_349_252" x1="149.239" y1="405.809" x2="149.239" y2="988.268" gradientUnits="userSpaceOnUse">
<stop stop-color="#66FFF6"/>
<stop offset="1" stop-color="#EA6ED0"/>
</linearGradient>
<linearGradient id="paint116_linear_349_252" x1="150.944" y1="689.363" x2="150.944" y2="744.368" gradientUnits="userSpaceOnUse">
<stop stop-color="#E164F5"/>
<stop offset="1" stop-color="#6E3FE7"/>
</linearGradient>
<linearGradient id="paint117_linear_349_252" x1="617.561" y1="730.748" x2="617.561" y2="1063.86" gradientUnits="userSpaceOnUse">
<stop stop-color="#FF5FBD"/>
<stop offset="1" stop-color="#6E3FE7"/>
</linearGradient>
<linearGradient id="paint118_linear_349_252" x1="669.017" y1="730.748" x2="669.017" y2="1063.86" gradientUnits="userSpaceOnUse">
<stop stop-color="#401A7F"/>
<stop offset="1" stop-color="#6E3FE7"/>
</linearGradient>
<linearGradient id="paint119_linear_349_252" x1="612.144" y1="682.677" x2="612.144" y2="1101.09" gradientUnits="userSpaceOnUse">
<stop offset="0.520833" stop-color="#9FE2FF"/>
<stop offset="1" stop-color="#E26DD3"/>
</linearGradient>
<linearGradient id="paint120_linear_349_252" x1="612.144" y1="682.677" x2="612.144" y2="1101.09" gradientUnits="userSpaceOnUse">
<stop offset="0.520833" stop-color="#9FE2FF"/>
<stop offset="1" stop-color="#E26DD3"/>
</linearGradient>
<linearGradient id="paint121_linear_349_252" x1="612.144" y1="682.677" x2="612.144" y2="1101.09" gradientUnits="userSpaceOnUse">
<stop offset="0.520833" stop-color="#9FE2FF"/>
<stop offset="1" stop-color="#E26DD3"/>
</linearGradient>
<linearGradient id="paint122_linear_349_252" x1="612.144" y1="682.677" x2="612.144" y2="1101.09" gradientUnits="userSpaceOnUse">
<stop offset="0.520833" stop-color="#9FE2FF"/>
<stop offset="1" stop-color="#E26DD3"/>
</linearGradient>
<linearGradient id="paint123_linear_349_252" x1="611.81" y1="702.964" x2="611.81" y2="1080.99" gradientUnits="userSpaceOnUse">
<stop stop-color="#FF5FEF"/>
<stop offset="1" stop-color="#6FB7FF"/>
</linearGradient>
<linearGradient id="paint124_linear_349_252" x1="611.81" y1="702.964" x2="611.81" y2="1080.99" gradientUnits="userSpaceOnUse">
<stop stop-color="#FF5FEF"/>
<stop offset="1" stop-color="#6FB7FF"/>
</linearGradient>
<linearGradient id="paint125_linear_349_252" x1="611.81" y1="702.964" x2="611.81" y2="1080.99" gradientUnits="userSpaceOnUse">
<stop stop-color="#FF5FEF"/>
<stop offset="1" stop-color="#6FB7FF"/>
</linearGradient>
<linearGradient id="paint126_linear_349_252" x1="611.81" y1="702.964" x2="611.81" y2="1080.99" gradientUnits="userSpaceOnUse">
<stop stop-color="#FF5FEF"/>
<stop offset="1" stop-color="#6FB7FF"/>
</linearGradient>
<linearGradient id="paint127_linear_349_252" x1="674.433" y1="682" x2="674.433" y2="1101.77" gradientUnits="userSpaceOnUse">
<stop stop-color="#6E3FE7"/>
<stop offset="1" stop-color="#766DE2"/>
</linearGradient>
<linearGradient id="paint128_linear_349_252" x1="674.433" y1="682" x2="674.433" y2="1101.77" gradientUnits="userSpaceOnUse">
<stop stop-color="#6E3FE7"/>
<stop offset="1" stop-color="#766DE2"/>
</linearGradient>
<linearGradient id="paint129_linear_349_252" x1="674.433" y1="682" x2="674.433" y2="1101.77" gradientUnits="userSpaceOnUse">
<stop stop-color="#6E3FE7"/>
<stop offset="1" stop-color="#766DE2"/>
</linearGradient>
<linearGradient id="paint130_linear_349_252" x1="674.433" y1="682" x2="674.433" y2="1101.77" gradientUnits="userSpaceOnUse">
<stop stop-color="#6E3FE7"/>
<stop offset="1" stop-color="#766DE2"/>
</linearGradient>
<linearGradient id="paint131_linear_349_252" x1="674.433" y1="702.312" x2="674.433" y2="1081.46" gradientUnits="userSpaceOnUse">
<stop stop-color="#88DDFE"/>
<stop offset="1" stop-color="#4DA6FF"/>
</linearGradient>
<linearGradient id="paint132_linear_349_252" x1="674.433" y1="702.312" x2="674.433" y2="1081.46" gradientUnits="userSpaceOnUse">
<stop stop-color="#88DDFE"/>
<stop offset="1" stop-color="#4DA6FF"/>
</linearGradient>
<linearGradient id="paint133_linear_349_252" x1="674.433" y1="702.312" x2="674.433" y2="1081.46" gradientUnits="userSpaceOnUse">
<stop stop-color="#88DDFE"/>
<stop offset="1" stop-color="#4DA6FF"/>
</linearGradient>
<linearGradient id="paint134_linear_349_252" x1="674.433" y1="702.312" x2="674.433" y2="1081.46" gradientUnits="userSpaceOnUse">
<stop stop-color="#88DDFE"/>
<stop offset="1" stop-color="#4DA6FF"/>
</linearGradient>
</defs>
</svg>