<svg width="517" height="517" viewBox="0 0 517 517" fill="none" xmlns="http://www.w3.org/2000/svg">
<path fill-rule="evenodd" clip-rule="evenodd" d="M163.685 94.5029C73.2844 146.696 42.311 262.29 94.5036 352.69C146.696 443.09 262.291 474.064 352.691 421.871C443.091 369.679 474.065 254.084 421.872 163.684C369.679 73.2837 254.085 42.3103 163.685 94.5029ZM186.576 134.153C118.074 173.703 94.6038 261.296 134.153 329.798C173.703 398.3 261.296 421.771 329.798 382.221C398.301 342.671 421.771 255.078 382.221 186.576C342.672 118.074 255.078 94.6034 186.576 134.153Z" fill="url(#paint0_linear_349_29)"/>
<path fill-rule="evenodd" clip-rule="evenodd" d="M90.0739 172.38C76.5327 198.957 69.4735 228.36 69.4735 258.187L115.258 258.187C115.258 235.586 120.607 213.304 130.868 193.166C141.129 173.028 156.01 155.603 174.296 142.318C192.581 129.033 213.751 120.264 236.075 116.729C258.398 113.193 281.242 114.991 302.738 121.975L316.886 78.4319C288.518 69.2148 258.372 66.8423 228.913 71.5083C199.453 76.1743 171.515 87.7463 147.385 105.278C123.254 122.81 103.615 145.804 90.0739 172.38Z" fill="#68C9FF"/>
<path fill-rule="evenodd" clip-rule="evenodd" d="M133.174 245.226L179.062 249.692C178.81 252.281 178.68 254.919 178.68 257.6C178.68 260.282 178.81 262.92 179.062 265.509L133.174 269.975C132.778 265.904 132.575 261.776 132.575 257.6C132.575 253.425 132.778 249.297 133.174 245.226ZM137.978 294.247L182.102 280.878C183.629 285.918 185.644 290.754 188.096 295.333L147.454 317.101C143.584 309.875 140.396 302.228 137.978 294.247ZM161.217 337.662L196.84 308.393C200.182 312.46 203.915 316.194 207.982 319.535L178.713 355.158C172.327 349.911 166.465 344.049 161.217 337.662ZM199.274 368.921L221.043 328.279C225.621 330.731 230.457 332.746 235.497 334.273L222.129 378.397C214.147 375.979 206.5 372.792 199.274 368.921ZM246.4 383.201L250.866 337.313C253.456 337.565 256.093 337.695 258.775 337.695C261.457 337.695 264.094 337.565 266.683 337.313L271.149 383.201C267.078 383.598 262.95 383.8 258.775 383.8C254.6 383.8 250.472 383.598 246.4 383.201ZM295.421 378.397L282.053 334.273C287.093 332.746 291.928 330.731 296.507 328.279L318.276 368.921C311.049 372.792 303.402 375.979 295.421 378.397ZM338.836 355.158L309.568 319.535C313.634 316.194 317.368 312.46 320.709 308.393L356.332 337.662C351.085 344.049 345.223 349.911 338.836 355.158ZM370.096 317.101L329.453 295.333C331.906 290.754 333.92 285.918 335.447 280.878L379.572 294.247C377.153 302.228 373.966 309.875 370.096 317.101ZM384.376 269.975C384.772 265.904 384.975 261.776 384.975 257.601C384.975 253.425 384.772 249.297 384.376 245.226L338.488 249.692C338.74 252.281 338.87 254.919 338.87 257.6C338.87 260.282 338.74 262.92 338.488 265.509L384.376 269.975ZM379.572 220.954L335.447 234.323C333.92 229.283 331.906 224.447 329.453 219.868L370.096 198.1C373.966 205.326 377.154 212.973 379.572 220.954ZM356.332 177.539L320.709 206.808C317.368 202.741 313.634 199.007 309.568 195.666L338.836 160.043C345.223 165.29 351.085 171.152 356.332 177.539ZM318.276 146.28L296.507 186.922C291.928 184.47 287.093 182.455 282.053 180.928L295.421 136.804C303.402 139.222 311.049 142.409 318.276 146.28ZM271.149 132L266.684 177.888C264.094 177.636 261.457 177.506 258.775 177.506C256.093 177.506 253.456 177.636 250.866 177.888L246.4 132C250.472 131.603 254.6 131.401 258.775 131.401C262.95 131.401 267.078 131.603 271.149 132ZM222.129 136.804L235.497 180.928C230.457 182.455 225.621 184.47 221.043 186.922L199.274 146.28C206.5 142.409 214.147 139.222 222.129 136.804ZM178.713 160.043L207.982 195.666C203.915 199.007 200.182 202.741 196.84 206.808L161.217 177.539C166.465 171.152 172.327 165.29 178.713 160.043ZM147.454 198.1L188.096 219.868C185.644 224.447 183.629 229.283 182.102 234.323L137.978 220.954C140.396 212.973 143.584 205.326 147.454 198.1Z" fill="url(#paint1_linear_349_29)"/>
<path fill-rule="evenodd" clip-rule="evenodd" d="M48.1626 250.691L61.9869 251.136C61.9177 253.282 61.8829 255.437 61.8829 257.601C61.8829 259.764 61.9177 261.919 61.9869 264.065L48.1626 264.511C48.0887 262.216 48.0514 259.913 48.0514 257.601C48.0514 255.289 48.0887 252.985 48.1626 250.691ZM49.0516 278.263L62.818 276.924C63.2369 281.227 63.7941 285.489 64.4851 289.705L50.8357 291.942C50.096 287.429 49.4997 282.868 49.0516 278.263ZM53.513 305.473L66.9856 302.343C67.9612 306.543 69.071 310.69 70.3105 314.781L57.0732 318.792C55.7459 314.411 54.5575 309.97 53.513 305.473ZM61.5051 331.851L74.4492 326.977C75.9671 331.007 77.6135 334.975 79.3835 338.876L66.7884 344.592C64.8933 340.416 63.1304 336.167 61.5051 331.851ZM72.896 356.953C75.0709 361.014 77.375 364.995 79.8027 368.891L91.5416 361.576C89.2731 357.935 87.1204 354.216 85.0887 350.423L72.896 356.953ZM87.475 380.351L98.7112 372.285C101.219 375.778 103.838 379.187 106.564 382.504L95.8774 391.285C92.961 387.735 90.1584 384.089 87.475 380.351ZM104.975 401.65L115.068 392.193C118.007 395.33 121.047 398.37 124.183 401.309L114.726 411.402C111.371 408.258 108.119 405.006 104.975 401.65ZM125.092 420.499L133.872 409.812C137.19 412.538 140.598 415.158 144.092 417.665L136.026 428.902C132.288 426.218 128.641 423.416 125.092 420.499ZM147.486 436.574L154.801 424.835C158.441 427.103 162.161 429.256 165.954 431.288L159.423 443.481C155.363 441.306 151.382 439.002 147.486 436.574ZM171.785 449.588L177.501 436.993C181.401 438.763 185.369 440.41 189.4 441.927L184.525 454.871C180.209 453.246 175.961 451.483 171.785 449.588ZM197.585 459.303L201.595 446.066C205.686 447.306 209.834 448.415 214.033 449.391L210.903 462.864C206.407 461.819 201.966 460.631 197.585 459.303ZM224.434 465.541L226.672 451.892C230.887 452.583 235.149 453.14 239.453 453.559L238.113 467.325C233.509 466.877 228.947 466.281 224.434 465.541ZM251.866 468.214L252.311 454.39C254.457 454.459 256.612 454.494 258.776 454.494C260.939 454.494 263.094 454.459 265.24 454.39L265.685 468.214C263.391 468.288 261.088 468.325 258.776 468.325C256.464 468.325 254.16 468.288 251.866 468.214ZM279.438 467.325L278.099 453.559C282.402 453.14 286.664 452.583 290.88 451.892L293.117 465.541C288.604 466.281 284.043 466.877 279.438 467.325ZM306.648 462.864L303.518 449.391C307.717 448.415 311.865 447.306 315.956 446.066L319.966 459.303C315.586 460.631 311.144 461.819 306.648 462.864ZM333.026 454.871L328.152 441.927C332.182 440.41 336.15 438.763 340.05 436.993L345.766 449.588C341.591 451.483 337.342 453.246 333.026 454.871ZM358.128 443.481L351.598 431.288C355.391 429.256 359.11 427.103 362.751 424.835L370.066 436.574C366.17 439.002 362.189 441.306 358.128 443.481ZM381.526 428.902L373.46 417.665C376.953 415.158 380.361 412.538 383.679 409.812L392.46 420.499C388.91 423.416 385.264 426.218 381.526 428.902ZM402.825 411.402L393.368 401.309C396.505 398.37 399.545 395.33 402.484 392.193L412.577 401.65C409.433 405.006 406.181 408.258 402.825 411.402ZM421.674 391.285L410.987 382.504C413.713 379.187 416.332 375.778 418.84 372.285L430.076 380.351C427.393 384.089 424.59 387.736 421.674 391.285ZM437.749 368.891L426.01 361.576C428.278 357.935 430.431 354.216 432.463 350.423L444.655 356.953C442.48 361.014 440.176 364.995 437.749 368.891ZM450.763 344.592L438.168 338.876C439.938 334.975 441.584 331.007 443.102 326.977L456.046 331.851C454.421 336.167 452.658 340.416 450.763 344.592ZM460.478 318.792L447.241 314.781C448.48 310.69 449.59 306.543 450.566 302.343L464.038 305.473C462.994 309.97 461.805 314.411 460.478 318.792ZM466.716 291.942L453.066 289.705C453.757 285.489 454.315 281.227 454.733 276.924L468.5 278.263C468.052 282.868 467.455 287.429 466.716 291.942ZM469.389 264.511C469.463 262.217 469.5 259.913 469.5 257.601C469.5 255.289 469.463 252.985 469.389 250.691L455.565 251.136C455.634 253.282 455.669 255.437 455.669 257.601C455.669 259.765 455.634 261.92 455.565 264.065L469.389 264.511ZM468.5 236.938L454.733 238.278C454.315 233.975 453.757 229.713 453.066 225.497L466.716 223.26C467.455 227.773 468.052 232.334 468.5 236.938ZM464.039 209.729L450.566 212.858C449.59 208.659 448.48 204.512 447.241 200.421L460.478 196.41C461.806 200.791 462.994 205.232 464.039 209.729ZM456.046 183.351L443.102 188.225C441.584 184.194 439.938 180.226 438.168 176.326L450.763 170.61C452.658 174.786 454.421 179.035 456.046 183.351ZM444.655 158.249L432.463 164.779C430.431 160.986 428.278 157.266 426.01 153.626L437.749 146.311C440.176 150.207 442.481 154.188 444.655 158.249ZM430.076 134.851L418.84 142.917C416.332 139.423 413.713 136.015 410.987 132.697L421.674 123.917C424.59 127.466 427.393 131.113 430.076 134.851ZM412.577 113.551L402.484 123.009C399.545 119.872 396.505 116.832 393.368 113.893L402.825 103.8C406.181 106.944 409.433 110.196 412.577 113.551ZM392.46 94.7026L383.679 105.39C380.362 102.664 376.953 100.044 373.46 97.5364L381.526 86.3003C385.264 88.9836 388.91 91.7862 392.46 94.7026ZM370.066 78.6279L362.751 90.3668C359.11 88.0983 355.391 85.9457 351.598 83.9139L358.128 71.7212C362.189 73.8961 366.17 76.2002 370.066 78.6279ZM345.767 65.6136L340.051 78.2087C336.15 76.4386 332.182 74.7922 328.152 73.2744L333.026 60.3303C337.342 61.9556 341.591 63.7185 345.767 65.6136ZM319.967 55.8984L315.956 69.1357C311.865 67.8962 307.718 66.7863 303.518 65.8108L306.648 52.3381C311.144 53.3826 315.586 54.5712 319.967 55.8984ZM293.117 49.6609L290.88 63.3102C286.664 62.6192 282.402 62.062 278.099 61.6432L279.438 47.8768C284.043 48.3249 288.604 48.9212 293.117 49.6609ZM265.686 46.9877L265.24 60.812C263.094 60.7429 260.939 60.7081 258.776 60.7081C256.612 60.7081 254.457 60.7429 252.311 60.812L251.866 46.9877C254.16 46.9138 256.464 46.8766 258.776 46.8766C261.088 46.8766 263.391 46.9138 265.686 46.9877ZM238.113 47.8767L239.453 61.6432C235.149 62.062 230.888 62.6192 226.672 63.3102L224.435 49.6609C228.947 48.9212 233.509 48.3249 238.113 47.8767ZM210.904 52.3381L214.033 65.8108C209.834 66.7863 205.686 67.8962 201.595 69.1357L197.585 55.8984C201.966 54.5711 206.407 53.3826 210.904 52.3381ZM184.526 60.3303L189.4 73.2744C185.369 74.7922 181.401 76.4386 177.501 78.2087L171.785 65.6136C175.961 63.7184 180.209 61.9556 184.526 60.3303ZM159.423 71.7212L165.954 83.9139C162.161 85.9456 158.441 88.0983 154.801 90.3667L147.486 78.6279C151.382 76.2002 155.363 73.8961 159.423 71.7212ZM136.026 86.3002L144.092 97.5364C140.598 100.044 137.19 102.664 133.872 105.389L125.092 94.7025C128.641 91.7862 132.288 88.9835 136.026 86.3002ZM114.726 103.8L124.183 113.893C121.047 116.832 118.007 119.872 115.068 123.008L104.975 113.551C108.119 110.196 111.371 106.944 114.726 103.8ZM95.8774 123.917C92.9611 127.466 90.1584 131.113 87.4751 134.851L98.7113 142.917C101.219 139.423 103.838 136.015 106.564 132.697L95.8774 123.917ZM79.8028 146.311L91.5416 153.626C89.2732 157.266 87.1205 160.986 85.0887 164.779L72.8961 158.248C75.071 154.188 77.375 150.207 79.8028 146.311ZM66.7884 170.61L79.3836 176.326C77.6135 180.226 75.9671 184.194 74.4492 188.225L61.5051 183.351C63.1304 179.035 64.8933 174.786 66.7884 170.61ZM57.0732 196.41L70.3105 200.421C69.071 204.512 67.9612 208.659 66.9856 212.858L53.513 209.729C54.5575 205.232 55.746 200.791 57.0732 196.41ZM50.8357 223.26L64.4851 225.497C63.7941 229.713 63.2369 233.974 62.818 238.278L49.0516 236.938C49.4997 232.334 50.096 227.773 50.8357 223.26Z" fill="url(#paint2_linear_349_29)"/>
<defs>
<linearGradient id="paint0_linear_349_29" x1="352.691" y1="421.871" x2="163.685" y2="94.5029" gradientUnits="userSpaceOnUse">
<stop stop-color="#68C9FF"/>
<stop offset="1" stop-color="#68C9FF" stop-opacity="0"/>
</linearGradient>
<linearGradient id="paint1_linear_349_29" x1="197.729" y1="353.865" x2="282.254" y2="82.0948" gradientUnits="userSpaceOnUse">
<stop stop-color="#68C9FF"/>
<stop offset="1" stop-color="#68C9FF" stop-opacity="0"/>
</linearGradient>
<linearGradient id="paint2_linear_349_29" x1="156.844" y1="418.339" x2="297.98" y2="-35.4529" gradientUnits="userSpaceOnUse">
<stop stop-color="#68C9FF"/>
<stop offset="1" stop-color="#68C9FF" stop-opacity="0"/>
</linearGradient>
</defs>
</svg>