<svg width="518" height="518" viewBox="0 0 518 518" fill="none" xmlns="http://www.w3.org/2000/svg">
<path fill-rule="evenodd" clip-rule="evenodd" d="M259 509.645C397.427 509.645 509.645 397.427 509.645 259C509.645 120.572 397.427 8.35484 259 8.35484C120.572 8.35484 8.35484 120.572 8.35484 259C8.35484 397.427 120.572 509.645 259 509.645ZM259 518C402.042 518 518 402.042 518 259C518 115.958 402.042 0 259 0C115.958 0 0 115.958 0 259C0 402.042 115.958 518 259 518Z" fill="url(#paint0_linear_349_490)"/>
<path fill-rule="evenodd" clip-rule="evenodd" d="M255.135 494.495C387.33 494.495 494.495 387.33 494.495 255.135H502.849C502.849 391.944 391.944 502.849 255.135 502.849V494.495Z" fill="url(#paint1_linear_349_490)"/>
<path fill-rule="evenodd" clip-rule="evenodd" d="M262.866 23.5062C130.671 23.5062 23.5062 130.671 23.5062 262.866H15.1514C15.1514 126.057 126.057 15.1514 262.866 15.1514V23.5062Z" fill="url(#paint2_linear_349_490)"/>
<path fill-rule="evenodd" clip-rule="evenodd" d="M259 483.733C383.117 483.733 483.733 383.117 483.733 259C483.733 134.884 383.117 34.2677 259 34.2677C134.884 34.2677 34.2677 134.884 34.2677 259C34.2677 383.117 134.884 483.733 259 483.733ZM259 487.075C384.963 487.075 487.075 384.963 487.075 259C487.075 133.038 384.963 30.9258 259 30.9258C133.038 30.9258 30.9258 133.038 30.9258 259C30.9258 384.963 133.038 487.075 259 487.075Z" fill="url(#paint3_linear_349_490)"/>
<path fill-rule="evenodd" clip-rule="evenodd" d="M259 476.001C378.846 476.001 476.001 378.846 476.001 259C476.001 139.153 378.846 41.9982 259 41.9982C139.153 41.9982 41.9982 139.153 41.9982 259C41.9982 378.846 139.153 476.001 259 476.001ZM259 479.343C380.692 479.343 479.343 380.692 479.343 259C479.343 137.307 380.692 38.6562 259 38.6562C137.307 38.6562 38.6562 137.307 38.6562 259C38.6562 380.692 137.307 479.343 259 479.343Z" fill="url(#paint4_linear_349_490)"/>
<g filter="url(#filter0_f_349_490)">
<path d="M498.672 255.135C498.672 389.637 389.637 498.672 255.135 498.672" stroke="url(#paint5_linear_349_490)" stroke-width="2"/>
</g>
<g filter="url(#filter1_f_349_490)">
<path d="M19.3286 262.866C19.3286 128.364 128.364 19.3286 262.866 19.3286" stroke="url(#paint6_linear_349_490)" stroke-width="2"/>
</g>
<g filter="url(#filter2_f_349_490)">
<path fill-rule="evenodd" clip-rule="evenodd" d="M259 483.733C383.117 483.733 483.733 383.117 483.733 259C483.733 134.884 383.117 34.2677 259 34.2677C134.884 34.2677 34.2677 134.884 34.2677 259C34.2677 383.117 134.884 483.733 259 483.733ZM259 487.075C384.963 487.075 487.075 384.963 487.075 259C487.075 133.038 384.963 30.9258 259 30.9258C133.038 30.9258 30.9258 133.038 30.9258 259C30.9258 384.963 133.038 487.075 259 487.075Z" fill="url(#paint7_linear_349_490)"/>
</g>
<g filter="url(#filter3_f_349_490)">
<path fill-rule="evenodd" clip-rule="evenodd" d="M259 476.001C378.846 476.001 476.001 378.846 476.001 259C476.001 139.153 378.846 41.9982 259 41.9982C139.153 41.9982 41.9982 139.153 41.9982 259C41.9982 378.846 139.153 476.001 259 476.001ZM259 479.343C380.692 479.343 479.343 380.692 479.343 259C479.343 137.307 380.692 38.6562 259 38.6562C137.307 38.6562 38.6562 137.307 38.6562 259C38.6562 380.692 137.307 479.343 259 479.343Z" fill="url(#paint8_linear_349_490)"/>
</g>
<path fill-rule="evenodd" clip-rule="evenodd" d="M259 212.612C284.674 212.612 305.388 191.971 305.388 166.631V157.741L212.612 105.947V166.631C212.612 191.971 233.325 212.612 259 212.612ZM204.88 92.7764L231.89 107.855C236.914 99.6219 247.325 92.7764 257.066 92.7764C267.91 92.7764 279.661 99.7894 284.17 108.938L313.119 92.7764V153.203V158.493V166.631C313.119 195.006 290.949 218.243 262.863 220.209L262.865 220.266L262.865 220.344V239.672L284.127 253.202L262.865 266.732V417.493C262.865 419.628 261.135 421.358 259 421.358C256.865 421.358 255.134 419.628 255.134 417.493V362.143L235.806 349.844L255.134 337.544V220.344L255.134 220.316C255.134 220.28 255.135 220.244 255.136 220.209C227.05 218.243 204.88 195.006 204.88 166.631V92.7764ZM258.933 122.567L238.766 111.443C240.004 109.531 241.753 107.564 243.99 105.768C248.189 102.398 253.033 100.508 257.066 100.508C261.874 100.508 267.343 102.506 271.664 105.859C274.258 107.872 276.062 110.06 277.136 112.165L258.933 122.567ZM270.123 125.635L305.388 145.322V105.947L270.123 125.635ZM282.194 367.239V328.582C282.194 317.908 290.847 309.254 301.522 309.254H351.776V347.911C351.776 358.585 343.122 367.239 332.448 367.239H282.194ZM297.51 359.508H332.448C338.852 359.508 344.045 354.316 344.045 347.911V320.729L297.51 359.508ZM336.46 316.985L289.925 355.764V328.582C289.925 322.177 295.117 316.985 301.522 316.985H336.46ZM216.477 239.672C227.152 239.672 235.806 248.325 235.806 259V297.657H185.552C174.877 297.657 166.224 289.003 166.224 278.329V239.672H216.477ZM185.552 289.926H220.49L173.955 251.147V278.329C173.955 284.733 179.147 289.926 185.552 289.926ZM228.074 286.182L181.54 247.403H216.477C222.882 247.403 228.074 252.595 228.074 259V286.182Z" fill="url(#paint9_linear_349_490)"/>
<defs>
<filter id="filter0_f_349_490" x="251.135" y="251.135" width="252.537" height="252.537" filterUnits="userSpaceOnUse" color-interpolation-filters="sRGB">
<feFlood flood-opacity="0" result="BackgroundImageFix"/>
<feBlend mode="normal" in="SourceGraphic" in2="BackgroundImageFix" result="shape"/>
<feGaussianBlur stdDeviation="2" result="effect1_foregroundBlur_349_490"/>
</filter>
<filter id="filter1_f_349_490" x="14.3286" y="14.3286" width="252.537" height="252.537" filterUnits="userSpaceOnUse" color-interpolation-filters="sRGB">
<feFlood flood-opacity="0" result="BackgroundImageFix"/>
<feBlend mode="normal" in="SourceGraphic" in2="BackgroundImageFix" result="shape"/>
<feGaussianBlur stdDeviation="2" result="effect1_foregroundBlur_349_490"/>
</filter>
<filter id="filter2_f_349_490" x="26.9258" y="26.9258" width="464.149" height="464.149" filterUnits="userSpaceOnUse" color-interpolation-filters="sRGB">
<feFlood flood-opacity="0" result="BackgroundImageFix"/>
<feBlend mode="normal" in="SourceGraphic" in2="BackgroundImageFix" result="shape"/>
<feGaussianBlur stdDeviation="2" result="effect1_foregroundBlur_349_490"/>
</filter>
<filter id="filter3_f_349_490" x="34.6562" y="34.6562" width="448.687" height="448.687" filterUnits="userSpaceOnUse" color-interpolation-filters="sRGB">
<feFlood flood-opacity="0" result="BackgroundImageFix"/>
<feBlend mode="normal" in="SourceGraphic" in2="BackgroundImageFix" result="shape"/>
<feGaussianBlur stdDeviation="2" result="effect1_foregroundBlur_349_490"/>
</filter>
<linearGradient id="paint0_linear_349_490" x1="81.1791" y1="75.3806" x2="403.963" y2="456.149" gradientUnits="userSpaceOnUse">
<stop stop-color="#74FEFF"/>
<stop offset="1" stop-color="#DB8DCA"/>
</linearGradient>
<linearGradient id="paint1_linear_349_490" x1="376.903" y1="255.135" x2="376.903" y2="498.672" gradientUnits="userSpaceOnUse">
<stop stop-color="white"/>
<stop offset="1" stop-color="#74FEFF"/>
</linearGradient>
<linearGradient id="paint2_linear_349_490" x1="141.097" y1="19.3288" x2="141.097" y2="262.866" gradientUnits="userSpaceOnUse">
<stop stop-color="#FF92C5"/>
<stop offset="1" stop-color="white"/>
</linearGradient>
<linearGradient id="paint3_linear_349_490" x1="259" y1="30.9258" x2="259" y2="487.075" gradientUnits="userSpaceOnUse">
<stop stop-color="#FF92C5"/>
<stop offset="0.463542" stop-color="white"/>
<stop offset="1" stop-color="#74FEFF"/>
</linearGradient>
<linearGradient id="paint4_linear_349_490" x1="259" y1="38.6562" x2="259" y2="479.343" gradientUnits="userSpaceOnUse">
<stop stop-color="#FF92C5"/>
<stop offset="0.463542" stop-color="white"/>
<stop offset="1" stop-color="#74FEFF"/>
</linearGradient>
<linearGradient id="paint5_linear_349_490" x1="376.903" y1="255.135" x2="376.903" y2="498.672" gradientUnits="userSpaceOnUse">
<stop stop-color="white"/>
<stop offset="1" stop-color="#74FEFF"/>
</linearGradient>
<linearGradient id="paint6_linear_349_490" x1="141.097" y1="19.3286" x2="141.097" y2="262.866" gradientUnits="userSpaceOnUse">
<stop stop-color="#FF92C5"/>
<stop offset="1" stop-color="white"/>
</linearGradient>
<linearGradient id="paint7_linear_349_490" x1="259" y1="30.9258" x2="259" y2="487.075" gradientUnits="userSpaceOnUse">
<stop stop-color="#FF92C5"/>
<stop offset="0.463542" stop-color="white"/>
<stop offset="1" stop-color="#74FEFF"/>
</linearGradient>
<linearGradient id="paint8_linear_349_490" x1="259" y1="38.6562" x2="259" y2="479.343" gradientUnits="userSpaceOnUse">
<stop stop-color="#FF92C5"/>
<stop offset="0.463542" stop-color="white"/>
<stop offset="1" stop-color="#74FEFF"/>
</linearGradient>
<linearGradient id="paint9_linear_349_490" x1="259" y1="92.7764" x2="259" y2="421.358" gradientUnits="userSpaceOnUse">
<stop stop-color="#9FF0F8"/>
<stop offset="1" stop-color="#E872DF"/>
</linearGradient>
</defs>
</svg>