<svg width="295" height="490" viewBox="0 0 295 490" fill="none" xmlns="http://www.w3.org/2000/svg">
<circle cx="34.0848" cy="48.9051" r="10.3738" fill="#FF8FF4"/>
<circle cx="260.828" cy="48.9051" r="10.3738" fill="#FF8FF4"/>
<ellipse cx="147.457" cy="49.6463" rx="68.912" ry="49.6463" fill="url(#paint0_linear_349_60)"/>
<circle cx="191.176" cy="34.0858" r="13.3378" fill="#BF2BCC"/>
<circle cx="191.175" cy="34.0858" r="10.3738" fill="#E77FF8"/>
<circle cx="148.197" cy="23.7118" r="13.3378" fill="#BF2BCC"/>
<circle cx="148.198" cy="23.7117" r="10.3738" fill="#FF8FF4"/>
<circle cx="102.256" cy="34.0858" r="13.3378" fill="#BF2BCC"/>
<circle cx="102.257" cy="34.0858" r="10.3738" fill="#E77FF8"/>
<ellipse cx="147.456" cy="76.3222" rx="143.011" ry="39.2724" fill="#B327A5"/>
<ellipse cx="147.456" cy="83.7319" rx="143.011" ry="39.2724" fill="url(#paint1_linear_349_60)"/>
<ellipse cx="147.725" cy="91.7765" rx="92.6236" ry="28.8986" fill="#F2BCFF"/>
<ellipse cx="147.457" cy="91.8825" rx="76.3219" ry="20.7477" fill="#B327A5"/>
<ellipse cx="147.457" cy="99.2926" rx="76.3219" ry="20.7477" fill="#EB98F9"/>
<ellipse cx="147.457" cy="99.2929" rx="60.0201" ry="13.3378" fill="#FCFEFF"/>
<circle cx="124.485" cy="26.6759" r="2.96396" fill="#E46CCA"/>
<circle cx="170.427" cy="26.6759" r="2.96396" fill="#E46CCA"/>
<path d="M23.7111 61.5017C37.6532 74.617 59.2788 83.7319 80.0265 86.6958" stroke="#B327A5"/>
<path d="M32.6039 106.702C48.9055 108.925 59.2792 110.408 76.322 106.702" stroke="#B327A5"/>
<path d="M88.0527 45.5303C93.4543 58.5403 97.8508 65.3997 108.8 76.6518" stroke="#B327A5"/>
<path d="M270.337 61.5017C256.395 74.617 234.769 83.7319 214.021 86.6958" stroke="#B327A5"/>
<path d="M261.444 106.702C245.142 108.925 234.769 110.408 217.726 106.702" stroke="#B327A5"/>
<path d="M205.994 45.5303C200.593 58.5403 196.196 65.3997 185.246 76.6518" stroke="#B327A5"/>
<line x1="148.697" y1="41.4951" x2="148.697" y2="75.5806" stroke="#B327A5"/>
<path d="M0 489.053L87.811 96.3286H206.362L294.173 489.053H0Z" fill="url(#paint2_linear_349_60)"/>
<defs>
<linearGradient id="paint0_linear_349_60" x1="147.457" y1="0" x2="147.457" y2="99.2925" gradientUnits="userSpaceOnUse">
<stop stop-color="#F9D7FA"/>
<stop offset="1" stop-color="#D018E0"/>
</linearGradient>
<linearGradient id="paint1_linear_349_60" x1="147.456" y1="44.4595" x2="147.456" y2="123.004" gradientUnits="userSpaceOnUse">
<stop stop-color="#9E2FA0"/>
<stop offset="1" stop-color="#FF9FF0"/>
</linearGradient>
<linearGradient id="paint2_linear_349_60" x1="147.086" y1="96.3286" x2="146.716" y2="372.718" gradientUnits="userSpaceOnUse">
<stop stop-color="white"/>
<stop offset="1" stop-color="white" stop-opacity="0"/>
</linearGradient>
</defs>
</svg>